<svg xmlns="http://www.w3.org/2000/svg" width="41.859" height="47.03" viewBox="0 0 41.859 47.03">
  <g id="Group_493" data-name="Group 493" transform="translate(-219.443 -20.356)">
    <path id="Path_661" data-name="Path 661" d="M261.222,48.362c.049-.578.08-1.16.08-1.749V41.137c0,.59-.031,1.172-.08,1.749-.006.074-.01.149-.017.223-.052.547-.128,1.086-.222,1.62-.016.09-.031.18-.048.27q-.168.88-.408,1.733c-.024.083-.047.166-.071.249q-.25.848-.57,1.663c-.043.109-.085.218-.129.326-.081.2-.166.393-.253.587-.06.135-.121.269-.184.4-.094.2-.192.393-.292.588-.064.124-.126.25-.192.372-.114.211-.233.417-.354.623-.059.1-.116.206-.178.307q-.267.441-.556.868l-.02.031c-.215.315-.441.623-.672.926-.072.1-.148.186-.221.279q-.249.315-.509.62c-.087.1-.175.2-.263.3q-.265.3-.542.585c-.084.087-.166.175-.251.26-.264.266-.533.527-.812.778l-.013.013c-.283.255-.575.5-.872.74-.093.076-.188.148-.283.221-.21.164-.423.326-.64.482-.109.078-.219.156-.329.232-.22.152-.443.3-.669.443-.1.065-.2.131-.306.195-.324.2-.651.39-.986.571l-.012.006c-.338.183-.684.354-1.034.518-.109.051-.22.1-.33.148-.247.111-.5.219-.75.321-.125.05-.252.1-.379.148-.255.1-.512.188-.771.275-.116.039-.231.08-.348.117-.372.118-.747.228-1.128.325l-.005,0c-.382.1-.77.182-1.16.258-.121.024-.243.043-.365.065-.276.049-.552.093-.831.131-.14.019-.279.037-.419.053-.28.033-.562.059-.845.08-.127.01-.253.021-.381.029-.407.023-.817.038-1.23.038a20.855,20.855,0,0,1-20.929-20.773v5.476a20.855,20.855,0,0,0,20.929,20.773c.414,0,.823-.015,1.23-.039.128-.007.254-.019.381-.029q.425-.032.845-.079c.14-.017.279-.034.419-.053.279-.038.555-.083.831-.132.122-.021.244-.041.365-.064.39-.077.778-.161,1.16-.259h.005c.381-.1.756-.208,1.128-.326.117-.037.232-.078.348-.117.259-.087.516-.178.771-.275.127-.048.253-.1.379-.148.253-.1.5-.209.75-.32.11-.05.221-.1.33-.149.35-.164.7-.335,1.034-.517l.012-.007c.335-.181.662-.373.986-.571.1-.063.2-.13.306-.195.226-.144.449-.291.669-.443.11-.076.22-.153.329-.232q.326-.234.64-.482c.1-.073.19-.145.283-.22.3-.24.589-.486.872-.741l.009-.008c.28-.253.551-.515.817-.783.084-.085.166-.173.249-.259.184-.192.366-.387.543-.586.088-.1.176-.2.263-.3.174-.2.343-.411.509-.621.074-.093.148-.184.22-.278.232-.3.458-.611.673-.928h0l.014-.021q.291-.43.562-.876c.061-.1.117-.2.177-.306.12-.206.24-.412.353-.623.067-.123.129-.249.193-.374.1-.194.2-.389.292-.586q.094-.2.184-.405c.087-.194.172-.389.252-.585.029-.069.061-.135.088-.2.016-.04.026-.082.042-.122q.32-.816.57-1.664c.024-.082.047-.165.071-.248q.24-.854.408-1.734c.007-.04.02-.078.027-.118s.012-.1.021-.152c.094-.534.17-1.073.222-1.62C261.212,48.51,261.216,48.436,261.222,48.362Z" fill="#fc821e"/>
    <path id="Path_662" data-name="Path 662" d="M240.372,20.356a20.778,20.778,0,1,1-20.929,20.781A20.857,20.857,0,0,1,240.372,20.356Z" fill="#ffbe2e"/>
    <path id="Path_663" data-name="Path 663" d="M240.372,59.911A18.778,18.778,0,1,1,259.3,41.137,18.873,18.873,0,0,1,240.372,59.911Z" fill="none" stroke="#ffd921" stroke-miterlimit="10" stroke-width="1"/>
    <g id="Group_353" data-name="Group 353">
      <path id="Path_664" data-name="Path 664" d="M240.374,31.629a1.234,1.234,0,0,1,1.121.7l2.122,4.266a1.244,1.244,0,0,0,.94.68l4.741.683a1.242,1.242,0,0,1,.695,2.122L246.562,43.4a1.247,1.247,0,0,0-.359,1.1l.809,4.691a1.251,1.251,0,0,1-1.818,1.312l-4.24-2.216a1.262,1.262,0,0,0-1.163,0l-4.24,2.216a1.251,1.251,0,0,1-1.818-1.312l.808-4.691a1.236,1.236,0,0,0-.358-1.1l-3.431-3.321a1.242,1.242,0,0,1,.7-2.122l4.741-.683a1.256,1.256,0,0,0,.943-.68l2.118-4.266A1.243,1.243,0,0,1,240.374,31.629Z" fill="#fc821e"/>
    </g>
  </g>
</svg>
