<svg xmlns="http://www.w3.org/2000/svg" width="47.256" height="13.018" viewBox="0 0 47.256 13.018">
  <g id="Group_535" data-name="Group 535" transform="translate(-280.97 -37.014)">
    <g id="Group_66" data-name="Group 66" transform="translate(-3759.097)">
      <path id="Path_69" data-name="Path 69" d="M4046.914,37.014a.843.843,0,0,1,.767.476l1.453,2.92a.852.852,0,0,0,.644.465l3.245.468a.851.851,0,0,1,.476,1.453l-2.349,2.273a.857.857,0,0,0-.246.754l.554,3.212a.857.857,0,0,1-1.245.9l-2.9-1.518a.867.867,0,0,0-.8,0l-2.9,1.518a.857.857,0,0,1-1.245-.9l.554-3.212a.849.849,0,0,0-.246-.754l-2.349-2.273a.851.851,0,0,1,.476-1.453l3.246-.468a.859.859,0,0,0,.646-.465l1.45-2.92A.849.849,0,0,1,4046.914,37.014Z" fill="#ffbe2e"/>
    </g>
    <g id="Group_67" data-name="Group 67" transform="translate(-3759.097)">
      <path id="Path_70" data-name="Path 70" d="M4063.7,37.014a.846.846,0,0,1,.768.476l1.452,2.92a.852.852,0,0,0,.644.465l3.245.468a.851.851,0,0,1,.476,1.453l-2.349,2.273a.854.854,0,0,0-.245.754l.553,3.212a.857.857,0,0,1-1.245.9l-2.9-1.518a.865.865,0,0,0-.8,0l-2.9,1.518a.857.857,0,0,1-1.245-.9l.554-3.212a.849.849,0,0,0-.246-.754l-2.349-2.273a.851.851,0,0,1,.476-1.453l3.246-.468a.859.859,0,0,0,.646-.465l1.45-2.92A.849.849,0,0,1,4063.7,37.014Z" fill="#ffbe2e"/>
    </g>
    <g id="Group_68" data-name="Group 68" transform="translate(-3759.097)">
      <path id="Path_71" data-name="Path 71" d="M4080.478,37.014a.845.845,0,0,1,.768.476l1.452,2.92a.852.852,0,0,0,.644.465l3.245.468a.851.851,0,0,1,.476,1.453l-2.349,2.273a.853.853,0,0,0-.245.754l.553,3.212a.857.857,0,0,1-1.245.9l-2.9-1.518a.865.865,0,0,0-.8,0l-2.9,1.518a.857.857,0,0,1-1.245-.9l.554-3.212a.85.85,0,0,0-.246-.754L4073.89,42.8a.851.851,0,0,1,.476-1.453l3.246-.468a.859.859,0,0,0,.646-.465l1.45-2.92A.849.849,0,0,1,4080.478,37.014Z" fill="#ffbe2e"/>
    </g>
  </g>
</svg>
