<svg xmlns="http://www.w3.org/2000/svg" width="220.969" height="49.7" viewBox="0 0 220.969 49.7">
  <g id="Group_505" data-name="Group 505" transform="translate(-69.515 -166.682)">
    <path id="Path_677" data-name="Path 677" d="M761.581,191.532a115.751,115.751,0,0,0-27.889,18.22,26.529,26.529,0,0,1-17.571,6.63H586.081a26.535,26.535,0,0,1-17.58-6.63,115.712,115.712,0,0,0-27.889-18.22,115.906,115.906,0,0,0,27.889-18.22,26.529,26.529,0,0,1,17.571-6.63h130.04a26.576,26.576,0,0,1,17.58,6.62A115.494,115.494,0,0,0,761.581,191.532Z" transform="translate(-471.097)" fill="#00b9ff"/>
    <path id="Path_678" data-name="Path 678" d="M761.581,191.532a115.751,115.751,0,0,0-27.889,18.22,26.529,26.529,0,0,1-17.571,6.63h-64.71v-49.7h64.7a26.576,26.576,0,0,1,17.58,6.62A115.494,115.494,0,0,0,761.581,191.532Z" transform="translate(-471.097)" fill="#5ddfff"/>
  </g>
</svg>
