<svg xmlns="http://www.w3.org/2000/svg" width="36" height="35.28" viewBox="0 0 36 35.28">
  <g id="Group_498" data-name="Group 498" transform="translate(-199.477 -1076.122)">
    <path id="Path_632" data-name="Path 632" d="M203.962,1090.045" fill="none" stroke="#fc2f30" stroke-linecap="round" stroke-linejoin="round" stroke-width="0.875"/>
    <path id="Path_633" data-name="Path 633" d="M215.893,1109.219" fill="none" stroke="#fc2f30" stroke-linecap="round" stroke-linejoin="round" stroke-width="0.875"/>
    <g id="Group_344" data-name="Group 344">
      <path id="Path_634" data-name="Path 634" d="M232.374,1108.186V1106c0,.106-.006.209-.016.312,0,.035-.009.068-.014.1-.008.067-.018.134-.03.2-.01.051-.024.1-.036.151s-.025.1-.041.157-.032.1-.049.144-.035.1-.054.147c-.029.07-.062.138-.1.206-.016.032-.03.065-.047.1a3.114,3.114,0,0,1-.171.283l0,.005a3.134,3.134,0,0,1-.212.275c-.024.028-.05.055-.075.082-.056.061-.113.12-.173.176l-.092.083c-.062.054-.127.106-.193.155-.03.022-.059.045-.09.066a3.316,3.316,0,0,1-.3.188h0a3.129,3.129,0,0,1-.323.149c-.035.014-.071.026-.106.039-.079.029-.16.055-.242.078l-.123.032c-.084.019-.168.035-.254.048-.038.006-.076.013-.115.017a3.141,3.141,0,0,1-.378.024H205.82a3.23,3.23,0,0,1-3.24-3.216v2.185a3.23,3.23,0,0,0,3.24,3.216h23.317a3.384,3.384,0,0,0,.378-.024c.039,0,.076-.012.115-.017.086-.013.17-.029.254-.049.041-.009.082-.02.123-.031.082-.023.163-.049.242-.078.035-.013.071-.025.106-.039a3.128,3.128,0,0,0,.323-.149l0,0a3.1,3.1,0,0,0,.3-.187c.031-.021.06-.044.09-.066.066-.05.131-.1.193-.155.031-.027.062-.055.092-.083.06-.056.117-.115.173-.176.025-.028.051-.054.075-.082a3.152,3.152,0,0,0,.212-.275l0-.005h0a3.147,3.147,0,0,0,.171-.283c.017-.032.031-.065.047-.1.033-.068.066-.136.1-.206,0-.011.01-.02.014-.031.015-.038.026-.078.04-.116s.035-.1.049-.145.028-.1.041-.157.026-.1.036-.15a.331.331,0,0,1,.008-.034c.01-.055.015-.111.022-.166.005-.034.011-.068.014-.1C232.368,1108.4,232.374,1108.291,232.374,1108.186Z" fill="#fc821e"/>
      <g id="Group_343" data-name="Group 343">
        <path id="Path_635" data-name="Path 635" d="M232.377,1083.728v22.383a3.082,3.082,0,0,1-1.674,2.707l-.023.014c-.019.01-.038.017-.058.027a3.342,3.342,0,0,1-.475.19,1.4,1.4,0,0,1-.138.047c-.041.014-.082.021-.122.034a2.838,2.838,0,0,1-.543.082,2,2,0,0,1-.2.007H205.821c-.115,0-.224-.007-.332-.014a3.842,3.842,0,0,1-.631-.129,3.125,3.125,0,0,1-2.28-2.965v-22.383a3.175,3.175,0,0,1,3.243-3.1H229.14A3.174,3.174,0,0,1,232.377,1083.728Z" fill="#ffbe2e"/>
      </g>
      <path id="Rectangle_200" data-name="Rectangle 200" d="M4.478,0h0A4.478,4.478,0,0,1,8.955,4.478v10.46a0,0,0,0,1,0,0H0a0,0,0,0,1,0,0V4.478A4.478,4.478,0,0,1,4.478,0Z" transform="translate(206.937 1094.281)" fill="#fd5"/>
      <rect id="Rectangle_201" data-name="Rectangle 201" width="8.536" height="8.536" rx="2.052" transform="translate(219.522 1094.281)" fill="#f23557"/>
      <rect id="Rectangle_202" data-name="Rectangle 202" width="6.861" height="6.861" rx="1.214" transform="translate(227.22 1095.118) rotate(90)" fill="#fd5"/>
      <line id="Line_31" data-name="Line 31" y2="3.124" transform="translate(208.539 1101.75)" fill="none" stroke="#f23557" stroke-linecap="round" stroke-miterlimit="10" stroke-width="0.8"/>
      <path id="Path_636" data-name="Path 636" d="M235.477,1087.2a4.5,4.5,0,0,1-8.976,0,2.3,2.3,0,0,1-.013-.3,2.147,2.147,0,0,1-.021.3,4.494,4.494,0,0,1-8.969,0,2.147,2.147,0,0,1-.021-.3,2.148,2.148,0,0,1-.02.3,4.494,4.494,0,0,1-8.97,0c-.006-.068-.013-.129-.013-.2a.5.5,0,0,1-.007-.1,2.3,2.3,0,0,1-.013.3,4.5,4.5,0,0,1-8.977,0c0-.02.028-.129.068-.3.265-1.058,1.215-4.511,1.215-4.511h.006l.726-2.524a5.2,5.2,0,0,1,4.994-3.746h21.983a5.2,5.2,0,0,1,4.993,3.746l.74,2.558,1.194,4.477Z" fill="#fc821e"/>
      <rect id="Rectangle_203" data-name="Rectangle 203" width="9.01" height="10.781" transform="translate(208.467 1076.122)" fill="#ffbe2e"/>
      <path id="Path_637" data-name="Path 637" d="M209.824,1076.122l-1.357,10.781h-8.922c.265-1.058,1.215-4.511,1.215-4.511h.006l.726-2.524a5.2,5.2,0,0,1,4.994-3.746Z" fill="#fd5"/>
      <rect id="Rectangle_204" data-name="Rectangle 204" width="9.01" height="10.781" transform="translate(217.477 1076.122)" fill="#fd5"/>
      <path id="Path_638" data-name="Path 638" d="M235.4,1086.9h-8.908l-1.357-10.781h3.338a5.2,5.2,0,0,1,4.993,3.746l.74,2.558Z" fill="#ffbe2e"/>
      <path id="Path_639" data-name="Path 639" d="M228.469,1077.48a3.858,3.858,0,0,1,3.69,2.766l.739,2.557" fill="none" stroke="#fff" stroke-linecap="round" stroke-miterlimit="10" stroke-width="0.522"/>
      <line id="Line_32" data-name="Line 32" x2="0.221" y2="0.83" transform="translate(233.248 1084.115)" fill="none" stroke="#fff" stroke-linecap="round" stroke-miterlimit="10" stroke-width="0.522"/>
    </g>
  </g>
</svg>
