<svg xmlns="http://www.w3.org/2000/svg" width="29.379" height="25.195" viewBox="0 0 29.379 25.195">
  <g id="Group_506" data-name="Group 506" transform="translate(-503.347 -96.832)">
    <g id="Group_376" data-name="Group 376">
      <path id="Path_711" data-name="Path 711" d="M530.96,107.368a2.021,2.021,0,0,0-.364-.027H509.87l.452-.211a4.2,4.2,0,0,0,1.188-.84l5.812-5.812a2.176,2.176,0,0,0,.3-2.786,2.1,2.1,0,0,0-2.937-.454,2.195,2.195,0,0,0-.216.181l-10.51,10.51a2.1,2.1,0,0,0,0,2.973v0l10.51,10.51a2.1,2.1,0,0,0,2.973-.005,1.856,1.856,0,0,0,.18-.206,2.175,2.175,0,0,0-.3-2.785l-5.8-5.822a4.2,4.2,0,0,0-1.051-.768l-.63-.283H530.48a2.178,2.178,0,0,0,2.218-1.766A2.1,2.1,0,0,0,530.96,107.368Z" fill="#ffbe2e"/>
    </g>
  </g>
</svg>
