<svg xmlns="http://www.w3.org/2000/svg" width="35.519" height="40.724" viewBox="0 0 35.519 40.724">
  <g id="Group_494" data-name="Group 494" transform="translate(-37.885 -118.186)">
    <g id="Group_355" data-name="Group 355">
      <g id="Group_354" data-name="Group 354">
        <path id="Path_665" data-name="Path 665" d="M59.139,124.4l-7.732,1.94a74.255,74.255,0,0,1,5.619-6.839,2.64,2.64,0,0,1,4.056,1.252c.032.089.06.179.084.273h0A2.786,2.786,0,0,1,59.139,124.4Z" fill="none" stroke="#f23557" stroke-miterlimit="10" stroke-width="1.5"/>
        <path id="Path_666" data-name="Path 666" d="M45.311,127.87l7.732-1.94a74.261,74.261,0,0,0-8.18-3.377,2.64,2.64,0,0,0-2.986,3.018c.014.093.032.186.055.279h0A2.787,2.787,0,0,0,45.311,127.87Z" fill="none" stroke="#f23557" stroke-miterlimit="10" stroke-width="1.5"/>
      </g>
    </g>
    <path id="Path_667" data-name="Path 667" d="M73.311,149.28l-.528-2.108c.025.1.045.2.06.305,0,.034.007.067.011.1.008.067.015.134.019.2,0,.051,0,.1,0,.154s0,.108,0,.161-.008.1-.013.152-.009.1-.017.155c-.011.074-.026.148-.042.221-.007.035-.013.07-.022.1a3.1,3.1,0,0,1-.1.315l0,.005a3.326,3.326,0,0,1-.139.318c-.016.032-.035.064-.052.1-.039.073-.08.144-.125.213-.022.034-.045.068-.068.1-.047.067-.1.132-.15.2-.023.028-.045.058-.07.085a3.115,3.115,0,0,1-.246.255h0a3.114,3.114,0,0,1-.275.223c-.03.022-.062.042-.093.063-.07.047-.141.092-.215.133-.036.021-.074.041-.111.061q-.114.058-.234.108c-.035.015-.07.031-.106.045a3.416,3.416,0,0,1-.359.114l-22.5,5.644a3.213,3.213,0,0,1-3.9-2.319l.529,2.108a3.214,3.214,0,0,0,3.9,2.32l22.505-5.645a3.332,3.332,0,0,0,.359-.114l.106-.044c.08-.034.158-.069.234-.108.037-.02.075-.04.111-.061.074-.042.145-.087.215-.134l.093-.063a3.254,3.254,0,0,0,.275-.222l0,0a3.1,3.1,0,0,0,.246-.254c.025-.028.047-.057.07-.086.052-.063.1-.128.15-.2.023-.033.046-.067.068-.1.044-.069.086-.14.125-.212.017-.032.035-.064.052-.1a3.3,3.3,0,0,0,.138-.317l0-.005h0a3.156,3.156,0,0,0,.1-.314c.009-.035.014-.07.022-.1.016-.074.031-.147.042-.222,0-.011,0-.022.007-.034.005-.04.006-.08.01-.121s.01-.1.013-.151,0-.108,0-.162,0-.1,0-.154c0-.011,0-.023,0-.034,0-.056-.012-.111-.018-.166,0-.034-.006-.068-.011-.1C73.356,149.484,73.337,149.382,73.311,149.28Z" fill="#fc821e"/>
    <g id="Group_356" data-name="Group 356">
      <path id="Path_668" data-name="Path 668" d="M63.516,123.464a3.157,3.157,0,0,1,3.876,2.214l5.416,21.6a3.159,3.159,0,0,1-2.371,3.784l-22.5,5.644a3.164,3.164,0,0,1-3.88-2.216l-5.416-21.6a3.161,3.161,0,0,1,2.375-3.782Z" fill="#ffbe2e"/>
    </g>
    <path id="Path_669" data-name="Path 669" d="M63.115,152.9l-7.862,1.972-4.589-18.3-.26-1.038,7.862-1.972Z" fill="#ffd93b"/>
    <path id="Rectangle_206" data-name="Rectangle 206" d="M.971,0h27.7a.971.971,0,0,1,.971.971V2.693a0,0,0,0,1,0,0H0a0,0,0,0,1,0,0V.971A.971.971,0,0,1,.971,0Z" transform="matrix(0.97, -0.243, 0.243, 0.97, 39.562, 136.579)" fill="#fc821e"/>
    <path id="Rectangle_207" data-name="Rectangle 207" d="M0,0H14.288a.535.535,0,0,1,.535.535v0a.535.535,0,0,1-.535.535H0a0,0,0,0,1,0,0V0A0,0,0,0,1,0,0Z" transform="matrix(0.97, -0.243, 0.243, 0.97, 39.957, 138.153)" fill="#f23557"/>
    <path id="Rectangle_208" data-name="Rectangle 208" d="M3.194,0H26.452a3.194,3.194,0,0,1,3.194,3.194V8.516a0,0,0,0,1,0,0H0a0,0,0,0,1,0,0V3.194A3.194,3.194,0,0,1,3.194,0Z" transform="matrix(0.97, -0.243, 0.243, 0.97, 37.885, 129.892)" fill="#ffbe2e"/>
    <rect id="Rectangle_209" data-name="Rectangle 209" width="11.328" height="8.516" transform="matrix(0.97, -0.243, 0.243, 0.97, 46.769, 127.664)" fill="#fd5"/>
    <line id="Line_37" data-name="Line 37" x1="1.072" y2="0.269" transform="translate(67.882 149.959)" fill="none" stroke="#fff" stroke-linecap="round" stroke-miterlimit="10" stroke-width="0.5"/>
    <path id="Path_670" data-name="Path 670" d="M70.284,143.076l1.14,4.546a1.736,1.736,0,0,1-1.334,2.053" fill="none" stroke="#fff" stroke-linecap="round" stroke-miterlimit="10" stroke-width="0.5"/>
    <circle id="Ellipse_7" data-name="Ellipse 7" cx="3.312" cy="3.312" r="3.312" transform="translate(65.354 127.655)" fill="#f23557"/>
  </g>
</svg>
