<svg xmlns="http://www.w3.org/2000/svg" width="37.817" height="35.838" viewBox="0 0 37.817 35.838">
  <g id="Group_497" data-name="Group 497" transform="translate(-273.989 -1075.564)">
    <path id="Path_640" data-name="Path 640" d="M289.723,1076.665l-14.847,11.711a2.317,2.317,0,0,0,1.434,4.136h33.174a2.317,2.317,0,0,0,1.435-4.136l-14.848-11.711A5.126,5.126,0,0,0,289.723,1076.665Z" fill="#fc821e"/>
    <path id="Path_641" data-name="Path 641" d="M307.556,1092.472l-14.849-11.432-14.848,11.432h-.005v13.657a3.11,3.11,0,0,0,2.273,2.95,2.6,2.6,0,0,0,.628.13c.11.01.22.02.329.02h23.247a1.267,1.267,0,0,0,.2-.01,2.5,2.5,0,0,0,.548-.08c.04-.02.08-.02.12-.04s.09-.03.14-.04a3.81,3.81,0,0,0,.468-.189l.06-.03a.035.035,0,0,0,.02-.01,3.066,3.066,0,0,0,1.674-2.7v-13.657Z" fill="#ffbe2e"/>
    <path id="Path_642" data-name="Path 642" d="M307.558,1108.2v-2.178c0,.105-.006.209-.016.311,0,.034-.01.068-.014.1-.009.067-.018.133-.031.2-.01.051-.023.1-.035.15s-.025.1-.041.157-.032.1-.049.144-.034.1-.054.147c-.029.069-.062.137-.1.2-.016.032-.03.065-.046.1-.053.1-.109.191-.171.282l0,0a3.332,3.332,0,0,1-.212.275c-.024.028-.05.054-.075.081-.055.061-.113.12-.173.176-.03.028-.06.056-.091.082-.062.054-.127.106-.193.155-.029.022-.058.045-.089.066a3.436,3.436,0,0,1-.3.187h0a3.029,3.029,0,0,1-.321.149c-.035.014-.071.026-.106.038-.079.029-.159.055-.241.078l-.123.032c-.083.019-.168.035-.253.048-.038.006-.076.013-.115.017a3.094,3.094,0,0,1-.376.024H281.087a3.22,3.22,0,0,1-3.23-3.206v2.178a3.22,3.22,0,0,0,3.23,3.206h23.244a3.333,3.333,0,0,0,.376-.024c.039,0,.077-.011.115-.017.085-.013.17-.029.253-.048l.123-.032c.082-.023.162-.049.241-.078.035-.012.071-.024.106-.038a3.237,3.237,0,0,0,.321-.149h0a3.436,3.436,0,0,0,.3-.187c.031-.021.06-.044.089-.066.066-.05.131-.1.193-.155l.091-.082c.06-.057.118-.115.173-.176.025-.027.051-.053.075-.081a3.33,3.33,0,0,0,.212-.275l0,0h0c.062-.091.118-.185.171-.282.016-.031.03-.064.046-.1.034-.067.066-.135.1-.2,0-.011.01-.021.015-.032.014-.037.025-.077.039-.115s.035-.1.049-.144.028-.1.041-.157.025-.1.035-.15c0-.012.006-.022.008-.034.01-.054.016-.11.023-.166,0-.033.011-.067.014-.1C307.552,1108.405,307.558,1108.3,307.558,1108.2Z" fill="#fc821e"/>
    <path id="Path_643" data-name="Path 643" d="M292.707,1090.112" fill="none" stroke="#fc2f30" stroke-linecap="round" stroke-linejoin="round" stroke-width="0.872"/>
    <path id="Path_644" data-name="Path 644" d="M292.707,1109.225" fill="none" stroke="#fc2f30" stroke-linecap="round" stroke-linejoin="round" stroke-width="0.872"/>
    <path id="Path_645" data-name="Path 645" d="M287.247,1109.225V1098.8a5.46,5.46,0,0,1,10.921,0v10.427Z" fill="#f23557"/>
    <path id="Rectangle_205" data-name="Rectangle 205" d="M4.463,0h0A4.463,4.463,0,0,1,8.927,4.463V14.891a0,0,0,0,1,0,0H0a0,0,0,0,1,0,0V4.463A4.463,4.463,0,0,1,4.463,0Z" transform="translate(288.244 1094.335)" fill="#fd5"/>
    <line id="Line_33" data-name="Line 33" y2="3.114" transform="translate(289.84 1101.78)" fill="none" stroke="#f23557" stroke-linecap="round" stroke-miterlimit="10" stroke-width="0.8"/>
    <line id="Line_34" data-name="Line 34" x2="9.494" y2="7.309" transform="translate(295.326 1083.023)" fill="none" stroke="#fff" stroke-linecap="round" stroke-miterlimit="10" stroke-width="0.522"/>
  </g>
</svg>
