<svg xmlns="http://www.w3.org/2000/svg" width="41.654" height="35.598" viewBox="0 0 41.654 35.598">
  <g id="Group_495" data-name="Group 495" transform="translate(-285.532 -123.248)">
    <path id="Path_671" data-name="Path 671" d="M327.074,138.222l-9.141,18.127a1.009,1.009,0,0,1-.181.249.89.89,0,0,1-.073.063.984.984,0,0,1-.169.118c-.03.016-.062.031-.094.045a1.044,1.044,0,0,1-.2.058c-.031.006-.061.014-.093.017a1.008,1.008,0,0,1-.309-.014l-14.541-3.09-14.542-3.089a1.009,1.009,0,0,1-.8-.945l-.981-20.277a1.086,1.086,0,0,1,.021-.277l-.412,1.942a1.033,1.033,0,0,0-.021.276l.98,20.277a1.009,1.009,0,0,0,.8.945l14.541,3.09,14.542,3.089a1.006,1.006,0,0,0,.309.014.93.93,0,0,0,.092-.017.964.964,0,0,0,.464-.221c.025-.021.05-.04.073-.063s.022-.016.031-.027a1.038,1.038,0,0,0,.116-.16c.012-.02.023-.041.033-.062l9.141-18.126a1.139,1.139,0,0,0,.048-.109,1.075,1.075,0,0,0,.043-.148l.413-1.941A1.049,1.049,0,0,1,327.074,138.222Z" fill="#fc821e"/>
    <g id="Group_357" data-name="Group 357">
      <path id="Path_672" data-name="Path 672" d="M308.758,123.27a1.009,1.009,0,0,1,.747.655l6.067,17.3a1.011,1.011,0,0,0,.748.655,1.025,1.025,0,0,0,.713-.108l8.629-4.884a1,1,0,0,1,.707-.113,1.016,1.016,0,0,1,.705,1.451l-9.141,18.127a1.009,1.009,0,0,1-1.119.536l-14.541-3.09-14.542-3.089a1.009,1.009,0,0,1-.8-.945l-.981-20.277a1.012,1.012,0,0,1,1.231-1.041,1,1,0,0,1,.6.391l5.9,7.972a1.022,1.022,0,0,0,1.557.094l12.574-13.335A1.011,1.011,0,0,1,308.758,123.27Z" fill="#ffbe2e"/>
    </g>
    <path id="Path_673" data-name="Path 673" d="M304.619,138.28l-4.632,4.75a1.1,1.1,0,0,0-.244,1.148l2.3,6.223a1.1,1.1,0,0,0,1.817.386l4.632-4.75a1.1,1.1,0,0,0,.244-1.148l-2.3-6.222A1.1,1.1,0,0,0,304.619,138.28Z" fill="#fd5"/>
    <path id="Path_674" data-name="Path 674" d="M304.488,140.447l-3.028,3.1a.718.718,0,0,0-.159.75l1.5,4.067a.717.717,0,0,0,1.187.252l3.027-3.1a.717.717,0,0,0,.16-.75l-1.5-4.066A.718.718,0,0,0,304.488,140.447Z" fill="#f23557"/>
    <line id="Line_38" data-name="Line 38" x2="4.514" y2="12.871" transform="translate(311.057 128.35)" fill="none" stroke="#fff" stroke-linecap="round" stroke-miterlimit="10" stroke-width="0.572"/>
    <line id="Line_39" data-name="Line 39" x1="4.122" y2="4.371" transform="translate(300.452 126.997)" fill="none" stroke="#fff" stroke-linecap="round" stroke-miterlimit="10" stroke-width="0.572"/>
  </g>
</svg>
