<svg xmlns="http://www.w3.org/2000/svg" width="31.618" height="35.838" viewBox="0 0 31.618 35.838">
  <g id="Group_499" data-name="Group 499" transform="translate(-126.249 -1075.564)">
    <path id="Path_626" data-name="Path 626" d="M157.867,1107.989v-2.318c0,.111-.007.222-.017.331,0,.036-.01.072-.015.108-.009.071-.019.142-.033.212-.01.054-.024.107-.037.16s-.027.112-.043.166-.035.1-.053.154-.036.1-.057.156c-.031.074-.066.146-.1.218-.017.034-.032.069-.05.1a3.349,3.349,0,0,1-.181.3l0,.006c-.07.1-.146.2-.226.292-.025.03-.053.058-.079.086-.059.065-.12.128-.184.188l-.1.088c-.066.057-.135.111-.205.164-.032.023-.063.048-.1.07a3.333,3.333,0,0,1-.321.2h0a3.208,3.208,0,0,1-.342.159c-.037.015-.075.027-.113.041-.084.031-.169.059-.256.083-.043.012-.087.023-.131.033-.089.021-.179.038-.27.052-.04.006-.08.013-.121.018a3.535,3.535,0,0,1-.4.025H129.687a3.427,3.427,0,0,1-3.438-3.412v2.318a3.428,3.428,0,0,0,3.438,3.413h24.745a3.535,3.535,0,0,0,.4-.025c.041-.005.081-.013.121-.019.091-.014.181-.03.27-.051l.131-.034c.087-.024.172-.052.256-.082.038-.014.076-.026.113-.041a3.643,3.643,0,0,0,.342-.159h0a3.485,3.485,0,0,0,.321-.2l.1-.071c.07-.052.139-.106.205-.164l.1-.088c.064-.06.125-.122.184-.187.026-.029.054-.057.079-.087a3.386,3.386,0,0,0,.226-.292l0-.005h0a3.147,3.147,0,0,0,.181-.3c.018-.033.033-.068.05-.1.035-.072.07-.144.1-.218,0-.012.011-.022.015-.034.016-.04.028-.082.042-.123s.037-.1.053-.153.029-.111.043-.167.027-.105.037-.16c0-.012.007-.023.009-.036.011-.058.016-.117.024-.176,0-.036.011-.071.015-.108C157.86,1108.211,157.867,1108.1,157.867,1107.989Z" fill="#fc821e"/>
    <g id="Group_341" data-name="Group 341">
      <path id="Path_627" data-name="Path 627" d="M157.864,1082.029v23.761a3.258,3.258,0,0,1-1.772,2.865l-.021.021-.064.032c-.159.074-.329.138-.509.2-.043.01-.1.031-.138.042s-.085.021-.138.042a4.536,4.536,0,0,1-.573.085,1.378,1.378,0,0,1-.212.011H129.689c-.127,0-.233-.011-.35-.021a4.5,4.5,0,0,1-.669-.138,3.3,3.3,0,0,1-2.419-3.141v-23.761a.381.381,0,0,1,.01-.106,3.369,3.369,0,0,1,3.428-3.184h24.748a3.366,3.366,0,0,1,3.417,3.184A.382.382,0,0,1,157.864,1082.029Z" fill="#ffbe2e"/>
    </g>
    <circle id="Ellipse_6" data-name="Ellipse 6" cx="8.889" cy="8.889" r="8.889" transform="translate(133.169 1086.615)" fill="#fd5"/>
    <path id="Path_628" data-name="Path 628" d="M150.833,1096.928a8.809,8.809,0,0,1-.338,1.383" fill="none" stroke="#fff" stroke-linecap="round" stroke-miterlimit="10" stroke-width="0.572"/>
    <path id="Path_629" data-name="Path 629" d="M148.151,1089.032a8.865,8.865,0,0,1,2.8,6.472" fill="none" stroke="#fff" stroke-linecap="round" stroke-miterlimit="10" stroke-width="0.572"/>
    <path id="Path_630" data-name="Path 630" d="M138.022,1095.949l2.394,2.36,5.678-5.609" fill="none" stroke="#fc7717" stroke-linecap="round" stroke-linejoin="round" stroke-width="2.121"/>
    <path id="Path_631" data-name="Path 631" d="M157.854,1081.923H126.261a3.369,3.369,0,0,1,3.428-3.184h24.748A3.366,3.366,0,0,1,157.854,1081.923Z" fill="#f23557"/>
    <path id="Rectangle_199" data-name="Rectangle 199" d="M3.2,0H14.075a3.2,3.2,0,0,1,3.2,3.2V6.36a0,0,0,0,1,0,0H0a0,0,0,0,1,0,0V3.2A3.2,3.2,0,0,1,3.2,0Z" transform="translate(133.42 1075.564)" fill="#fc821e"/>
  </g>
</svg>
