<svg xmlns="http://www.w3.org/2000/svg" width="47.871" height="47.494" viewBox="0 0 47.871 47.494">
  <g id="Group_521" data-name="Group 521" transform="translate(-1001.62 -568.974)">
    <path id="Path_885" data-name="Path 885" d="M1025.56,568.974c2.889,0,4.671,5.459,7.2,6.509a4.418,4.418,0,0,0,1.674.27,20.076,20.076,0,0,0,2.817-.288,20.676,20.676,0,0,1,2.835-.3,3.3,3.3,0,0,1,2.394.754c1.971,1.957-.63,7.066.459,9.652,1.044,2.505,6.552,4.264,6.552,7.146s-5.508,4.642-6.552,7.138c-1.089,2.594,1.512,7.7-.459,9.651a3.3,3.3,0,0,1-2.412.763,18.866,18.866,0,0,1-2.817-.3,20.191,20.191,0,0,0-2.826-.287,4.372,4.372,0,0,0-1.665.269c-2.529,1.033-4.311,6.509-7.2,6.509-2.907,0-4.68-5.476-7.2-6.509a4.033,4.033,0,0,0-1.188-.26c-.171-.009-.315-.009-.459-.009a20.436,20.436,0,0,0-2.844.287,19.1,19.1,0,0,1-2.826.3,3.3,3.3,0,0,1-2.412-.763c-1.962-1.948.63-7.057-.459-9.651-1.044-2.5-6.552-4.265-6.552-7.138s5.508-4.641,6.552-7.146c1.089-2.586-1.5-7.7.459-9.652a3.313,3.313,0,0,1,2.4-.754,20.675,20.675,0,0,1,2.835.3,20.077,20.077,0,0,0,2.817.288c.153,0,.306,0,.45-.009a4.316,4.316,0,0,0,1.224-.261C1020.88,574.433,1022.653,568.974,1025.56,568.974Z" fill="#d0c9ea"/>
  </g>
</svg>
