<svg xmlns="http://www.w3.org/2000/svg" width="360.354" height="113.845" viewBox="0 0 360.354 113.845">
  <g id="Group_491" data-name="Group 491" transform="translate(0.177 -0.355)">
    <path id="Path_646" data-name="Path 646" d="M360.177.355H-.177V86.463H47.249A52.7,52.7,0,0,1,82.042,99.581h0A52.7,52.7,0,0,0,116.835,112.7h126.33a52.7,52.7,0,0,0,34.793-13.118h0a52.7,52.7,0,0,1,34.793-13.118h47.426Z" fill="#00a0fd"/>
    <path id="Path_647" data-name="Path 647" d="M-.177,86.463H47.249A52.7,52.7,0,0,1,82.042,99.581h0A52.7,52.7,0,0,0,116.835,112.7h126.33a52.7,52.7,0,0,0,34.793-13.118h0a52.7,52.7,0,0,1,34.793-13.118h47.426" fill="none" stroke="#5ddfff" stroke-miterlimit="10" stroke-width="3"/>
  </g>
</svg>
