<svg xmlns="http://www.w3.org/2000/svg" width="35.962" height="32.328" viewBox="0 0 35.962 32.328">
  <g id="Group_507" data-name="Group 507" transform="translate(-763.073 -86.625)">
    <path id="Path_687" data-name="Path 687" d="M796.233,91.295a9.687,9.687,0,0,0-15.948,10.231l-15.469,12.191a9.341,9.341,0,0,0-1.561,1.52l1.067,2.591.006.009.008.008.037.047.005,0a2.929,2.929,0,0,0,4.07.437l1.487-1.172.069.087a3.044,3.044,0,1,0,4.782-3.769l-.068-.087.086-.068a1.909,1.909,0,0,0,2.843-2.241l6.27-4.941a9.684,9.684,0,0,0,14.558-11.27c-.319-.894-.771-2.2-.771-2.2l-1.752-1.016.309-.428Zm-4.513,9.821a3.823,3.823,0,1,1,.636-5.369A3.829,3.829,0,0,1,791.72,101.116Z" fill="#fc821e"/>
    <path id="Path_688" data-name="Path 688" d="M782.724,88.7a9.7,9.7,0,0,0-3.069,11.025L764.19,111.915a2.934,2.934,0,0,0,3.632,4.608l1.484-1.169.065.083a3.045,3.045,0,1,0,4.784-3.77l-.066-.083.083-.066a1.913,1.913,0,0,0,2.848-2.244l6.267-4.939a9.692,9.692,0,1,0-.563-15.634Zm8.361,10.608a3.82,3.82,0,1,1,.644-5.363A3.823,3.823,0,0,1,791.085,99.309Z" fill="#ffbe2e"/>
    <path id="Path_689" data-name="Path 689" d="M783.979,90.387a7.587,7.587,0,1,0,10.662,1.264A7.587,7.587,0,0,0,783.979,90.387Zm7.106,8.922a3.82,3.82,0,1,1,.644-5.363A3.823,3.823,0,0,1,791.085,99.309Z" fill="#fd5" opacity="0.61"/>
    <path id="Path_690" data-name="Path 690" d="M794.641,91.651a7.6,7.6,0,0,0-10.662-1.264m10.662,1.264.726,1.107.462,1.043a7.526,7.526,0,0,0-.462-1.043" fill="none" stroke="#fff" stroke-linecap="round" stroke-miterlimit="10" stroke-width="0.572"/>
    <line id="Line_40" data-name="Line 40" x1="8.921" y2="7.031" transform="translate(765.27 106.389)" fill="none" stroke="#fd5" stroke-linecap="round" stroke-miterlimit="10" stroke-width="1.173"/>
    <path id="Path_691" data-name="Path 691" d="M769.73,109.9" fill="none" stroke="#fff" stroke-linecap="round" stroke-miterlimit="10" stroke-width="0.572"/>
  </g>
</svg>
