<svg xmlns="http://www.w3.org/2000/svg" width="12.848" height="14.94" viewBox="0 0 12.848 14.94">
  <g id="Group_504" data-name="Group 504" transform="translate(-104.897 -184.063)">
    <path id="Path_679" data-name="Path 679" d="M588.842,190.475a6.549,6.549,0,0,1-.063.857c-.014.1-.028.2-.046.3-.014.077-.028.154-.045.23-.028.126-.061.251-.1.374-.019.067-.036.135-.057.2-.033.1-.072.2-.108.294s-.075.2-.117.3-.088.184-.133.275-.093.193-.145.286c-.033.059-.07.114-.1.172-.1.165-.2.324-.315.479-.045.061-.09.122-.136.181a6.292,6.292,0,0,1-.414.479c-.027.028-.051.059-.079.087a6.644,6.644,0,0,1-.553.494c-.052.042-.108.08-.162.121-.15.112-.3.219-.466.318-.064.04-.127.08-.192.117a6.42,6.42,0,0,1-.608.309c-.023.01-.044.022-.067.031a6.236,6.236,0,0,1-.715.251c-.069.021-.14.037-.21.054q-.281.072-.569.118c-.075.012-.15.025-.227.034a6.39,6.39,0,0,1-7.22-6.365v2.109a6.4,6.4,0,0,0,7.22,6.366c.077-.01.151-.023.227-.035.193-.031.382-.07.569-.117.07-.018.141-.034.21-.054a6.358,6.358,0,0,0,.715-.251l.067-.032a6.417,6.417,0,0,0,.608-.309c.065-.037.128-.077.192-.116.161-.1.316-.206.467-.32.054-.04.109-.078.161-.12a6.3,6.3,0,0,0,.553-.494c.028-.028.052-.058.079-.087a6.274,6.274,0,0,0,.414-.478c.047-.06.091-.121.136-.182.112-.154.217-.314.315-.478.024-.039.053-.074.075-.114.011-.019.02-.04.03-.059.052-.093.1-.19.145-.285s.092-.182.133-.275.079-.2.117-.3c.029-.077.063-.152.089-.231.007-.021.012-.043.019-.064.021-.066.038-.134.057-.2.035-.123.068-.247.1-.374.017-.076.031-.153.045-.23s.028-.129.038-.2c.005-.034,0-.07.008-.1a6.536,6.536,0,0,0,.063-.857Z" transform="translate(-471.097)" fill="#288465"/>
    <g id="Group_359" data-name="Group 359" transform="translate(-471.097)">
      <path id="Path_680" data-name="Path 680" d="M582.422,184.063a6.416,6.416,0,1,1-6.428,6.412A6.414,6.414,0,0,1,582.422,184.063Z" fill="#97db42"/>
    </g>
  </g>
</svg>
