<svg xmlns="http://www.w3.org/2000/svg" xmlns:xlink="http://www.w3.org/1999/xlink" width="36.426" height="39.014" viewBox="0 0 36.426 39.014">
  <defs>
    <clipPath id="clip-path">
      <path id="Path_596" data-name="Path 596" d="M53.622,1085.44v2.988c0-1.321-.441-2.943-.441-4.259v-2.988C53.181,1082.5,53.622,1084.119,53.622,1085.44Z" fill="#fc821e"/>
    </clipPath>
    <clipPath id="clip-path-2">
      <path id="Path_599" data-name="Path 599" d="M80.1,1081.18v2.988c0,1.318-.444,2.945-.444,4.268v-2.988C79.651,1084.125,80.1,1082.5,80.1,1081.18Z" fill="#fc821e"/>
    </clipPath>
    <clipPath id="clip-path-3">
      <path id="Path_608" data-name="Path 608" d="M79.651,1101.874v-2.988a3.326,3.326,0,0,1,.209-1.273c.8-1.9,4.991-3.25,4.991-5.445v2.988c0,2.195-4.193,3.541-4.991,5.444A3.336,3.336,0,0,0,79.651,1101.874Z" fill="#fc821e"/>
    </clipPath>
    <clipPath id="clip-path-4">
      <path id="Path_611" data-name="Path 611" d="M53.622,1098.894v2.988a3.354,3.354,0,0,0-.211-1.282c-.793-1.9-4.986-3.249-4.986-5.444v-2.988c0,2.2,4.193,3.541,4.986,5.445A3.346,3.346,0,0,1,53.622,1098.894Z" fill="#fc821e"/>
    </clipPath>
    <clipPath id="clip-path-5">
      <path id="Path_614" data-name="Path 614" d="M53.181,1106.141v-2.987a2.466,2.466,0,0,0,.58,1.821,2.491,2.491,0,0,0,1.834.58,15.359,15.359,0,0,0,2.148-.221,14.766,14.766,0,0,1,2.162-.225c.112,0,.221,0,.353.01v2.987c-.132-.006-.241-.009-.353-.009a14.894,14.894,0,0,0-2.162.224,15.22,15.22,0,0,1-2.148.222,2.5,2.5,0,0,1-1.834-.58A2.469,2.469,0,0,1,53.181,1106.141Z" fill="#fc821e"/>
    </clipPath>
    <clipPath id="clip-path-6">
      <path id="Path_620" data-name="Path 620" d="M80.1,1103.155v2.987a2.471,2.471,0,0,1-.58,1.821,2.509,2.509,0,0,1-1.837.58,15.039,15.039,0,0,1-2.14-.222,15.218,15.218,0,0,0-2.153-.221,3.337,3.337,0,0,0-1.268.206c-1.924.788-3.277,4.963-5.479,4.963s-3.56-4.175-5.474-4.963a2.933,2.933,0,0,0-.906-.2v-2.987a2.936,2.936,0,0,1,.906.2c1.914.788,3.267,4.963,5.474,4.963s3.555-4.175,5.479-4.963a3.356,3.356,0,0,1,1.268-.206,15.242,15.242,0,0,1,2.153.222,15.176,15.176,0,0,0,2.14.221,2.509,2.509,0,0,0,1.837-.58A2.468,2.468,0,0,0,80.1,1103.155Z" fill="#fc821e"/>
    </clipPath>
  </defs>
  <g id="Group_500" data-name="Group 500" transform="translate(-48.425 -1074.255)">
    <g id="Group_337" data-name="Group 337">
      <g id="Group_321" data-name="Group 321">
        <path id="Path_594" data-name="Path 594" d="M53.622,1085.44v2.988c0-1.321-.441-2.943-.441-4.259v-2.988C53.181,1082.5,53.622,1084.119,53.622,1085.44Z" fill="#fc821e"/>
        <g id="Group_320" data-name="Group 320" clip-path="url(#clip-path)">
          <g id="Group_319" data-name="Group 319" style="isolation: isolate">
            <path id="Path_595" data-name="Path 595" d="M53.622,1085.44v2.988c0-1.321-.441-2.943-.441-4.259v-2.988c0,1.316.441,2.938.441,4.259" fill="#fc821e"/>
          </g>
        </g>
      </g>
      <g id="Group_324" data-name="Group 324">
        <path id="Path_597" data-name="Path 597" d="M80.1,1081.18v2.988c0,1.318-.444,2.945-.444,4.268v-2.988C79.651,1084.125,80.1,1082.5,80.1,1081.18Z" fill="#fc821e"/>
        <g id="Group_323" data-name="Group 323" clip-path="url(#clip-path-2)">
          <g id="Group_322" data-name="Group 322" style="isolation: isolate">
            <path id="Path_598" data-name="Path 598" d="M80.1,1081.18v2.988c0,1.318-.444,2.945-.444,4.268v-2.988c0-1.323.444-2.949.444-4.268" fill="#fc821e"/>
          </g>
        </g>
      </g>
      <g id="Group_327" data-name="Group 327">
        <path id="Path_600" data-name="Path 600" d="M79.651,1101.874v-2.988a3.326,3.326,0,0,1,.209-1.273c.8-1.9,4.991-3.25,4.991-5.445v2.988c0,2.195-4.193,3.541-4.991,5.444A3.336,3.336,0,0,0,79.651,1101.874Z" fill="#fc821e"/>
        <g id="Group_326" data-name="Group 326" clip-path="url(#clip-path-3)">
          <g id="Group_325" data-name="Group 325" style="isolation: isolate">
            <path id="Path_601" data-name="Path 601" d="M84.851,1092.168v2.988a1.706,1.706,0,0,1-.026.3v-2.987a1.715,1.715,0,0,0,.026-.3" fill="#fc821e"/>
            <path id="Path_602" data-name="Path 602" d="M84.825,1092.465v2.987a1.909,1.909,0,0,1-.1.348v-2.987a1.953,1.953,0,0,0,.1-.348" fill="#fc821e"/>
            <path id="Path_603" data-name="Path 603" d="M84.729,1092.813v2.987a2.43,2.43,0,0,1-.245.471v-2.987a2.463,2.463,0,0,0,.245-.471" fill="#fc821e"/>
            <path id="Path_604" data-name="Path 604" d="M84.484,1093.284v2.987c-.957,1.46-3.521,2.581-4.43,3.968v-2.988c.909-1.387,3.473-2.507,4.43-3.967" fill="#fc821e"/>
            <path id="Path_605" data-name="Path 605" d="M80.054,1097.251v2.988a2.266,2.266,0,0,0-.194.361c-.01.023-.019.047-.028.071v-2.988c.009-.024.018-.047.028-.07a2.27,2.27,0,0,1,.194-.362" fill="#fc821e"/>
            <path id="Path_606" data-name="Path 606" d="M79.832,1097.683v2.988a2.647,2.647,0,0,0-.126.479v-2.988a2.649,2.649,0,0,1,.126-.479" fill="#fc821e"/>
            <path id="Path_607" data-name="Path 607" d="M79.706,1098.162v2.988a4.3,4.3,0,0,0-.055.724v-2.988a4.3,4.3,0,0,1,.055-.724" fill="#fc821e"/>
          </g>
        </g>
      </g>
      <g id="Group_330" data-name="Group 330">
        <path id="Path_609" data-name="Path 609" d="M53.622,1098.894v2.988a3.354,3.354,0,0,0-.211-1.282c-.793-1.9-4.986-3.249-4.986-5.444v-2.988c0,2.2,4.193,3.541,4.986,5.445A3.346,3.346,0,0,1,53.622,1098.894Z" fill="#fc821e"/>
        <g id="Group_329" data-name="Group 329" clip-path="url(#clip-path-4)">
          <g id="Group_328" data-name="Group 328" style="isolation: isolate">
            <path id="Path_610" data-name="Path 610" d="M53.622,1098.894v2.988a3.354,3.354,0,0,0-.211-1.282c-.793-1.9-4.986-3.249-4.986-5.444v-2.988c0,2.2,4.193,3.541,4.986,5.445a3.346,3.346,0,0,1,.211,1.281" fill="#fc821e"/>
          </g>
        </g>
      </g>
      <g id="Group_333" data-name="Group 333">
        <path id="Path_612" data-name="Path 612" d="M53.181,1106.141v-2.987a2.466,2.466,0,0,0,.58,1.821,2.491,2.491,0,0,0,1.834.58,15.359,15.359,0,0,0,2.148-.221,14.766,14.766,0,0,1,2.162-.225c.112,0,.221,0,.353.01v2.987c-.132-.006-.241-.009-.353-.009a14.894,14.894,0,0,0-2.162.224,15.22,15.22,0,0,1-2.148.222,2.5,2.5,0,0,1-1.834-.58A2.469,2.469,0,0,1,53.181,1106.141Z" fill="#fc821e"/>
        <g id="Group_332" data-name="Group 332" clip-path="url(#clip-path-5)">
          <g id="Group_331" data-name="Group 331" style="isolation: isolate">
            <path id="Path_613" data-name="Path 613" d="M60.258,1105.119v2.987c-.132-.006-.241-.009-.353-.009a14.894,14.894,0,0,0-2.162.224,15.22,15.22,0,0,1-2.148.222,2.5,2.5,0,0,1-1.834-.58,2.469,2.469,0,0,1-.58-1.822v-2.987a2.466,2.466,0,0,0,.58,1.821,2.491,2.491,0,0,0,1.834.58,15.359,15.359,0,0,0,2.148-.221,14.766,14.766,0,0,1,2.162-.225c.112,0,.221,0,.353.01" fill="#fc821e"/>
          </g>
        </g>
      </g>
      <g id="Group_336" data-name="Group 336">
        <path id="Path_615" data-name="Path 615" d="M80.1,1103.155v2.987a2.471,2.471,0,0,1-.58,1.821,2.509,2.509,0,0,1-1.837.58,15.039,15.039,0,0,1-2.14-.222,15.218,15.218,0,0,0-2.153-.221,3.337,3.337,0,0,0-1.268.206c-1.924.788-3.277,4.963-5.479,4.963s-3.56-4.175-5.474-4.963a2.933,2.933,0,0,0-.906-.2v-2.987a2.936,2.936,0,0,1,.906.2c1.914.788,3.267,4.963,5.474,4.963s3.555-4.175,5.479-4.963a3.356,3.356,0,0,1,1.268-.206,15.242,15.242,0,0,1,2.153.222,15.176,15.176,0,0,0,2.14.221,2.509,2.509,0,0,0,1.837-.58A2.468,2.468,0,0,0,80.1,1103.155Z" fill="#fc821e"/>
        <g id="Group_335" data-name="Group 335" clip-path="url(#clip-path-6)">
          <g id="Group_334" data-name="Group 334" style="isolation: isolate">
            <path id="Path_616" data-name="Path 616" d="M80.1,1103.155v2.987a4.351,4.351,0,0,1-.055.719v-2.988a4.333,4.333,0,0,0,.055-.718" fill="#fc821e"/>
            <path id="Path_617" data-name="Path 617" d="M80.04,1103.873v2.988a2.657,2.657,0,0,1-.125.47v-2.988a2.633,2.633,0,0,0,.125-.47" fill="#fc821e"/>
            <path id="Path_618" data-name="Path 618" d="M79.915,1104.343v2.988a1.884,1.884,0,0,1-.181.362v-2.987a1.894,1.894,0,0,0,.181-.363" fill="#fc821e"/>
            <path id="Path_619" data-name="Path 619" d="M79.734,1104.706v2.987a1.607,1.607,0,0,1-.219.27,2.509,2.509,0,0,1-1.837.58,15.039,15.039,0,0,1-2.14-.222,15.218,15.218,0,0,0-2.153-.221,3.337,3.337,0,0,0-1.268.206c-1.924.788-3.277,4.963-5.479,4.963s-3.56-4.175-5.474-4.963a2.933,2.933,0,0,0-.906-.2v-2.987a2.936,2.936,0,0,1,.906.2c1.914.788,3.267,4.963,5.474,4.963s3.555-4.175,5.479-4.963a3.356,3.356,0,0,1,1.268-.206,15.242,15.242,0,0,1,2.153.222,15.176,15.176,0,0,0,2.14.221,2.509,2.509,0,0,0,1.837-.58,1.566,1.566,0,0,0,.219-.269" fill="#fc821e"/>
          </g>
        </g>
      </g>
    </g>
    <g id="Group_338" data-name="Group 338">
      <path id="Path_621" data-name="Path 621" d="M66.638,1074.255c2.2,0,3.555,4.165,5.479,4.963a3.325,3.325,0,0,0,1.278.211,15.274,15.274,0,0,0,2.144-.221,15.27,15.27,0,0,1,2.155-.224,2.5,2.5,0,0,1,1.821.572c1.5,1.494-.478,5.388.345,7.363.8,1.908,4.991,3.254,4.991,5.449s-4.193,3.541-4.991,5.444c-.823,1.98,1.153,5.874-.345,7.363a2.509,2.509,0,0,1-1.837.579,15.017,15.017,0,0,1-2.139-.221,15.418,15.418,0,0,0-2.153-.222,3.338,3.338,0,0,0-1.269.207c-1.924.788-3.277,4.963-5.479,4.963s-3.56-4.175-5.474-4.963a2.93,2.93,0,0,0-.906-.2c-.132-.006-.241-.009-.352-.009a14.908,14.908,0,0,0-2.163.224,15.2,15.2,0,0,1-2.148.221,2.5,2.5,0,0,1-1.834-.579c-1.5-1.489.478-5.383-.35-7.363-.792-1.9-4.985-3.249-4.985-5.444s4.193-3.541,4.985-5.449c.828-1.975-1.148-5.869.35-7.363a2.5,2.5,0,0,1,1.826-.574,14.981,14.981,0,0,1,2.161.226,15.247,15.247,0,0,0,2.139.221c.118,0,.234,0,.346-.011a3.073,3.073,0,0,0,.931-.2C63.078,1078.42,64.431,1074.255,66.638,1074.255Z" fill="#ffbe2e"/>
    </g>
    <circle id="Ellipse_5" data-name="Ellipse 5" cx="10.312" cy="10.312" r="10.312" transform="translate(56.326 1082.056)" fill="#fd5"/>
    <path id="Path_622" data-name="Path 622" d="M76.516,1095.338a10.28,10.28,0,0,1-1.425,2.939" fill="none" stroke="#fff" stroke-linecap="round" stroke-miterlimit="10" stroke-width="0.572"/>
    <path id="Path_623" data-name="Path 623" d="M76.951,1092.368a10.287,10.287,0,0,1-.435,2.97" fill="#ffbe2e"/>
    <path id="Path_624" data-name="Path 624" d="M74.5,1085.689a10.27,10.27,0,0,1,2.455,6.679" fill="none" stroke="#fff" stroke-linecap="round" stroke-miterlimit="10" stroke-width="0.572"/>
    <g id="Group_339" data-name="Group 339">
      <path id="Path_625" data-name="Path 625" d="M66.639,1087.208a.672.672,0,0,1,.609.377L68.4,1089.9a.676.676,0,0,0,.51.369l2.573.371a.674.674,0,0,1,.377,1.151l-1.862,1.8a.675.675,0,0,0-.194.6l.438,2.546a.678.678,0,0,1-.671.791.668.668,0,0,1-.315-.079l-2.3-1.2a.687.687,0,0,0-.632,0l-2.3,1.2a.672.672,0,0,1-.316.079.678.678,0,0,1-.671-.791l.439-2.546a.673.673,0,0,0-.195-.6l-1.862-1.8a.674.674,0,0,1,.377-1.151l2.573-.371a.683.683,0,0,0,.512-.369l1.15-2.315A.673.673,0,0,1,66.639,1087.208Z" fill="#fc821e"/>
    </g>
  </g>
</svg>
