<svg xmlns="http://www.w3.org/2000/svg" width="186.098" height="61.43" viewBox="0 0 186.098 61.43">
  <g id="Group_545" data-name="Group 545" transform="translate(-5501.126 -252.925)">
    <g id="Group_44" data-name="Group 44" transform="translate(286.119 18)">
      <path id="Path_49" data-name="Path 49" d="M5261.61,271.248l-.7.666a2.96,2.96,0,0,0-.945-.3l-11.27-1.622a2.957,2.957,0,0,1-2.224-1.622l-5.049-10.131a2.972,2.972,0,0,0-5.329,0l-5.039,10.131a2.972,2.972,0,0,1-2.234,1.622l-11.27,1.622a2.959,2.959,0,0,0-.946.3l-.7-.666a2.958,2.958,0,0,1,1.644-5.05l11.27-1.622a2.959,2.959,0,0,0,2.234-1.611l5.039-10.131a2.972,2.972,0,0,1,5.329,0l5.049,10.131a2.944,2.944,0,0,0,2.224,1.611l11.27,1.622A2.955,2.955,0,0,1,5261.61,271.248Z" fill="#ffbe2e"/>
    </g>
    <g id="Group_47" data-name="Group 47" transform="translate(286.119 18)">
      <path id="Path_52" data-name="Path 52" d="M5254.53,292.895a2.869,2.869,0,0,1-.548,2.257,2.964,2.964,0,0,1-3.77.859l-10.067-5.264a3,3,0,0,0-1.386-.344,3.036,3.036,0,0,0-1.386.344l-10.066,5.264a2.965,2.965,0,0,1-3.771-.859,2.875,2.875,0,0,1-.548-2.257l1.375-8,.548-3.148a2.951,2.951,0,0,0-.848-2.611l-7.457-7.219a2.959,2.959,0,0,1,.946-.3l11.27-1.622a2.972,2.972,0,0,0,2.234-1.622l5.039-10.131a2.972,2.972,0,0,1,5.329,0l5.049,10.131a2.957,2.957,0,0,0,2.224,1.622l11.27,1.622a2.96,2.96,0,0,1,.945.3l-7.445,7.219a2.959,2.959,0,0,0-.86,2.611l.548,3.158Z" fill="#ffbe2e"/>
    </g>
    <g id="Group_488" data-name="Group 488" transform="translate(5413.871 18)">
      <g id="Group_45" data-name="Group 45" transform="translate(-5127.752)">
        <path id="Path_50" data-name="Path 50" d="M5400.2,271.248l-.7.666a2.942,2.942,0,0,0-.945-.3l-11.27-1.622a2.959,2.959,0,0,1-2.224-1.622l-5.049-10.131a2.972,2.972,0,0,0-5.329,0l-5.038,10.131a2.975,2.975,0,0,1-2.235,1.622l-11.259,1.622a3.016,3.016,0,0,0-.956.3l-.7-.666a2.957,2.957,0,0,1,1.654-5.05l11.259-1.622a2.962,2.962,0,0,0,2.235-1.611l5.038-10.131a2.972,2.972,0,0,1,5.329,0l5.049,10.131a2.946,2.946,0,0,0,2.224,1.611l11.27,1.622A2.955,2.955,0,0,1,5400.2,271.248Z" fill="#1c5af4"/>
      </g>
      <g id="Group_48" data-name="Group 48" transform="translate(-5127.752)">
        <path id="Path_53" data-name="Path 53" d="M5393.119,292.895a2.873,2.873,0,0,1-.548,2.257,2.965,2.965,0,0,1-3.771.859l-10.066-5.264a3,3,0,0,0-1.386-.344,2.954,2.954,0,0,0-1.375.344l-10.077,5.264a2.966,2.966,0,0,1-3.772-.859,2.868,2.868,0,0,1-.547-2.257l1.375-8,.548-3.148a2.95,2.95,0,0,0-.849-2.611l-7.456-7.219a3.016,3.016,0,0,1,.956-.3l11.259-1.622a2.975,2.975,0,0,0,2.235-1.622l5.038-10.131a2.972,2.972,0,0,1,5.329,0l5.049,10.131a2.959,2.959,0,0,0,2.224,1.622l11.27,1.622a2.942,2.942,0,0,1,.945.3l-7.445,7.219a2.958,2.958,0,0,0-.859,2.611l.548,3.158Z" fill="#1b86f6"/>
      </g>
    </g>
    <g id="Group_489" data-name="Group 489" transform="translate(5413.871 18)">
      <g id="Group_46" data-name="Group 46" transform="translate(-5127.752)">
        <path id="Path_51" data-name="Path 51" d="M5339.306,262.019a3.958,3.958,0,0,0-2.417-1.267l-15.31-2.2a4,4,0,0,1-3.04-2.192l-6.854-13.783a4.059,4.059,0,0,0-7.263,0l-6.832,13.783a4.052,4.052,0,0,1-3.052,2.192l-15.32,2.2a3.959,3.959,0,0,0-2.417,1.267,4.011,4.011,0,0,1,2.417-6.671l15.32-2.2a4.064,4.064,0,0,0,3.052-2.2l6.832-13.773a4.06,4.06,0,0,1,7.263,0l6.854,13.773a4.009,4.009,0,0,0,3.04,2.2l15.31,2.2A4.011,4.011,0,0,1,5339.306,262.019Z" fill="#1c5af4"/>
      </g>
      <g id="Group_49" data-name="Group 49" transform="translate(-5127.752)">
        <path id="Path_54" data-name="Path 54" d="M5328.047,272.934a4.015,4.015,0,0,0-1.15,3.556l.473,2.729,2.138,12.43a3.913,3.913,0,0,1-.473,2.665,4.119,4.119,0,0,1-3.524,2.041,4.039,4.039,0,0,1-1.88-.473l-13.7-7.155a4.059,4.059,0,0,0-3.761,0l-13.7,7.155a4.037,4.037,0,0,1-1.88.473,4.1,4.1,0,0,1-3.513-2.031,3.943,3.943,0,0,1-.473-2.675l2.138-12.408.472-2.751a3.994,3.994,0,0,0-1.16-3.556L5276.973,262.2c-.064-.065-.118-.118-.172-.183a3.959,3.959,0,0,1,2.417-1.267l15.32-2.2a4.052,4.052,0,0,0,3.052-2.192l6.832-13.783a4.059,4.059,0,0,1,7.263,0l6.854,13.783a4,4,0,0,0,3.04,2.192l15.31,2.2a3.958,3.958,0,0,1,2.417,1.267c-.054.065-.108.118-.172.183Z" fill="#1b86f6"/>
      </g>
    </g>
  </g>
</svg>
