<svg xmlns="http://www.w3.org/2000/svg" width="296.833" height="19.985" viewBox="0 0 296.833 19.985">
  <path id="Path_939" data-name="Path 939" d="M1270.769,627.795v-5.1a12.6,12.6,0,0,1-.088,1.446c-.018.157-.052.31-.076.465-.048.313-.1.625-.17.931-.054.236-.127.466-.2.7s-.138.488-.223.726-.179.448-.273.67-.19.459-.3.683c-.157.32-.336.63-.518.939-.089.151-.167.306-.262.454a14.581,14.581,0,0,1-.926,1.29l-.015.021,0,.005c-.285.352-.594.689-.913,1.019-.068.071-.136.142-.206.211q-.478.477-1,.921c-.059.049-.121.1-.181.145q-.487.4-1.011.768c-.063.044-.125.091-.189.135-.385.263-.784.51-1.2.746-.09.052-.182.1-.273.152-.426.235-.861.461-1.312.666l0,0c-.45.2-.915.386-1.386.557-.1.037-.2.074-.3.109-.467.161-.942.308-1.427.437-.081.021-.164.039-.246.059-.448.113-.9.21-1.366.294-.084.015-.167.033-.252.047-.505.084-1.02.148-1.54.2-.114.011-.229.019-.344.027-.537.041-1.079.069-1.629.069H991.765c-9.845,0-17.829-6.666-17.829-14.887v5.1c0,8.221,7.984,14.887,17.829,14.887H1252.94c.55,0,1.091-.028,1.629-.069.115-.008.23-.016.344-.027.52-.048,1.035-.112,1.54-.2.085-.015.168-.032.252-.048q.693-.125,1.366-.293c.082-.02.165-.038.246-.059.485-.129.96-.276,1.427-.437.1-.035.2-.072.3-.109.472-.172.936-.354,1.386-.557l0,0c.451-.205.886-.431,1.312-.666.092-.05.183-.1.273-.152.411-.236.81-.483,1.2-.746.064-.044.125-.091.189-.135q.523-.369,1.012-.768c.06-.049.121-.1.18-.145q.525-.442,1-.921c.07-.07.137-.14.206-.211.319-.33.628-.668.914-1.021l0,0h0l.017-.024a14.473,14.473,0,0,0,.923-1.286c.095-.148.173-.3.263-.455.182-.308.36-.618.517-.938.025-.051.058-.1.082-.15.082-.174.143-.356.217-.534.094-.222.191-.442.273-.669s.152-.482.223-.726.14-.461.2-.7c.013-.054.033-.105.045-.159.055-.253.086-.514.125-.772.024-.155.058-.308.076-.465A12.6,12.6,0,0,0,1270.769,627.795Z" transform="translate(-973.936 -622.697)" fill="#6e4fc1"/>
</svg>
