<svg xmlns="http://www.w3.org/2000/svg" width="296.833" height="19.984" viewBox="0 0 296.833 19.984">
  <path id="Path_937" data-name="Path 937" d="M1270.769,622.9v-5.1a12.6,12.6,0,0,1-.088,1.446c-.018.157-.052.309-.076.465-.048.312-.1.624-.17.931-.054.235-.127.465-.2.7s-.138.488-.223.726-.179.447-.273.669-.19.459-.3.683c-.157.32-.336.63-.518.939-.089.151-.167.307-.262.455a14.576,14.576,0,0,1-.926,1.289l-.015.022,0,0c-.285.352-.594.69-.913,1.02-.068.07-.136.141-.206.21q-.478.477-1,.921c-.059.05-.121.1-.181.146q-.487.4-1.011.767c-.063.045-.125.091-.189.135q-.578.395-1.2.746c-.09.052-.182.1-.273.153-.426.235-.861.46-1.312.665l0,0c-.45.2-.915.386-1.386.557-.1.037-.2.075-.3.11-.467.161-.942.308-1.427.436-.081.021-.164.039-.246.06q-.672.168-1.366.293c-.084.015-.167.033-.252.047-.505.085-1.02.149-1.54.2-.114.011-.229.019-.344.028-.537.041-1.079.069-1.629.069H991.765c-9.845,0-17.829-6.667-17.829-14.887v5.1c0,8.221,7.984,14.887,17.829,14.887H1252.94c.55,0,1.091-.028,1.629-.068.115-.009.23-.017.344-.028.52-.048,1.035-.111,1.54-.2.085-.014.168-.032.252-.047q.693-.125,1.366-.293c.082-.021.165-.039.246-.06.485-.128.96-.275,1.427-.436l.3-.11c.472-.171.936-.353,1.386-.557l0,0c.451-.205.886-.43,1.312-.666.092-.05.183-.1.273-.152q.617-.352,1.2-.746c.064-.044.125-.09.189-.135q.523-.367,1.012-.768c.06-.049.121-.1.18-.145q.525-.442,1-.921c.07-.069.137-.14.206-.21.319-.331.628-.668.914-1.021l0,0v0l.017-.024a14.311,14.311,0,0,0,.923-1.285c.095-.148.173-.3.263-.455.182-.309.36-.619.517-.939.025-.051.058-.1.082-.149.082-.174.143-.357.217-.534.094-.222.191-.443.273-.669s.152-.483.223-.726.14-.462.2-.7c.013-.054.033-.1.045-.159.055-.254.086-.514.125-.773.024-.155.058-.308.076-.464A12.619,12.619,0,0,0,1270.769,622.9Z" transform="translate(-973.936 -617.803)" fill="#996fd6"/>
</svg>
