<svg xmlns="http://www.w3.org/2000/svg" width="58.86" height="66.168" viewBox="0 0 58.86 66.168">
  <g id="Group_524" data-name="Group 524" transform="translate(-16.072 -307.272)">
    <g id="Group_99" data-name="Group 99" transform="translate(-2837.032)">
      <g id="Group_96" data-name="Group 96">
        <path id="Path_111" data-name="Path 111" d="M2899.381,307.272c6.949,0,12.583,4.7,12.583,10.506v38.1c0,5.8-5.634,10.507-12.583,10.507h-33.694c-6.948,0-12.583-4.7-12.583-10.507V320.753a6.616,6.616,0,0,1,2.521-5.074l7.548-6.308a9.521,9.521,0,0,1,6.077-2.1Z" fill="#9d81f2"/>
        <path id="Path_112" data-name="Path 112" d="M2911.964,359.479v-3.6a8.883,8.883,0,0,1-.062,1.021c-.012.11-.036.218-.053.328-.034.221-.07.441-.12.657-.039.166-.09.329-.138.492s-.1.344-.158.512-.126.316-.192.473-.134.324-.211.482c-.111.226-.237.445-.365.662-.063.107-.118.217-.185.321a10.272,10.272,0,0,1-.654.91l-.011.015,0,0c-.2.248-.418.486-.644.719-.048.05-.1.1-.145.149-.225.224-.46.442-.707.65-.042.035-.086.068-.128.1q-.344.282-.714.541c-.044.032-.088.065-.133.1-.271.185-.554.36-.843.526-.064.037-.129.072-.193.107-.3.166-.608.326-.926.47l0,0c-.317.143-.645.272-.978.393l-.215.077c-.329.114-.664.218-1.007.308-.057.015-.116.028-.173.042q-.475.118-.964.207c-.06.011-.118.023-.178.033-.357.06-.72.105-1.087.139l-.243.019c-.379.029-.762.049-1.15.049h-33.694c-6.948,0-12.583-4.7-12.583-10.507v3.6c0,5.8,5.635,10.507,12.583,10.507h33.694c.388,0,.771-.02,1.15-.049l.243-.019c.367-.034.73-.079,1.087-.139.06-.01.118-.022.178-.033q.489-.088.964-.207c.057-.014.116-.027.173-.042.343-.091.678-.194,1.007-.308l.215-.077c.333-.121.661-.25.978-.393l0,0c.318-.144.625-.3.926-.47.065-.035.129-.07.193-.107q.435-.249.843-.527c.045-.03.088-.063.133-.1q.37-.26.715-.542c.042-.034.085-.067.127-.1.247-.208.482-.426.707-.65.049-.049.1-.1.145-.149.226-.233.444-.471.645-.72l0,0v0l.012-.016a10.161,10.161,0,0,0,.652-.908c.067-.1.122-.214.185-.321.128-.218.254-.436.365-.662.017-.036.041-.069.058-.106.058-.122.1-.251.153-.377.066-.156.135-.312.192-.472s.108-.34.158-.512.1-.326.138-.492c.009-.038.023-.074.031-.112.039-.179.061-.363.089-.545.017-.11.041-.218.053-.328A8.883,8.883,0,0,0,2911.964,359.479Z" fill="#7e64dd"/>
        <path id="Path_113" data-name="Path 113" d="M2865.687,362.845c-4.616,0-8.371-3.124-8.371-6.964V320.753a3.316,3.316,0,0,1,1.269-2.555l7.556-6.314a4.843,4.843,0,0,1,3.109-1.07h30.131c4.616,0,8.372,3.124,8.372,6.965v38.1c0,3.84-3.756,6.964-8.372,6.964Z" fill="none" stroke="#7e64dd" stroke-miterlimit="10" stroke-width="1.059"/>
        <path id="Path_114" data-name="Path 114" d="M2911.964,362.933v-3.6a8.883,8.883,0,0,1-.062,1.021c-.012.111-.036.219-.053.328-.034.221-.07.441-.12.657-.039.167-.09.329-.138.492s-.1.345-.158.513-.126.315-.192.472-.134.324-.211.482c-.111.226-.237.445-.365.663-.063.106-.118.216-.185.321a10.418,10.418,0,0,1-.654.91l-.011.015,0,0c-.2.249-.418.487-.644.72-.048.049-.1.1-.145.148q-.337.338-.707.65c-.042.035-.086.068-.128.1q-.344.282-.714.542c-.044.031-.088.064-.133.1-.271.185-.554.36-.843.527l-.193.107c-.3.166-.608.325-.926.47h0c-.317.144-.645.272-.978.393-.072.026-.143.053-.215.078-.329.113-.664.217-1.007.307l-.173.043q-.475.119-.964.207c-.06.01-.118.023-.178.033q-.536.089-1.087.138c-.081.008-.162.014-.243.02-.379.028-.762.048-1.15.048h-33.694c-6.948,0-12.583-4.705-12.583-10.507v3.6c0,5.8,5.635,10.507,12.583,10.507h33.694c.388,0,.771-.02,1.15-.048.081-.007.162-.012.243-.02.367-.034.73-.079,1.087-.138.06-.01.118-.023.178-.034q.489-.087.964-.207c.057-.014.116-.027.173-.042.343-.09.678-.194,1.007-.307.072-.025.143-.052.215-.078.333-.121.661-.249.978-.393l0,0c.318-.144.625-.3.926-.469l.193-.107q.435-.25.843-.527c.045-.031.088-.064.133-.1.247-.174.485-.354.715-.543.042-.034.085-.067.127-.1q.371-.312.707-.65c.049-.049.1-.1.145-.148.226-.234.444-.472.645-.721l0,0h0l.012-.017a10.147,10.147,0,0,0,.652-.907c.067-.1.122-.215.185-.321.128-.218.254-.437.365-.663.017-.036.041-.069.058-.105.058-.123.1-.252.153-.377.066-.157.135-.312.192-.472s.108-.341.158-.513.1-.325.138-.492c.009-.038.023-.074.031-.112.039-.179.061-.363.089-.545.017-.11.041-.217.053-.328A8.883,8.883,0,0,0,2911.964,362.933Z" fill="#7352db"/>
        <path id="Path_115" data-name="Path 115" d="M2899.427,345.866a7.027,7.027,0,0,0-7.028-7.027h-19.73a7.027,7.027,0,0,0-7.028,7.027h0c0,.027,0,.053,0,.079h0v1.749h.249a7.025,7.025,0,0,0,6.779,5.2h19.73a7.024,7.024,0,0,0,6.779-5.2h.248v-1.749h0c0-.026,0-.052,0-.079Z" fill="#7352db"/>
        <g id="Group_95" data-name="Group 95">
          <g id="Group_92" data-name="Group 92">
            <path id="Path_116" data-name="Path 116" d="M2867.85,322.6a.623.623,0,0,1,.565.35l1.068,2.148a.624.624,0,0,0,.473.342l2.387.344a.625.625,0,0,1,.35,1.068l-1.728,1.672a.627.627,0,0,0-.18.554l.407,2.362a.629.629,0,0,1-.915.66l-2.134-1.116a.64.64,0,0,0-.586,0l-2.134,1.116a.636.636,0,0,1-.293.073.63.63,0,0,1-.623-.733l.407-2.362a.621.621,0,0,0-.18-.554l-1.727-1.672a.625.625,0,0,1,.35-1.068l2.386-.344a.631.631,0,0,0,.475-.342l1.066-2.148A.626.626,0,0,1,2867.85,322.6Z" fill="#7e64dd"/>
          </g>
          <g id="Group_93" data-name="Group 93">
            <path id="Path_117" data-name="Path 117" d="M2897.219,322.6a.622.622,0,0,1,.565.35l1.068,2.148a.624.624,0,0,0,.473.342l2.387.344a.626.626,0,0,1,.35,1.068l-1.728,1.672a.627.627,0,0,0-.18.554l.407,2.362a.629.629,0,0,1-.915.66l-2.135-1.116a.638.638,0,0,0-.585,0l-2.134,1.116a.638.638,0,0,1-.293.073.63.63,0,0,1-.623-.733l.407-2.362a.621.621,0,0,0-.18-.554l-1.727-1.672a.625.625,0,0,1,.349-1.068l2.387-.344a.63.63,0,0,0,.475-.342l1.066-2.148A.625.625,0,0,1,2897.219,322.6Z" fill="#7e64dd"/>
          </g>
          <g id="Group_94" data-name="Group 94">
            <path id="Path_118" data-name="Path 118" d="M2882.535,319.159a.845.845,0,0,1,.768.476l1.452,2.92a.853.853,0,0,0,.644.465l3.246.468a.851.851,0,0,1,.475,1.453l-2.349,2.273a.854.854,0,0,0-.245.754l.553,3.212a.856.856,0,0,1-1.244.9l-2.9-1.518a.865.865,0,0,0-.8,0l-2.9,1.518a.857.857,0,0,1-1.245-.9l.553-3.212a.846.846,0,0,0-.245-.754l-2.349-2.273a.851.851,0,0,1,.476-1.453l3.245-.468a.859.859,0,0,0,.646-.465l1.45-2.92A.849.849,0,0,1,2882.535,319.159Z" fill="#7e64dd"/>
          </g>
        </g>
        <rect id="Rectangle_106" data-name="Rectangle 106" width="33.786" height="14.055" rx="7.027" transform="translate(2865.641 340.667)" fill="#ba97ff"/>
      </g>
      <g id="Group_98" data-name="Group 98">
        <path id="Path_119" data-name="Path 119" d="M2887.132,354.541l-.176-.042.289-1.136a4.439,4.439,0,0,0-.169-2.682,5.154,5.154,0,0,0,1.34-3.451.921.921,0,1,0-1.841,0,3.3,3.3,0,0,1-.565,1.863,4.291,4.291,0,0,0-3.049-1.242,4.323,4.323,0,0,0-2.251.621,3.015,3.015,0,0,0-.424.3,3.272,3.272,0,0,1-.4-1.545.921.921,0,1,0-1.842,0,5.181,5.181,0,0,0,1,3.027,4.538,4.538,0,0,0-.36.918l-.289,1.136-.177-.042a2.4,2.4,0,0,0-2.929,1.743l-1.143,4.453-.247.981a7.015,7.015,0,1,0,13.593,3.473l1.136-4.461.254-.981A2.42,2.42,0,0,0,2887.132,354.541Zm-1.539-1.6-.289,1.137-5.265-1.341.3-1.137c0-.021.014-.035.021-.056a5.081,5.081,0,0,0,5.272.261A2.7,2.7,0,0,1,2885.593,352.939Z" fill="#4b428e" opacity="0.3"/>
        <g id="Group_97" data-name="Group 97">
          <path id="Rectangle_107" data-name="Rectangle 107" d="M7.015,0h0a7.015,7.015,0,0,1,7.015,7.015v4.6a2.414,2.414,0,0,1-2.414,2.414h-9.2A2.414,2.414,0,0,1,0,11.615v-4.6A7.015,7.015,0,0,1,7.015,0Z" transform="translate(2885.078 368.602) rotate(-165.686)" fill="#1b86f6"/>
          <path id="Rectangle_108" data-name="Rectangle 108" d="M7.015,0h0a7.015,7.015,0,0,1,7.015,7.015v4.6a2.414,2.414,0,0,1-2.414,2.414h-9.2A2.414,2.414,0,0,1,0,11.615v-4.6A7.015,7.015,0,0,1,7.015,0Z" transform="matrix(-0.969, -0.247, 0.247, -0.969, 2885.327, 367.623)" fill="#b7f7ff"/>
          <path id="Path_120" data-name="Path 120" d="M2875.653,353.553a1.757,1.757,0,0,0-.037.193,1.6,1.6,0,0,0,.094.776,1.29,1.29,0,0,0,.117.252,1.624,1.624,0,0,0,.989.738l8.192,2.09a1.611,1.611,0,0,0,1.9-.979v0a1.734,1.734,0,0,0,.058-.179,1.605,1.605,0,0,0-1.161-1.963l-8.193-2.09A1.614,1.614,0,0,0,2875.653,353.553Z" fill="#1b86f6"/>
          <path id="Path_121" data-name="Path 121" d="M2878.59,359.349a1.84,1.84,0,0,0-.039.2,1.571,1.571,0,0,0,.416,1.255l-.352,1.382a.819.819,0,0,0,.093.63.831.831,0,0,0,1.52-.219l.353-1.382a1.555,1.555,0,0,0,.969-.9,1.659,1.659,0,0,0,.062-.194,1.5,1.5,0,0,0,.035-.185,1.559,1.559,0,0,0-3-.765A1.54,1.54,0,0,0,2878.59,359.349Z" fill="#1b86f6"/>
          <path id="Path_122" data-name="Path 122" d="M2884.863,355.5l.882-3.456a3.567,3.567,0,0,0-2.574-4.339h0" fill="none" stroke="#fff" stroke-linecap="round" stroke-linejoin="round" stroke-width="1.705"/>
          <path id="Path_123" data-name="Path 123" d="M2878.292,346.118a4.266,4.266,0,0,0,4.266,4.267h0a4.266,4.266,0,0,0,4.267-4.267" fill="none" stroke="#6767ce" stroke-linecap="round" stroke-miterlimit="10" stroke-width="1.841"/>
          <path id="Path_124" data-name="Path 124" d="M2883.171,347.7a3.568,3.568,0,0,0-4.339,2.575l-.882,3.457" fill="none" stroke="#fff" stroke-linecap="round" stroke-linejoin="round" stroke-width="1.705"/>
        </g>
      </g>
    </g>
  </g>
</svg>
