<svg xmlns="http://www.w3.org/2000/svg" width="296.833" height="93.755" viewBox="0 0 296.833 93.755">
  <g id="Group_520" data-name="Group 520" transform="translate(-973.936 -654.991)">
    <path id="Path_887" data-name="Path 887" d="M1252.94,654.991c9.845,0,17.829,6.667,17.829,14.887v53.988c0,8.221-7.984,14.887-17.829,14.887H991.765c-9.845,0-17.829-6.666-17.829-14.887V674.093a9.378,9.378,0,0,1,3.571-7.189l10.7-8.938a13.49,13.49,0,0,1,8.61-2.975Z" fill="#9d81f2"/>
    <path id="Path_888" data-name="Path 888" d="M1270.769,728.964v-5.1a12.619,12.619,0,0,1-.088,1.447c-.018.156-.052.309-.076.464-.048.313-.1.625-.17.932-.054.235-.127.465-.2.7s-.138.487-.223.726-.179.447-.273.669-.19.459-.3.683c-.157.32-.336.63-.518.939-.089.151-.167.307-.262.455a14.567,14.567,0,0,1-.926,1.289l-.015.021,0,.005c-.285.352-.594.69-.913,1.02-.068.07-.136.141-.206.21q-.478.477-1,.921c-.059.05-.121.1-.181.146q-.487.4-1.011.767c-.063.045-.125.091-.189.135q-.578.395-1.2.746c-.09.052-.182.1-.273.152-.426.236-.861.461-1.312.666l0,0c-.45.2-.915.386-1.386.557l-.3.11c-.467.161-.942.308-1.427.436-.081.021-.164.039-.246.06q-.672.168-1.366.293c-.084.015-.167.033-.252.047-.505.084-1.02.148-1.54.2-.114.011-.229.019-.344.028-.537.04-1.079.068-1.629.068H991.765c-9.845,0-17.829-6.666-17.829-14.887v5.1c0,8.221,7.984,14.887,17.829,14.887H1252.94c.55,0,1.091-.028,1.629-.068.115-.009.23-.017.344-.028.52-.048,1.035-.112,1.54-.2.085-.014.168-.032.252-.047q.693-.125,1.366-.294c.082-.02.165-.038.246-.059.485-.128.96-.275,1.427-.436l.3-.11c.472-.171.936-.353,1.386-.557l0,0c.451-.205.886-.43,1.312-.666.092-.05.183-.1.273-.152q.617-.353,1.2-.746c.064-.044.125-.09.189-.135q.523-.367,1.012-.768c.06-.049.121-.1.18-.145q.525-.443,1-.921c.07-.069.137-.14.206-.21.319-.331.628-.669.914-1.021l0,0v0l.017-.024a14.6,14.6,0,0,0,.923-1.285c.095-.149.173-.3.263-.455.182-.309.36-.619.517-.939.025-.051.058-.1.082-.149.082-.174.143-.357.217-.534.094-.223.191-.443.273-.669s.152-.483.223-.726.14-.462.2-.7c.013-.054.033-.1.045-.159.055-.254.086-.515.125-.773.024-.155.058-.308.076-.465A12.6,12.6,0,0,0,1270.769,728.964Z" fill="#7352db"/>
    <path id="Path_889" data-name="Path 889" d="M991.765,733.734c-6.54,0-11.861-4.427-11.861-9.867V674.094a4.694,4.694,0,0,1,1.8-3.62l10.706-8.947a6.858,6.858,0,0,1,4.4-1.516H1252.94c6.541,0,11.861,4.426,11.861,9.868v53.988c0,5.44-5.32,9.867-11.861,9.867Z" fill="none" stroke="#7e64dd" stroke-miterlimit="10" stroke-width="1.5"/>
    <rect id="Rectangle_236" data-name="Rectangle 236" width="28.325" height="10.797" rx="5.398" transform="translate(1238.934 687.802) rotate(-180)" fill="#7352db"/>
    <path id="Rectangle_237" data-name="Rectangle 237" d="M11.428,0h0A11.428,11.428,0,0,1,22.857,11.428v7.5a3.933,3.933,0,0,1-3.933,3.933H3.933A3.933,3.933,0,0,1,0,18.924v-7.5A11.428,11.428,0,0,1,11.428,0Z" transform="translate(1228.876 719.035) rotate(-165.686)" fill="#1b86f6"/>
    <path id="Rectangle_238" data-name="Rectangle 238" d="M11.428,0h0A11.428,11.428,0,0,1,22.857,11.428v7.5a3.933,3.933,0,0,1-3.933,3.933H3.933A3.933,3.933,0,0,1,0,18.924v-7.5A11.428,11.428,0,0,1,11.428,0Z" transform="matrix(-0.969, -0.247, 0.247, -0.969, 1229.283, 717.439)" fill="#b7f7ff"/>
    <path id="Path_890" data-name="Path 890" d="M1213.522,694.517a2.509,2.509,0,0,0-.06.314,2.609,2.609,0,0,0,.151,1.264,2.188,2.188,0,0,0,.192.411,2.641,2.641,0,0,0,1.61,1.2l13.348,3.406a2.624,2.624,0,0,0,3.1-1.595l0-.006a2.616,2.616,0,0,0,.094-.292,2.613,2.613,0,0,0-1.892-3.2l-13.348-3.406A2.629,2.629,0,0,0,1213.522,694.517Z" fill="#1b86f6"/>
    <path id="Path_891" data-name="Path 891" d="M1218.307,703.959a2.766,2.766,0,0,0-.064.327,2.552,2.552,0,0,0,.678,2.043l-.575,2.252a1.345,1.345,0,0,0,.153,1.027,1.354,1.354,0,0,0,2.476-.357l.574-2.251a2.538,2.538,0,1,0-3.148-3.333A2.373,2.373,0,0,0,1218.307,703.959Z" fill="#1b86f6"/>
    <path id="Path_892" data-name="Path 892" d="M1228.527,697.684l1.437-5.631a5.812,5.812,0,0,0-4.195-7.069h0" fill="none" stroke="#fff" stroke-linecap="round" stroke-linejoin="round" stroke-width="2.778"/>
    <path id="Path_893" data-name="Path 893" d="M1217.82,682.4a6.951,6.951,0,0,0,6.951,6.951h0a6.952,6.952,0,0,0,6.952-6.951" fill="none" stroke="#6767ce" stroke-linecap="round" stroke-miterlimit="10" stroke-width="3"/>
    <path id="Path_894" data-name="Path 894" d="M1225.769,684.984a5.812,5.812,0,0,0-7.068,4.2l-1.437,5.632" fill="none" stroke="#fff" stroke-linecap="round" stroke-linejoin="round" stroke-width="2.778"/>
    <g id="Group_439" data-name="Group 439">
      <path id="Path_895" data-name="Path 895" d="M1049.491,695.256a2.31,2.31,0,0,0-.026-.3c-.007-.042-.02-.083-.029-.125s-.017-.078-.027-.117-.014-.073-.025-.108c-.02-.063-.053-.124-.078-.187s-.056-.147-.092-.218c-.011-.023-.016-.046-.028-.068-.046-.088-.1-.172-.158-.258-.024-.037-.044-.076-.07-.113a4.827,4.827,0,0,0-.333-.43c-.028-.031-.06-.063-.088-.094-.1-.109-.2-.218-.313-.325-.05-.049-.1-.1-.156-.145-.1-.09-.195-.179-.3-.268-.058-.049-.116-.1-.176-.148-.107-.089-.217-.177-.329-.265l-.171-.135c-.133-.1-.267-.2-.4-.3l-.109-.082-.579-.423q-.22-.159-.438-.319l-.188-.14q-.171-.128-.339-.256l-.188-.146c-.11-.086-.216-.172-.321-.259-.055-.046-.111-.091-.164-.136q-.2-.168-.374-.338l-.065-.059q-.2-.2-.378-.4c-.034-.038-.062-.078-.094-.117-.08-.1-.155-.2-.222-.295-.034-.05-.064-.1-.094-.151a2.972,2.972,0,0,1-.2-.372,3.377,3.377,0,0,1-.2-.748c0-.017-.008-.033-.011-.05a5.86,5.86,0,0,1-.061-.876v3.6a5.589,5.589,0,0,0,.058.747l0,.016c0,.017.008.033.011.05a3.694,3.694,0,0,0,.1.462,2.816,2.816,0,0,0,.1.285c.032.076.067.15.106.224.027.05.062.1.092.148s.06.1.094.152c.067.1.142.2.222.295.032.039.06.078.094.117.117.135.242.269.378.4l.069.063c.118.112.241.224.37.334.053.046.11.092.165.137.1.087.211.173.321.259.061.048.123.1.185.144.114.087.229.175.346.262l.179.133.444.324.58.423.1.072c.14.1.279.209.416.314.057.044.112.088.168.133q.168.13.33.266c.06.049.118.1.176.148.1.088.2.178.3.268.053.048.106.1.156.145.11.107.213.216.313.325.028.032.06.062.088.094a4.961,4.961,0,0,1,.333.429c.026.038.046.077.071.115a3.4,3.4,0,0,1,.185.324c.035.072.063.146.092.22a2.692,2.692,0,0,1,.1.293c.01.04.019.079.027.118a2.277,2.277,0,0,1,.055.468v-3.529Z" fill="#6e4fc1"/>
      <path id="Path_896" data-name="Path 896" d="M1005.074,691.167c-.381.276-.763.553-1.126.836a6.822,6.822,0,0,0-2.089,2.262,2.426,2.426,0,0,0-.239,1.032v3.488c0-2.882,5.508-4.642,6.552-7.147a4.337,4.337,0,0,0,.279-1.679v-3.488a4.346,4.346,0,0,1-.279,1.68C1007.715,689.246,1006.4,690.2,1005.074,691.167Z" fill="#6e4fc1"/>
      <path id="Path_897" data-name="Path 897" d="M1043.073,683.021c.01.035.015.074.025.11a4.132,4.132,0,0,1,.093.474c.019.14.026.288.034.435.005.114.018.222.018.339v-3.488c0-.038,0-.075,0-.113,0-.078-.014-.149-.017-.225-.008-.148-.015-.3-.034-.436,0-.025,0-.053-.006-.078a3.78,3.78,0,0,0-.087-.4c-.01-.035-.015-.074-.025-.109l0-.018a2.671,2.671,0,0,0-.195-.48c0-.008-.012-.014-.017-.023a2.042,2.042,0,0,0-.89-.883c-.008,0-.014-.012-.022-.016a2.737,2.737,0,0,0-.47-.19l-.026-.006c-.043-.012-.09-.019-.133-.03-.119-.03-.237-.062-.364-.082-.028,0-.059,0-.087-.007-.125-.017-.256-.024-.387-.032-.081,0-.157-.018-.24-.02h-.152a10.963,10.963,0,0,0-1.145.072c-.026,0-.05,0-.077.005l-.067.009c-.505.057-1.025.134-1.546.21-.495.074-.99.145-1.472.2a12.221,12.221,0,0,1-1.345.087,6.06,6.06,0,0,1-.836-.056c-.019,0-.04,0-.059,0a3.35,3.35,0,0,1-.779-.208,2.9,2.9,0,0,1-.38-.2c-.051-.031-.1-.061-.154-.1-.1-.065-.195-.139-.291-.216-.041-.033-.084-.064-.125-.1-.136-.117-.271-.241-.4-.376l-.025-.028c-.126-.129-.25-.266-.374-.408-.045-.052-.089-.1-.133-.158-.089-.106-.177-.213-.265-.323-.049-.062-.1-.124-.148-.188-.086-.11-.172-.222-.257-.335l-.142-.188c-.1-.129-.193-.259-.29-.39-.152-.207-.306-.414-.46-.619-.023-.032-.048-.063-.072-.1q-.157-.21-.316-.412c-.044-.057-.089-.111-.133-.166q-.132-.166-.267-.327c-.049-.059-.1-.117-.15-.175-.089-.1-.18-.2-.271-.3-.047-.05-.095-.1-.143-.15-.114-.116-.231-.226-.348-.33l-.072-.068a5.3,5.3,0,0,0-.43-.329c-.042-.028-.084-.05-.126-.077-.079-.049-.156-.1-.236-.144-.026-.014-.052-.02-.077-.033-.074-.036-.15-.064-.225-.094-.059-.023-.117-.056-.177-.075-.039-.012-.079-.017-.118-.027s-.08-.02-.12-.028-.076-.021-.116-.027a2.184,2.184,0,0,0-.3-.027h-.051a2.221,2.221,0,0,0-.259.015c-.074.008-.147.025-.22.04-.025.006-.052.009-.077.015l-.04.007a2.668,2.668,0,0,0-.431.154l-.008,0c-.022.011-.044.026-.066.037a3.525,3.525,0,0,0-.394.221c-.052.034-.1.075-.155.113-.1.069-.194.141-.289.22-.058.048-.114.1-.17.151-.089.08-.177.162-.264.249-.057.057-.113.114-.169.174-.086.091-.171.185-.255.281-.055.061-.108.122-.161.185-.09.106-.179.215-.267.325l-.138.172c-.107.137-.213.277-.32.417-.025.034-.05.067-.076.1-.152.2-.3.407-.452.611l-.316.426c-.046.062-.093.123-.139.184-.087.115-.174.229-.261.341l-.154.193c-.082.1-.164.2-.247.3-.053.064-.108.127-.161.189-.083.094-.166.185-.25.274-.053.055-.106.112-.158.165-.092.092-.184.176-.277.259-.046.041-.092.086-.138.125a4.263,4.263,0,0,1-.407.3l-.018.014a2.99,2.99,0,0,1-.463.245,3.191,3.191,0,0,1-.485.143c-.141.032-.292.056-.447.076-.1.013-.188.032-.292.042-.144.008-.3.008-.45.008-.331,0-.686-.034-1.039-.067-.134-.013-.26-.015-.4-.031-.454-.053-.917-.12-1.382-.189-.415-.061-.83-.121-1.237-.173l-.15-.02q-.6-.072-1.163-.092c-.037,0-.079-.009-.116-.009-.057,0-.113,0-.169,0a6.059,6.059,0,0,0-.67.034l-.019,0c-.047.005-.09.018-.137.024a3.847,3.847,0,0,0-.415.074c-.021.005-.039.014-.059.019-.056.016-.108.038-.163.056-.085.028-.173.051-.253.086-.046.02-.087.048-.132.071s-.084.044-.125.068a2.23,2.23,0,0,0-.43.319,3.25,3.25,0,0,0-.758,2.39v3.488a3.248,3.248,0,0,1,.758-2.39,2.23,2.23,0,0,1,.43-.319c.041-.024.083-.047.126-.068a2.668,2.668,0,0,1,.384-.157c.055-.018.107-.04.163-.056a4.091,4.091,0,0,1,.474-.093c.047-.007.09-.019.137-.024a6.118,6.118,0,0,1,.689-.037c.092,0,.191.008.285.011q.563.02,1.164.092l.142.019c.41.052.826.113,1.244.174.464.069.928.136,1.381.189.138.016.265.018.4.031.289.027.582.06.856.066l.18,0c.153,0,.306,0,.45-.01l.122-.012c.062-.007.112-.021.172-.029.153-.021.306-.045.445-.076.03-.007.067-.009.1-.016a3.046,3.046,0,0,0,.388-.127l.058-.025a3.078,3.078,0,0,0,.4-.22l.023-.017a4.289,4.289,0,0,0,.4-.3c.047-.04.094-.085.141-.127.092-.082.183-.166.274-.256.053-.054.107-.112.16-.168.083-.088.166-.178.248-.272.054-.062.109-.126.163-.191.082-.1.163-.2.244-.3.053-.065.1-.13.157-.2q.129-.165.256-.334c.048-.064.1-.128.145-.193l.329-.443c.145-.2.291-.394.437-.589l.078-.1q.157-.21.317-.413l.141-.177c.088-.109.175-.216.264-.321.053-.064.108-.125.162-.187.084-.1.169-.189.255-.28.056-.06.112-.117.169-.175.087-.086.175-.168.263-.248.057-.051.113-.1.171-.151.094-.079.191-.15.288-.22.052-.038.1-.079.157-.113a3.435,3.435,0,0,1,.39-.22c.023-.011.046-.027.07-.038a2.622,2.622,0,0,1,.478-.164c.026-.007.052-.01.077-.015a2.079,2.079,0,0,1,.95,0c.04.008.08.018.12.028a2.456,2.456,0,0,1,.3.1c.075.029.151.058.225.094a3.38,3.38,0,0,1,.313.177c.042.026.084.049.126.077a4.929,4.929,0,0,1,.43.33c.023.02.046.044.07.065.118.1.235.214.35.332.048.048.1.1.143.15.091.1.181.2.271.3.05.058.1.117.151.177.089.106.177.213.265.323l.135.17c.1.133.206.267.309.4.027.035.054.07.08.106.149.2.3.4.445.6l.3.409.142.186c.085.114.171.226.257.336.049.063.1.126.148.187.088.111.176.218.265.324.044.052.088.106.133.157.124.143.248.28.374.409l.025.027c.133.136.268.26.4.376.041.036.084.067.125.1.1.077.193.15.291.216.051.034.1.065.154.1s.091.061.138.086a2.679,2.679,0,0,0,.242.115c.082.034.167.064.254.091a3.77,3.77,0,0,0,.518.116h.007c.019,0,.04,0,.059.005a5.8,5.8,0,0,0,.675.055l.161,0a12.215,12.215,0,0,0,1.293-.081l.051-.008c.483-.054.977-.126,1.473-.2.521-.076,1.041-.153,1.546-.21l.144-.015a11.227,11.227,0,0,1,1.145-.071c.135,0,.262.013.391.021s.263.015.388.032a4.017,4.017,0,0,1,.452.089c.043.011.09.017.132.03a2.824,2.824,0,0,1,.518.212,2.234,2.234,0,0,1,.513.37,2.168,2.168,0,0,1,.377.513A2.674,2.674,0,0,1,1043.073,683.021Z" fill="#6e4fc1"/>
    </g>
    <g id="Group_440" data-name="Group 440">
      <path id="Path_898" data-name="Path 898" d="M1025.56,675.038c2.889,0,4.671,5.459,7.2,6.509a4.419,4.419,0,0,0,1.674.27,20.077,20.077,0,0,0,2.817-.288,20.524,20.524,0,0,1,2.835-.3,3.3,3.3,0,0,1,2.394.754c1.971,1.957-.63,7.066.459,9.652,1.044,2.5,6.552,4.264,6.552,7.146s-5.508,4.642-6.552,7.137c-1.089,2.6,1.512,7.7-.459,9.652a3.3,3.3,0,0,1-2.412.763,18.873,18.873,0,0,1-2.817-.3,20.182,20.182,0,0,0-2.826-.287,4.372,4.372,0,0,0-1.665.269c-2.529,1.032-4.311,6.509-7.2,6.509-2.907,0-4.68-5.477-7.2-6.509a4.064,4.064,0,0,0-1.188-.261c-.171-.008-.315-.008-.459-.008a20.426,20.426,0,0,0-2.844.287,19.111,19.111,0,0,1-2.826.3,3.3,3.3,0,0,1-2.412-.763c-1.962-1.948.63-7.057-.459-9.652-1.044-2.495-6.552-4.264-6.552-7.137s5.508-4.642,6.552-7.146c1.089-2.586-1.5-7.7.459-9.652a3.313,3.313,0,0,1,2.4-.754,20.524,20.524,0,0,1,2.835.3,20.078,20.078,0,0,0,2.817.288c.153,0,.306,0,.45-.009a4.35,4.35,0,0,0,1.224-.261C1020.88,680.5,1022.653,675.038,1025.56,675.038Z" fill="#c5b9ea"/>
    </g>
    <circle id="Ellipse_18" data-name="Ellipse 18" cx="13.553" cy="13.553" r="13.553" transform="translate(1012.004 685.232)" fill="#b9a4ed"/>
    <path id="Path_899" data-name="Path 899" d="M1270.769,733.859v-5.1a12.6,12.6,0,0,1-.088,1.446c-.018.157-.052.31-.076.465-.048.313-.1.625-.17.931-.054.236-.127.466-.2.7s-.138.488-.223.726-.179.447-.273.67-.19.459-.3.683c-.157.32-.336.63-.518.938-.089.151-.167.307-.262.455a14.581,14.581,0,0,1-.926,1.29l-.015.021,0,.005c-.285.352-.594.689-.913,1.019-.068.071-.136.141-.206.211-.319.318-.652.626-1,.92-.059.05-.121.1-.181.146q-.487.4-1.011.768c-.063.044-.125.091-.189.135-.385.263-.784.51-1.2.746-.09.052-.182.1-.273.152-.426.235-.861.461-1.312.665l0,0c-.45.2-.915.385-1.386.557-.1.037-.2.074-.3.109-.467.161-.942.308-1.427.436-.081.022-.164.04-.246.06q-.672.168-1.366.293c-.084.016-.167.033-.252.048-.505.084-1.02.148-1.54.2-.114.011-.229.019-.344.027-.537.041-1.079.069-1.629.069H991.765c-9.845,0-17.829-6.666-17.829-14.887v5.1c0,8.221,7.984,14.887,17.829,14.887H1252.94c.55,0,1.091-.028,1.629-.069.115-.009.23-.017.344-.027.52-.048,1.035-.112,1.54-.2.085-.015.168-.033.252-.048q.693-.125,1.366-.293c.082-.02.165-.038.246-.06.485-.128.96-.275,1.427-.436.1-.035.2-.072.3-.109.472-.172.936-.354,1.386-.558l0,0c.451-.2.886-.43,1.312-.665.092-.051.183-.1.273-.152.411-.236.81-.483,1.2-.746.064-.044.125-.091.189-.135q.523-.369,1.012-.769c.06-.048.121-.1.18-.144q.525-.442,1-.921c.07-.07.137-.14.206-.211.319-.33.628-.668.914-1.021l0,0h0l.017-.024a14.465,14.465,0,0,0,.923-1.286c.095-.148.173-.3.263-.455.182-.309.36-.618.517-.938.025-.051.058-.1.082-.15.082-.174.143-.357.217-.534.094-.222.191-.442.273-.669s.152-.483.223-.726.14-.461.2-.7c.013-.054.033-.1.045-.159.055-.254.086-.514.125-.772.024-.156.058-.308.076-.465A12.6,12.6,0,0,0,1270.769,733.859Z" fill="#523aa5"/>
  </g>
</svg>
