<svg xmlns="http://www.w3.org/2000/svg" width="296.832" height="93.876" viewBox="0 0 296.832 93.876">
  <g id="Group_523" data-name="Group 523" transform="translate(509.319 -934.648)">
    <path id="Path_791" data-name="Path 791" d="M1724.037,232.648c9.845,0,17.828,6.667,17.828,14.888v53.988c0,8.22-7.983,14.887-17.828,14.887H1462.862c-9.845,0-17.829-6.667-17.829-14.887V251.751a9.38,9.38,0,0,1,3.571-7.19l10.7-8.938a13.49,13.49,0,0,1,8.61-2.975Z" transform="translate(-1954.352 702)" fill="#ff784f"/>
    <path id="Path_792" data-name="Path 792" d="M1741.865,306.622v-5.1a12.574,12.574,0,0,1-.087,1.446c-.018.157-.052.309-.076.465-.048.312-.1.624-.17.931-.055.235-.127.465-.195.7s-.138.488-.224.726-.179.447-.272.669-.19.459-.3.683c-.156.32-.335.63-.517.939-.089.151-.167.307-.262.455a14.545,14.545,0,0,1-.926,1.289l-.015.022,0,0c-.285.352-.594.69-.913,1.02-.069.07-.136.141-.206.21q-.478.477-1,.921c-.059.05-.121.1-.181.146q-.488.4-1.011.767c-.064.045-.125.092-.189.135-.385.263-.785.511-1.195.747l-.273.152c-.426.235-.861.461-1.312.665l-.005,0c-.449.2-.914.386-1.385.558-.1.036-.2.074-.305.109-.466.161-.941.308-1.426.436-.081.021-.165.039-.246.06q-.672.168-1.366.293c-.084.015-.167.033-.252.047-.506.085-1.02.149-1.54.2-.115.011-.23.019-.344.028-.538.041-1.08.069-1.629.069H1462.862c-9.845,0-17.829-6.667-17.829-14.887v5.1c0,8.22,7.984,14.887,17.829,14.887h261.175c.549,0,1.091-.028,1.629-.069.115-.009.229-.017.344-.028.52-.047,1.034-.111,1.54-.2.085-.014.168-.032.252-.047q.693-.125,1.366-.293c.081-.021.164-.039.246-.06.485-.128.96-.275,1.426-.436.1-.036.2-.073.305-.11.471-.171.936-.353,1.385-.557l.005,0c.451-.2.886-.43,1.312-.665.091-.051.183-.1.273-.153q.617-.353,1.195-.746c.064-.044.125-.09.189-.135q.523-.367,1.012-.768c.059-.049.121-.1.18-.145q.525-.443,1-.921c.07-.069.137-.14.206-.21.319-.331.628-.668.914-1.021l0,0,0,0,.017-.024a14.5,14.5,0,0,0,.923-1.285c.1-.148.173-.3.262-.455.182-.309.361-.619.517-.939.025-.051.058-.1.083-.149.082-.174.142-.357.217-.534.094-.222.191-.442.272-.669s.153-.483.224-.726.14-.462.195-.7c.012-.054.032-.1.044-.159.056-.254.086-.514.126-.773.024-.155.058-.308.076-.464A12.588,12.588,0,0,0,1741.865,306.622Z" transform="translate(-1954.352 702)" fill="#ed5b3e"/>
    <path id="Path_793" data-name="Path 793" d="M1462.862,311.391c-6.541,0-11.862-4.427-11.862-9.867V251.751a4.7,4.7,0,0,1,1.8-3.62l10.706-8.947a6.858,6.858,0,0,1,4.405-1.516h256.127c6.54,0,11.861,4.427,11.861,9.868v53.988c0,5.44-5.321,9.867-11.861,9.867Z" transform="translate(-1954.352 702)" fill="none" stroke="#f5a277" stroke-miterlimit="10" stroke-width="1.5"/>
    <path id="Path_794" data-name="Path 794" d="M1490.043,253.752a20.778,20.778,0,1,1-20.929,20.782A20.857,20.857,0,0,1,1490.043,253.752Z" transform="translate(-1954.352 702)" fill="#ffbe2e"/>
    <path id="Path_795" data-name="Path 795" d="M1490.043,293.307a18.778,18.778,0,1,1,18.93-18.774A18.874,18.874,0,0,1,1490.043,293.307Z" transform="translate(-1954.352 702)" fill="none" stroke="#ffd128" stroke-miterlimit="10" stroke-width="0.5"/>
    <g id="Group_411" data-name="Group 411" transform="translate(-1954.352 702)">
      <path id="Path_796" data-name="Path 796" d="M1490.045,265.025a1.235,1.235,0,0,1,1.121.7l2.122,4.266a1.242,1.242,0,0,0,.94.68l4.741.683a1.242,1.242,0,0,1,.695,2.122l-3.431,3.321a1.248,1.248,0,0,0-.359,1.1l.809,4.692a1.249,1.249,0,0,1-1.818,1.311l-4.24-2.216a1.262,1.262,0,0,0-1.163,0l-4.24,2.216a1.249,1.249,0,0,1-1.818-1.311l.808-4.692a1.237,1.237,0,0,0-.358-1.1l-3.432-3.321a1.242,1.242,0,0,1,.695-2.122l4.741-.683a1.255,1.255,0,0,0,.944-.68l2.118-4.266A1.243,1.243,0,0,1,1490.045,265.025Z" fill="#fc821e"/>
    </g>
    <path id="Path_799" data-name="Path 799" d="M1741.865,311.637v-5.1a12.573,12.573,0,0,1-.087,1.446c-.018.157-.052.309-.076.465-.048.313-.1.624-.17.931-.055.235-.127.465-.195.7s-.138.488-.224.726-.179.447-.272.669-.19.459-.3.683c-.156.32-.335.63-.517.939-.089.151-.167.307-.262.455a14.536,14.536,0,0,1-.926,1.289l-.015.022,0,0c-.285.352-.594.69-.913,1.02-.069.07-.136.141-.206.21q-.478.477-1,.921c-.059.05-.121.1-.181.146q-.488.4-1.011.767c-.064.045-.125.092-.189.135-.385.263-.785.511-1.195.747l-.273.152c-.426.235-.861.461-1.312.665l-.005,0c-.449.2-.914.386-1.385.558-.1.036-.2.074-.305.109-.466.161-.941.308-1.426.436-.081.021-.165.039-.246.06q-.672.168-1.366.293c-.084.015-.167.033-.252.047-.506.085-1.02.149-1.54.2l-.344.027c-.538.041-1.08.069-1.629.069H1462.862c-9.845,0-17.829-6.667-17.829-14.887v5.1c0,8.22,7.984,14.887,17.829,14.887h261.175c.549,0,1.091-.028,1.629-.069.115-.009.229-.017.344-.028.52-.047,1.034-.111,1.54-.2.085-.014.168-.032.252-.047q.693-.124,1.366-.293c.081-.021.164-.039.246-.06.485-.128.96-.275,1.426-.436.1-.035.2-.073.305-.11.471-.171.936-.353,1.385-.557l.005,0c.451-.205.886-.43,1.312-.665.091-.051.183-.1.273-.153q.617-.352,1.195-.746c.064-.044.125-.09.189-.135q.523-.367,1.012-.768c.059-.049.121-.1.18-.145.35-.294.683-.6,1-.921.07-.069.137-.14.206-.21.319-.331.628-.668.914-1.021l0,0,0,0,.017-.024a14.51,14.51,0,0,0,.923-1.285c.1-.148.173-.3.262-.455.182-.309.361-.619.517-.939.025-.051.058-.1.083-.149.082-.174.142-.357.217-.534.094-.222.191-.442.272-.669s.153-.483.224-.726.14-.462.195-.7c.012-.054.032-.105.044-.159.056-.254.086-.514.126-.772.024-.156.058-.309.076-.465A12.588,12.588,0,0,0,1741.865,311.637Z" transform="translate(-1954.352 702)" fill="#cf3914"/>
    <rect id="Rectangle_222" data-name="Rectangle 222" width="28.325" height="10.797" rx="5.398" transform="translate(-244.321 967.459) rotate(180)" fill="#ed5b3e"/>
    <path id="Rectangle_223" data-name="Rectangle 223" d="M11.428,0h0A11.428,11.428,0,0,1,22.857,11.428v7.5a3.933,3.933,0,0,1-3.933,3.933H3.933A3.933,3.933,0,0,1,0,18.924v-7.5A11.428,11.428,0,0,1,11.428,0Z" transform="translate(-254.38 998.692) rotate(-165.686)" fill="#1b86f6"/>
    <path id="Rectangle_224" data-name="Rectangle 224" d="M11.428,0h0A11.428,11.428,0,0,1,22.857,11.428v7.5a3.933,3.933,0,0,1-3.933,3.933H3.933A3.933,3.933,0,0,1,0,18.924v-7.5A11.428,11.428,0,0,1,11.428,0Z" transform="matrix(-0.969, -0.247, 0.247, -0.969, -253.972, 997.096)" fill="#b7f7ff"/>
    <path id="Path_805" data-name="Path 805" d="M1684.619,272.174a2.728,2.728,0,0,0-.061.314,2.611,2.611,0,0,0,.152,1.264,2.138,2.138,0,0,0,.192.411,2.639,2.639,0,0,0,1.61,1.2l13.348,3.406a2.623,2.623,0,0,0,3.095-1.6v-.006a2.557,2.557,0,0,0,.095-.292,2.613,2.613,0,0,0-1.892-3.2l-13.348-3.406A2.629,2.629,0,0,0,1684.619,272.174Z" transform="translate(-1954.352 702)" fill="#1b86f6"/>
    <path id="Path_806" data-name="Path 806" d="M1689.4,281.616a2.825,2.825,0,0,0-.063.327,2.552,2.552,0,0,0,.677,2.043l-.574,2.252a1.345,1.345,0,0,0,.153,1.027,1.355,1.355,0,0,0,2.476-.356l.574-2.252a2.54,2.54,0,0,0,1.58-1.468,2.988,2.988,0,0,0,.1-.316,2.6,2.6,0,0,0,.057-.3,2.541,2.541,0,0,0-4.981-.955Z" transform="translate(-1954.352 702)" fill="#1b86f6"/>
    <path id="Path_807" data-name="Path 807" d="M1699.624,275.342l1.437-5.632a5.814,5.814,0,0,0-4.2-7.069h0" transform="translate(-1954.352 702)" fill="none" stroke="#fff" stroke-linecap="round" stroke-linejoin="round" stroke-width="2.778"/>
    <path id="Path_808" data-name="Path 808" d="M1688.917,260.061a6.951,6.951,0,0,0,6.951,6.951h0a6.951,6.951,0,0,0,6.951-6.951" transform="translate(-1954.352 702)" fill="none" stroke="#6767ce" stroke-linecap="round" stroke-miterlimit="10" stroke-width="3"/>
    <path id="Path_809" data-name="Path 809" d="M1696.866,262.641a5.814,5.814,0,0,0-7.069,4.2l-1.436,5.632" transform="translate(-1954.352 702)" fill="none" stroke="#fff" stroke-linecap="round" stroke-linejoin="round" stroke-width="2.778"/>
  </g>
</svg>
