<svg xmlns="http://www.w3.org/2000/svg" width="296.832" height="93.949" viewBox="0 0 296.832 93.949">
  <g id="Group_496" data-name="Group 496" transform="translate(-31.584 -190.814)">
    <path id="Path_557" data-name="Path 557" d="M310.587,190.814c9.846,0,17.829,6.667,17.829,14.888V259.69c0,8.22-7.983,14.887-17.829,14.887H49.413c-9.846,0-17.829-6.667-17.829-14.887V209.917a9.38,9.38,0,0,1,3.571-7.19l10.695-8.938a13.5,13.5,0,0,1,8.611-2.975Z" fill="#79cb00"/>
    <line id="Line_22" data-name="Line 22" x2="117.431" transform="translate(37.551 235.124)" fill="none" stroke="#97db42" stroke-miterlimit="10" stroke-width="1.5"/>
    <line id="Line_23" data-name="Line 23" y2="73.848" transform="translate(218.919 195.834)" fill="none" stroke="#97db42" stroke-miterlimit="10" stroke-width="1.5"/>
    <path id="Path_558" data-name="Path 558" d="M328.416,264.788v-5.1a12.587,12.587,0,0,1-.087,1.446c-.019.157-.052.309-.076.465-.048.312-.1.624-.17.931-.055.235-.128.465-.2.7s-.139.488-.224.726-.179.447-.272.669-.19.459-.3.683c-.156.32-.335.63-.517.939-.089.151-.168.307-.262.455a14.745,14.745,0,0,1-.926,1.289l-.016.022,0,0c-.285.352-.593.69-.913,1.02-.068.07-.135.141-.205.21q-.479.477-1,.921c-.059.05-.121.1-.181.146q-.489.4-1.012.767c-.063.045-.124.091-.188.135-.385.263-.785.511-1.2.747l-.273.152c-.427.235-.861.461-1.312.665l-.005,0c-.449.2-.914.386-1.386.558-.1.036-.2.074-.3.109-.466.161-.941.308-1.427.436-.081.021-.164.039-.245.06q-.674.168-1.366.293c-.084.015-.167.033-.252.047-.506.085-1.02.149-1.541.2-.114.011-.229.019-.344.028-.537.041-1.079.069-1.629.069H49.413c-9.846,0-17.829-6.667-17.829-14.887v5.1c0,8.22,7.983,14.887,17.829,14.887H310.587c.55,0,1.092-.028,1.629-.069.115-.009.23-.017.344-.028.521-.047,1.035-.111,1.541-.2.085-.014.168-.032.252-.047q.693-.124,1.366-.293c.081-.021.164-.039.245-.06.486-.128.961-.275,1.427-.436l.3-.11c.472-.171.937-.353,1.386-.557l.005,0c.451-.205.885-.43,1.312-.665.091-.051.183-.1.273-.153.41-.235.81-.483,1.2-.746.064-.044.125-.09.188-.135q.525-.367,1.013-.768c.059-.049.121-.1.179-.145.35-.3.683-.6,1-.921.07-.069.137-.14.205-.21.32-.331.629-.668.915-1.021l0,0,0,0,.017-.024a14.732,14.732,0,0,0,.923-1.285c.094-.148.173-.3.262-.455.182-.309.361-.619.517-.939.025-.051.058-.1.082-.149.083-.174.143-.357.218-.534.093-.222.191-.442.272-.669s.152-.483.224-.726.14-.462.2-.7c.012-.054.032-.105.044-.159.055-.254.086-.514.126-.773.024-.155.057-.308.076-.464A12.6,12.6,0,0,0,328.416,264.788Z" fill="#33a22c"/>
    <path id="Path_559" data-name="Path 559" d="M328.416,269.876v-5.1a12.588,12.588,0,0,1-.087,1.446c-.019.157-.052.309-.076.465-.048.313-.1.624-.17.931-.055.235-.128.465-.2.7s-.139.488-.224.726-.179.447-.272.669-.19.46-.3.683c-.156.321-.335.631-.517.939-.089.151-.168.307-.262.455a14.754,14.754,0,0,1-.926,1.289l-.016.022,0,0c-.285.353-.593.69-.913,1.02-.068.07-.135.141-.205.211-.319.317-.653.626-1,.92-.059.05-.121.1-.181.146q-.489.4-1.012.767c-.063.045-.124.092-.188.135-.385.263-.785.511-1.2.747l-.273.152c-.427.235-.861.461-1.312.665l-.005,0c-.449.2-.914.386-1.386.558-.1.036-.2.074-.3.109-.466.161-.941.308-1.427.436-.081.022-.164.039-.245.06q-.674.168-1.366.293c-.084.015-.167.033-.252.047-.506.085-1.02.149-1.541.2-.114.01-.229.018-.344.027-.537.041-1.079.069-1.629.069H49.413c-9.846,0-17.829-6.667-17.829-14.887v5.1c0,8.22,7.983,14.887,17.829,14.887H310.587c.55,0,1.092-.028,1.629-.069.115-.009.23-.017.344-.027.521-.048,1.035-.112,1.541-.2.085-.014.168-.032.252-.047q.693-.125,1.366-.293c.081-.021.164-.038.245-.06.486-.128.961-.275,1.427-.436.1-.035.2-.073.3-.109.472-.172.937-.354,1.386-.558l.005,0c.451-.2.885-.43,1.312-.665l.273-.152c.41-.236.81-.484,1.2-.747.064-.043.125-.09.188-.135q.525-.367,1.013-.768c.059-.048.121-.095.179-.145.35-.294.683-.6,1-.921.07-.069.137-.14.205-.21.32-.33.629-.668.915-1.021l0,0,0,0,.017-.023a14.891,14.891,0,0,0,.923-1.286c.094-.148.173-.3.262-.455.182-.309.361-.618.517-.939.025-.051.058-.1.082-.149.083-.174.143-.357.218-.534.093-.222.191-.442.272-.669s.152-.483.224-.726.14-.462.2-.7c.012-.054.032-.1.044-.159.055-.254.086-.514.126-.772.024-.156.057-.308.076-.465A12.587,12.587,0,0,0,328.416,269.876Z" fill="#037345"/>
    <path id="Path_560" data-name="Path 560" d="M310.758,214.966v35.455c0,5.489-5.291,9.939-11.814,9.939H138.9c-6.524,0-11.814-4.45-11.814-9.939V214.966c0-5.488,5.29-9.939,11.814-9.939H298.944C305.467,205.027,310.758,209.478,310.758,214.966Z" fill="#2fa229"/>
    <path id="Path_561" data-name="Path 561" d="M310.758,219.826v30.6c0,5.489-5.291,9.939-11.814,9.939H138.9c-6.524,0-11.814-4.45-11.814-9.939v-30.6c0-5.488,5.29-9.939,11.814-9.939H298.944C305.467,209.887,310.758,214.338,310.758,219.826Z" fill="#a1d348"/>
    <path id="Path_562" data-name="Path 562" d="M49.413,269.557c-6.541,0-11.862-4.427-11.862-9.867V209.917a4.7,4.7,0,0,1,1.8-3.62l10.706-8.947a6.856,6.856,0,0,1,4.4-1.516H310.587c6.541,0,11.862,4.427,11.862,9.868V259.69c0,5.44-5.321,9.867-11.862,9.867Z" fill="none" stroke="#97db42" stroke-miterlimit="10" stroke-width="1.5"/>
    <path id="Path_563" data-name="Path 563" d="M115.973,214.865V250.53c0,5.43-5.271,9.83-11.775,9.83H60.611c-6.5,0-11.775-4.4-11.775-9.83V217.651a6.2,6.2,0,0,1,2.357-4.752l7.061-5.906a8.956,8.956,0,0,1,5.688-1.966H104.2C110.7,205.027,115.973,209.436,115.973,214.865Z" fill="#2fa229"/>
    <path id="Path_564" data-name="Path 564" d="M115.973,219.718V250.53c0,5.43-5.271,9.83-11.775,9.83H60.611c-6.5,0-11.775-4.4-11.775-9.83V222.5a6.185,6.185,0,0,1,2.357-4.744l7.061-5.907a8.911,8.911,0,0,1,5.688-1.966H104.2C110.7,209.887,115.973,214.288,115.973,219.718Z" fill="#a1d348"/>
    <path id="Path_565" data-name="Path 565" d="M37.551,265.124" fill="none" stroke="#acc8df" stroke-miterlimit="10" stroke-width="1.824"/>
  </g>
</svg>
