<svg xmlns="http://www.w3.org/2000/svg" width="296.832" height="93.892" viewBox="0 0 296.832 93.892">
  <g id="Group_509" data-name="Group 509" transform="translate(-31.742 -232.769)">
    <path id="Path_712" data-name="Path 712" d="M781.843,232.769c9.845,0,17.828,6.666,17.828,14.887v53.988c0,8.221-7.983,14.887-17.828,14.887H520.668c-9.845,0-17.829-6.666-17.829-14.887V251.871a9.376,9.376,0,0,1,3.571-7.189l10.7-8.939a13.5,13.5,0,0,1,8.61-2.974Z" transform="translate(-471.097)" fill="#f9c"/>
    <path id="Path_713" data-name="Path 713" d="M799.671,306.742v-5.1a12.588,12.588,0,0,1-.087,1.446c-.018.157-.052.31-.076.465-.048.313-.1.625-.17.931-.054.236-.127.466-.2.7s-.138.488-.223.726-.179.448-.273.67-.19.459-.3.683c-.157.32-.336.63-.518.939-.089.15-.167.306-.262.454a14.572,14.572,0,0,1-.926,1.29l-.015.021,0,.005c-.285.352-.594.689-.913,1.019-.068.071-.136.142-.206.211-.319.318-.652.626-1,.92-.059.05-.121.1-.181.146q-.488.4-1.011.768c-.063.044-.125.091-.189.135-.385.263-.784.51-1.195.746-.09.052-.182.1-.273.152-.426.235-.861.461-1.312.666l0,0c-.45.2-.915.385-1.386.557-.1.037-.2.074-.3.109-.467.161-.942.308-1.427.437-.081.021-.164.039-.246.059q-.672.169-1.366.293c-.084.016-.167.033-.252.048-.505.084-1.02.148-1.54.2-.114.011-.229.019-.344.027-.537.041-1.079.069-1.629.069H520.668c-9.845,0-17.829-6.666-17.829-14.887v5.1c0,8.221,7.984,14.887,17.829,14.887H781.843c.55,0,1.091-.028,1.629-.069.115-.008.23-.017.344-.027.52-.048,1.035-.112,1.54-.2.085-.015.168-.032.252-.048q.693-.125,1.366-.293c.082-.02.165-.038.246-.06.485-.128.96-.275,1.427-.436.1-.035.2-.072.3-.109.472-.172.936-.354,1.386-.558l0,0c.451-.2.886-.43,1.312-.665.092-.05.183-.1.273-.152.411-.236.81-.483,1.195-.746.064-.044.125-.091.189-.135q.523-.369,1.012-.769c.06-.048.121-.1.18-.144q.525-.443,1-.921c.07-.07.137-.14.206-.211.319-.33.628-.668.914-1.021l0,0h0l.017-.024a14.476,14.476,0,0,0,.923-1.286c.1-.148.173-.3.263-.455.182-.308.36-.618.517-.938.025-.051.058-.1.082-.15.082-.174.143-.357.217-.534.094-.222.191-.442.273-.669s.152-.483.223-.726.14-.461.2-.7c.013-.054.033-.105.045-.159.055-.253.086-.514.125-.772.024-.155.058-.308.076-.465A12.587,12.587,0,0,0,799.671,306.742Z" transform="translate(-471.097)" fill="#ef6eb8"/>
    <path id="Path_714" data-name="Path 714" d="M520.668,311.511c-6.541,0-11.861-4.426-11.861-9.867V251.871a4.7,4.7,0,0,1,1.8-3.62l10.706-8.946a6.858,6.858,0,0,1,4.405-1.516H781.843c6.541,0,11.861,4.426,11.861,9.867v53.988c0,5.441-5.32,9.867-11.861,9.867Z" transform="translate(-471.097)" fill="none" stroke="#ef6eb8" stroke-miterlimit="10" stroke-width="1.5"/>
    <g id="Group_378" data-name="Group 378" transform="translate(-471.097)">
      <path id="Path_715" data-name="Path 715" d="M578.394,273.034a2.341,2.341,0,0,0-.026-.3c-.006-.042-.02-.082-.029-.124s-.017-.078-.027-.118-.014-.072-.025-.107c-.02-.063-.053-.124-.078-.187s-.056-.147-.092-.219c-.011-.022-.016-.046-.028-.068-.046-.087-.1-.171-.158-.257-.024-.038-.044-.076-.069-.114a5.182,5.182,0,0,0-.334-.429c-.028-.032-.06-.063-.089-.094-.1-.11-.2-.218-.312-.325-.05-.049-.1-.1-.156-.146-.1-.089-.2-.179-.3-.267l-.176-.149c-.107-.088-.217-.177-.329-.265-.057-.044-.113-.09-.171-.134q-.2-.153-.4-.3l-.109-.082c-.192-.142-.386-.282-.579-.423-.147-.106-.293-.213-.438-.319l-.188-.14c-.114-.085-.227-.171-.339-.256l-.188-.146c-.11-.086-.216-.173-.321-.26-.055-.045-.111-.09-.164-.136q-.2-.168-.374-.337l-.064-.059c-.137-.132-.262-.266-.379-.4-.034-.039-.062-.078-.094-.117-.079-.1-.155-.2-.222-.3-.034-.05-.064-.1-.094-.151a2.98,2.98,0,0,1-.2-.372,3.376,3.376,0,0,1-.2-.747c0-.017-.008-.033-.011-.05a5.73,5.73,0,0,1-.062-.876v3.488c0,.037,0,.075,0,.112a5.58,5.58,0,0,0,.058.748l0,.016c0,.017.008.032.011.049a3.68,3.68,0,0,0,.1.463,2.669,2.669,0,0,0,.1.285c.031.075.067.15.106.224.027.05.062.1.092.148s.06.1.094.151c.068.1.143.2.222.3.032.039.06.079.094.118.117.135.242.268.378.4l.068.063c.119.112.242.223.371.334.053.046.11.091.165.137.1.086.211.173.321.259.061.048.122.1.185.144.114.087.229.174.346.261l.179.133.444.324c.194.141.388.282.58.424l.095.072q.212.156.417.314l.168.132q.168.132.33.266l.176.149c.1.088.2.178.3.267.053.049.106.1.156.145.11.108.213.216.312.325.029.032.061.063.089.1a4.966,4.966,0,0,1,.333.429c.026.038.046.077.071.115a3.408,3.408,0,0,1,.185.324c.036.072.063.146.092.219a2.624,2.624,0,0,1,.1.294c.01.039.019.078.027.118a2.278,2.278,0,0,1,.055.468v-3.529Z" fill="#eb50a9"/>
      <path id="Path_716" data-name="Path 716" d="M533.976,268.944c-.38.277-.761.554-1.125.836a6.822,6.822,0,0,0-2.089,2.263,2.426,2.426,0,0,0-.239,1.032v3.488c0-2.882,5.508-4.642,6.552-7.147a4.344,4.344,0,0,0,.279-1.679v-3.488a4.341,4.341,0,0,1-.279,1.679C536.618,267.024,535.307,267.977,533.976,268.944Z" fill="#eb50a9"/>
      <path id="Path_717" data-name="Path 717" d="M571.976,260.8c.011.035.015.074.025.109a4.11,4.11,0,0,1,.093.475c.019.14.026.288.034.435.005.113.018.221.018.338v-3.487c0-.038,0-.076,0-.113,0-.079-.013-.149-.017-.226-.008-.147-.015-.295-.034-.435,0-.025,0-.054-.006-.079a3.748,3.748,0,0,0-.088-.4c-.009-.035-.013-.074-.024-.109l0-.019a2.7,2.7,0,0,0-.194-.479c-.005-.008-.013-.014-.018-.023a2.041,2.041,0,0,0-.89-.883c-.008,0-.014-.012-.022-.016a2.819,2.819,0,0,0-.47-.191l-.026,0c-.043-.013-.09-.019-.133-.03a3.455,3.455,0,0,0-.364-.082c-.028,0-.059,0-.087-.007-.125-.017-.256-.024-.387-.032-.081-.005-.157-.018-.24-.02h-.152a11.215,11.215,0,0,0-1.145.071c-.027,0-.05,0-.077.005l-.066.009c-.506.057-1.026.135-1.547.211-.495.073-.99.145-1.472.2a12.227,12.227,0,0,1-1.345.088,5.915,5.915,0,0,1-.836-.057c-.019,0-.04,0-.059,0a3.4,3.4,0,0,1-.779-.208,3.017,3.017,0,0,1-.38-.2c-.052-.031-.1-.062-.154-.1-.1-.066-.2-.139-.291-.216-.042-.034-.084-.064-.125-.1-.136-.116-.271-.24-.4-.376l-.025-.027c-.126-.129-.25-.266-.374-.409-.045-.051-.089-.1-.133-.158-.089-.1-.177-.212-.265-.323-.05-.061-.1-.124-.148-.187-.086-.111-.172-.222-.258-.336l-.141-.187-.29-.39c-.153-.207-.306-.414-.459-.619l-.073-.1q-.157-.208-.316-.411c-.044-.057-.088-.112-.133-.167-.088-.111-.177-.219-.267-.326-.05-.059-.1-.118-.15-.175-.09-.1-.18-.2-.271-.3-.048-.05-.095-.1-.143-.15-.114-.117-.23-.226-.348-.33-.024-.022-.048-.047-.073-.068a4.9,4.9,0,0,0-.429-.329c-.042-.029-.084-.051-.126-.077-.079-.05-.157-.1-.237-.145-.025-.013-.051-.02-.076-.032-.074-.036-.15-.065-.225-.094-.059-.024-.117-.056-.178-.075-.038-.012-.078-.017-.117-.027s-.08-.02-.12-.028-.077-.021-.116-.028a2.541,2.541,0,0,0-.3-.027h-.051a2.467,2.467,0,0,0-.259.014c-.075.009-.147.026-.22.041-.025.005-.052.008-.077.015l-.04.007a2.769,2.769,0,0,0-.431.153l-.008,0c-.022.01-.044.026-.066.036a3.677,3.677,0,0,0-.394.222c-.052.034-.1.075-.155.112-.1.07-.194.141-.289.221-.058.048-.114.1-.171.15-.088.08-.176.163-.263.25-.057.056-.113.114-.169.173-.086.092-.171.185-.256.282l-.161.185c-.089.106-.178.215-.266.325l-.138.172c-.107.137-.213.276-.32.417-.025.034-.051.067-.076.1-.152.2-.3.406-.452.61l-.316.426c-.046.062-.093.123-.14.185-.086.115-.173.228-.26.34-.051.066-.1.13-.154.194-.082.1-.164.2-.247.3-.054.064-.107.127-.161.189-.083.1-.166.185-.25.274-.053.056-.106.113-.159.166-.091.092-.183.176-.276.258-.046.042-.092.086-.139.125a4.1,4.1,0,0,1-.405.3l-.019.013a3,3,0,0,1-.463.246,3.191,3.191,0,0,1-.485.143c-.141.032-.292.055-.447.076-.1.013-.188.031-.292.041-.144.009-.3.009-.45.009-.331,0-.685-.034-1.039-.068-.134-.012-.26-.014-.4-.03-.453-.053-.917-.12-1.382-.189-.416-.061-.83-.121-1.237-.173l-.15-.02c-.4-.048-.788-.08-1.163-.092-.037,0-.079-.009-.116-.01h-.169a6.043,6.043,0,0,0-.67.034l-.019,0c-.047.005-.09.017-.137.024a4.122,4.122,0,0,0-.415.073c-.021.005-.039.015-.059.02-.056.016-.108.037-.163.055-.085.028-.173.051-.253.086-.046.021-.087.049-.131.072s-.085.044-.126.068a2.191,2.191,0,0,0-.43.319,3.248,3.248,0,0,0-.759,2.39v3.487a3.247,3.247,0,0,1,.759-2.389,2.189,2.189,0,0,1,.43-.319q.062-.036.126-.069a2.831,2.831,0,0,1,.384-.157c.055-.018.107-.04.163-.055a3.875,3.875,0,0,1,.475-.093c.046-.007.089-.019.136-.024a6.133,6.133,0,0,1,.689-.038c.092,0,.19.008.285.011.375.013.763.045,1.164.093l.142.019c.41.052.826.113,1.244.174.465.068.928.136,1.382.189.137.016.264.018.4.03.289.028.582.06.857.066l.179,0c.153,0,.306,0,.45-.009l.122-.013c.062-.006.112-.021.171-.029.154-.02.307-.044.446-.076.03-.006.067-.008.1-.016a3,3,0,0,0,.389-.126l.058-.025a2.973,2.973,0,0,0,.405-.221l.023-.016a4.318,4.318,0,0,0,.4-.3c.047-.039.094-.084.141-.127.092-.082.183-.165.274-.256.053-.054.107-.111.16-.167.083-.089.166-.178.248-.272.055-.063.109-.126.163-.191.082-.1.163-.2.245-.3.052-.066.1-.131.156-.2.085-.109.171-.221.256-.333.048-.065.1-.128.145-.193.11-.147.219-.295.329-.443q.217-.3.437-.59l.078-.1q.158-.208.317-.413c.047-.06.094-.117.141-.176.088-.109.175-.217.264-.322.053-.063.108-.124.162-.186.084-.1.169-.19.255-.28.056-.06.113-.118.169-.175.087-.087.175-.169.263-.249.057-.051.113-.1.171-.15.094-.079.191-.151.287-.22.053-.038.105-.079.158-.114a3.6,3.6,0,0,1,.39-.219c.023-.011.046-.027.07-.038a2.706,2.706,0,0,1,.478-.165c.026-.006.052-.009.078-.014a2.093,2.093,0,0,1,.949,0c.04.009.08.018.12.029a2.634,2.634,0,0,1,.295.1c.075.03.151.058.225.1a3.373,3.373,0,0,1,.313.177c.042.026.084.048.126.077a4.91,4.91,0,0,1,.43.329c.023.021.046.044.07.065.118.105.235.215.35.332.048.049.1.1.143.151.091.1.181.2.271.3.05.058.1.117.151.177.089.1.177.213.265.323.045.056.09.112.135.17.1.132.207.267.309.4.027.036.054.07.08.106q.224.3.445.6l.3.408.141.187q.129.17.258.336c.049.063.1.125.148.187.088.111.176.218.265.323.044.053.088.107.133.158.124.142.248.28.374.409l.025.027q.2.2.4.376c.041.036.083.066.125.1.1.077.193.15.291.216.051.034.1.065.154.1s.091.061.137.086c.08.042.161.081.243.115a2.63,2.63,0,0,0,.254.09,3.6,3.6,0,0,0,.518.117h.007c.019,0,.04,0,.059,0a5.391,5.391,0,0,0,.675.055l.161,0a11.96,11.96,0,0,0,1.293-.081l.051-.007c.483-.054.977-.126,1.473-.2.521-.077,1.041-.154,1.547-.211l.143-.014a11.219,11.219,0,0,1,1.145-.072c.135,0,.261.014.391.022s.263.015.388.032a4.009,4.009,0,0,1,.452.089c.043.011.09.017.132.029a2.761,2.761,0,0,1,.518.213,2.175,2.175,0,0,1,.513.37,2.148,2.148,0,0,1,.377.513A2.619,2.619,0,0,1,571.976,260.8Z" fill="#eb50a9"/>
    </g>
    <g id="Group_379" data-name="Group 379" transform="translate(-471.097)">
      <path id="Path_718" data-name="Path 718" d="M554.463,252.816c2.889,0,4.671,5.458,7.2,6.509a4.439,4.439,0,0,0,1.674.269,20.217,20.217,0,0,0,2.817-.287,20.527,20.527,0,0,1,2.835-.3,3.3,3.3,0,0,1,2.394.755c1.971,1.957-.63,7.065.459,9.651,1.044,2.505,6.552,4.265,6.552,7.147s-5.508,4.641-6.552,7.137c-1.089,2.6,1.512,7.7-.459,9.652a3.3,3.3,0,0,1-2.412.763,18.872,18.872,0,0,1-2.817-.3,20.34,20.34,0,0,0-2.826-.287,4.391,4.391,0,0,0-1.665.269c-2.529,1.033-4.311,6.51-7.2,6.51-2.907,0-4.68-5.477-7.2-6.51a4.064,4.064,0,0,0-1.188-.26c-.171-.009-.315-.009-.459-.009a20.587,20.587,0,0,0-2.844.287,19.109,19.109,0,0,1-2.826.3,3.3,3.3,0,0,1-2.412-.763c-1.962-1.949.63-7.057-.459-9.652-1.044-2.5-6.552-4.264-6.552-7.137s5.508-4.642,6.552-7.147c1.089-2.586-1.5-7.694.459-9.651a3.309,3.309,0,0,1,2.4-.755,20.525,20.525,0,0,1,2.835.3,20.219,20.219,0,0,0,2.817.287c.153,0,.306,0,.45-.009a4.317,4.317,0,0,0,1.224-.26C549.783,258.274,551.556,252.816,554.463,252.816Z" fill="#ffbe2e"/>
    </g>
    <circle id="Ellipse_8" data-name="Ellipse 8" cx="13.553" cy="13.553" r="13.553" transform="translate(69.81 263.009)" fill="#fd5"/>
    <g id="Group_380" data-name="Group 380" transform="translate(-471.097)">
      <path id="Path_719" data-name="Path 719" d="M554.461,269.781a.88.88,0,0,1,.8.5l1.514,3.042a.885.885,0,0,0,.67.485l3.382.487a.887.887,0,0,1,.5,1.514l-2.448,2.369a.887.887,0,0,0-.255.785l.576,3.346a.892.892,0,0,1-1.3.936l-3.024-1.581a.9.9,0,0,0-.829,0l-3.024,1.581a.892.892,0,0,1-1.3-.936l.576-3.346a.881.881,0,0,0-.255-.785L547.6,275.8a.887.887,0,0,1,.5-1.514l3.382-.487a.9.9,0,0,0,.673-.485l1.51-3.042A.886.886,0,0,1,554.461,269.781Z" fill="#fc821e"/>
    </g>
    <rect id="Rectangle_213" data-name="Rectangle 213" width="47.871" height="19.914" rx="9.957" transform="translate(249.178 264.693)" fill="#ffaed7"/>
    <path id="Path_722" data-name="Path 722" d="M799.671,311.774v-5.1a12.588,12.588,0,0,1-.087,1.446c-.018.157-.052.31-.076.465-.048.313-.1.625-.17.931-.054.236-.127.466-.2.7s-.138.487-.223.726-.179.447-.273.669-.19.459-.3.683c-.157.32-.336.63-.518.939-.089.151-.167.307-.262.455a14.549,14.549,0,0,1-.926,1.289l-.015.021,0,.005c-.285.352-.594.69-.913,1.019-.068.071-.136.142-.206.211q-.479.477-1,.921c-.059.049-.121.1-.181.146q-.488.4-1.011.767c-.063.045-.125.091-.189.135q-.577.395-1.195.746c-.09.052-.182.1-.273.152-.426.236-.861.461-1.312.666l0,0c-.45.2-.915.386-1.386.557l-.3.11c-.467.161-.942.308-1.427.436-.081.021-.164.039-.246.059q-.672.17-1.366.294c-.084.015-.167.033-.252.047-.505.084-1.02.148-1.54.2-.114.011-.229.019-.344.028-.537.04-1.079.068-1.629.068H520.668c-9.845,0-17.829-6.666-17.829-14.887v5.1c0,8.221,7.984,14.887,17.829,14.887H781.843c.55,0,1.091-.028,1.629-.069.115-.008.23-.016.344-.027.52-.048,1.035-.112,1.54-.2.085-.014.168-.032.252-.047q.693-.124,1.366-.294c.082-.02.165-.038.246-.059q.728-.193,1.427-.436l.3-.11c.472-.171.936-.354,1.386-.557l0,0c.451-.205.886-.431,1.312-.666.092-.05.183-.1.273-.152.411-.236.81-.483,1.195-.746.064-.044.125-.09.189-.135.349-.245.687-.5,1.012-.768.06-.049.121-.1.18-.145q.525-.443,1-.921c.07-.069.137-.14.206-.211.319-.33.628-.668.914-1.02l0,0h0l.017-.024a14.615,14.615,0,0,0,.923-1.285c.1-.149.173-.3.263-.456.182-.308.36-.618.517-.938.025-.051.058-.1.082-.149.082-.174.143-.357.217-.535.094-.222.191-.442.273-.669s.152-.482.223-.726.14-.461.2-.7c.013-.053.033-.105.045-.159.055-.253.086-.514.125-.772.024-.155.058-.308.076-.465A12.588,12.588,0,0,0,799.671,311.774Z" transform="translate(-471.097)" fill="#eb50a9"/>
  </g>
</svg>
