<svg xmlns="http://www.w3.org/2000/svg" width="298.484" height="94.426" viewBox="0 0 298.484 94.426">
  <g id="Group_519" data-name="Group 519" transform="translate(-30.758 -613.64)">
    <path id="Path_501" data-name="Path 501" d="M311.315,613.64c9.9,0,17.927,6.7,17.927,14.97V682.9c0,8.266-8.027,14.97-17.927,14.97H48.685c-9.9,0-17.927-6.7-17.927-14.97v-50.05a9.431,9.431,0,0,1,3.59-7.23L45.1,616.631a13.572,13.572,0,0,1,8.659-2.991Z" fill="#80c514"/>
    <line id="Line_6" data-name="Line 6" x2="11.348" transform="translate(36.758 658.196)" fill="none" stroke="#97db42" stroke-miterlimit="10" stroke-width="1.5"/>
    <line id="Line_7" data-name="Line 7" x2="11.348" transform="translate(115.616 658.196)" fill="none" stroke="#97db42" stroke-miterlimit="10" stroke-width="1.5"/>
    <line id="Line_8" data-name="Line 8" y2="9.244" transform="translate(219.136 618.688)" fill="none" stroke="#97db42" stroke-miterlimit="10" stroke-width="1.5"/>
    <line id="Line_9" data-name="Line 9" y2="9.244" transform="translate(219.136 683.573)" fill="none" stroke="#97db42" stroke-miterlimit="10" stroke-width="1.5"/>
    <path id="Path_502" data-name="Path 502" d="M329.242,688.025V682.9a12.728,12.728,0,0,1-.087,1.454c-.019.158-.053.311-.077.468-.048.314-.1.628-.171.936-.055.237-.128.468-.2.7s-.139.49-.225.73-.18.45-.274.673-.191.462-.3.687c-.157.322-.337.634-.52.944-.089.152-.168.308-.264.457a14.556,14.556,0,0,1-.93,1.3l-.016.021,0,0c-.287.354-.6.693-.918,1.025-.069.071-.137.142-.207.212q-.482.48-1.008.926c-.059.05-.121.1-.182.146q-.49.4-1.016.772c-.064.045-.126.092-.19.136-.387.264-.789.513-1.2.75-.091.052-.183.1-.274.153-.429.237-.866.464-1.32.669l0,0c-.452.205-.92.388-1.394.561-.1.037-.2.074-.306.11-.469.162-.946.31-1.435.438-.081.022-.165.04-.247.06q-.675.169-1.373.295c-.085.016-.168.034-.253.048-.509.085-1.026.149-1.549.2-.115.011-.231.019-.346.028-.541.041-1.086.069-1.638.069H48.685c-9.9,0-17.927-6.7-17.927-14.97v5.126c0,8.267,8.027,14.97,17.927,14.97h262.63c.552,0,1.1-.028,1.638-.069.115-.009.231-.017.346-.028.523-.048,1.04-.112,1.549-.2.085-.014.168-.032.253-.047q.7-.126,1.373-.295c.082-.021.166-.039.247-.06.489-.129.966-.277,1.435-.439.1-.035.2-.073.306-.11.474-.172.942-.355,1.394-.56l0,0c.454-.206.891-.433,1.32-.67.092-.05.183-.1.274-.152.413-.237.815-.487,1.2-.751.064-.044.126-.091.19-.136q.526-.369,1.017-.772c.06-.049.122-.1.181-.146.352-.3.687-.606,1.008-.926.07-.07.138-.141.207-.211.321-.333.632-.672.919-1.027l0,0v0l.017-.024a14.6,14.6,0,0,0,.928-1.292c.1-.149.175-.306.264-.458.183-.31.363-.622.52-.944.025-.051.059-.1.083-.15.083-.175.144-.359.219-.537.094-.223.192-.445.273-.673s.154-.485.225-.73.141-.464.2-.7c.013-.054.033-.1.045-.16.056-.255.086-.517.126-.776.024-.156.058-.31.077-.468A12.714,12.714,0,0,0,329.242,688.025Z" fill="#33a22c"/>
    <path id="Path_503" data-name="Path 503" d="M329.242,693.1V687.97a12.728,12.728,0,0,1-.087,1.454c-.019.158-.053.311-.077.467-.048.315-.1.629-.171.937-.055.237-.128.468-.2.7s-.139.49-.225.73-.18.45-.274.673-.191.462-.3.687c-.157.322-.337.633-.52.944-.089.152-.168.308-.264.457a14.565,14.565,0,0,1-.93,1.3l-.016.021,0,.005c-.287.354-.6.693-.918,1.025-.069.071-.137.142-.207.212q-.482.48-1.008.926c-.059.05-.121.1-.182.146q-.49.4-1.016.772c-.064.045-.126.092-.19.136-.387.264-.789.513-1.2.75-.091.052-.183.1-.274.153-.429.237-.866.464-1.32.669l0,0c-.452.205-.92.388-1.394.561-.1.037-.2.074-.306.11-.469.162-.946.309-1.435.438-.081.022-.165.04-.247.06q-.675.17-1.373.3c-.085.015-.168.033-.253.048-.509.085-1.026.149-1.549.2-.115.011-.231.019-.346.028-.541.041-1.086.069-1.638.069H48.685c-9.9,0-17.927-6.7-17.927-14.97V693.1c0,8.267,8.027,14.97,17.927,14.97h262.63c.552,0,1.1-.028,1.638-.069.115-.009.231-.017.346-.028.523-.048,1.04-.112,1.549-.2.085-.014.168-.032.253-.047q.7-.126,1.373-.295c.082-.021.166-.039.247-.06.489-.129.966-.277,1.435-.439.1-.035.2-.073.306-.11.474-.172.942-.356,1.394-.56l0,0c.454-.206.891-.433,1.32-.67.092-.05.183-.1.274-.153.413-.237.815-.486,1.2-.75.064-.044.126-.091.19-.136q.526-.369,1.017-.772c.06-.049.122-.1.181-.146.352-.3.687-.606,1.008-.926.07-.07.138-.141.207-.212.321-.332.632-.671.919-1.026l0,0v0l.017-.024a14.614,14.614,0,0,0,.928-1.292c.1-.15.175-.306.264-.458.183-.311.363-.622.52-.944.025-.051.059-.1.083-.15.083-.175.144-.359.219-.537.094-.224.192-.445.273-.673s.154-.485.225-.73.141-.464.2-.7c.013-.054.033-.1.045-.16.056-.255.086-.517.126-.776.024-.157.058-.31.077-.468A12.728,12.728,0,0,0,329.242,693.1Z" fill="#037345"/>
    <path id="Path_504" data-name="Path 504" d="M48.686,692.821c-6.578,0-11.928-4.451-11.928-9.922v-50.05a4.72,4.72,0,0,1,1.808-3.64l10.766-9a6.894,6.894,0,0,1,4.43-1.525H311.315c6.577,0,11.927,4.451,11.927,9.923V682.9c0,5.471-5.35,9.922-11.927,9.922Z" fill="none" stroke="#97db42" stroke-miterlimit="10" stroke-width="1.5"/>
    <path id="Path_505" data-name="Path 505" d="M36.758,658.2" fill="none" stroke="#acc8df" stroke-miterlimit="10" stroke-width="1.834"/>
    <path id="Path_506" data-name="Path 506" d="M299.606,627.932H138.666c-6.56,0-11.88,4.475-11.88,9.994v35.653c0,5.519,5.32,9.994,11.88,9.994h160.94c6.56,0,11.88-4.475,11.88-9.994V637.926C311.486,632.407,306.166,627.932,299.606,627.932Z" fill="#2fa229"/>
    <path id="Path_507" data-name="Path 507" d="M103.776,627.932H63.3a9.013,9.013,0,0,0-5.72,1.976l-7.1,5.94a6.232,6.232,0,0,0-2.37,4.778v33.062c0,5.46,5.3,9.885,11.84,9.885h43.83c6.54,0,11.84-4.425,11.84-9.885V637.825C115.616,632.365,110.316,627.932,103.776,627.932Z" fill="#2fa229"/>
    <path id="Path_508" data-name="Path 508" d="M299.606,627.932H138.666c-6.56,0-11.88,4.475-11.88,9.994v35.653c0,5.519,5.32,9.994,11.88,9.994h160.94c6.56,0,11.88-4.475,11.88-9.994V637.926C311.486,632.407,306.166,627.932,299.606,627.932Z" fill="none" stroke="#97db42" stroke-miterlimit="10" stroke-width="1.5"/>
    <path id="Path_509" data-name="Path 509" d="M103.776,627.932H63.3a9.013,9.013,0,0,0-5.72,1.976l-7.1,5.94a6.232,6.232,0,0,0-2.37,4.778v33.062c0,5.46,5.3,9.885,11.84,9.885h43.83c6.54,0,11.84-4.425,11.84-9.885V637.825C115.616,632.365,110.316,627.932,103.776,627.932Z" fill="none" stroke="#97db42" stroke-miterlimit="10" stroke-width="1.5"/>
    <rect id="Rectangle_187" data-name="Rectangle 187" width="28.325" height="10.797" rx="5.398" transform="translate(274.359 635.86)" fill="#037345"/>
    <path id="Rectangle_188" data-name="Rectangle 188" d="M3.933,0H18.924a3.933,3.933,0,0,1,3.933,3.933v7.5A11.428,11.428,0,0,1,11.428,22.857h0A11.428,11.428,0,0,1,0,11.428v-7.5A3.933,3.933,0,0,1,3.933,0Z" transform="matrix(0.969, -0.247, 0.247, 0.969, 278.767, 655.743)" fill="#288465"/>
    <path id="Rectangle_189" data-name="Rectangle 189" d="M3.933,0H18.924a3.933,3.933,0,0,1,3.933,3.933v7.5A11.428,11.428,0,0,1,11.428,22.857h0A11.428,11.428,0,0,1,0,11.428v-7.5A3.933,3.933,0,0,1,3.933,0Z" transform="translate(278.36 654.147) rotate(-14.314)" fill="#b7f7ff"/>
    <path id="Path_510" data-name="Path 510" d="M299.771,653.372a2.724,2.724,0,0,1,.061.314,2.61,2.61,0,0,1-.152,1.264,2.134,2.134,0,0,1-.192.411,2.639,2.639,0,0,1-1.61,1.2l-13.348,3.406a2.624,2.624,0,0,1-3.1-1.6v-.006a2.619,2.619,0,0,1-.1-.292,2.613,2.613,0,0,1,1.892-3.2l13.348-3.406A2.629,2.629,0,0,1,299.771,653.372Z" fill="#379583"/>
    <path id="Path_511" data-name="Path 511" d="M294.987,662.814a2.757,2.757,0,0,1,.063.327,2.552,2.552,0,0,1-.677,2.043l.574,2.252a1.34,1.34,0,0,1-.153,1.027,1.355,1.355,0,0,1-2.476-.356l-.574-2.252a2.54,2.54,0,0,1-1.58-1.468,2.947,2.947,0,0,1-.1-.317,2.541,2.541,0,0,1,4.924-1.256Z" fill="#379583"/>
    <path id="Path_512" data-name="Path 512" d="M284.766,656.539l-1.437-5.631a5.814,5.814,0,0,1,4.195-7.069h0" fill="none" stroke="#fff" stroke-linecap="round" stroke-linejoin="round" stroke-width="2.778"/>
    <path id="Path_513" data-name="Path 513" d="M295.473,641.259a6.951,6.951,0,0,1-6.951,6.951h0a6.951,6.951,0,0,1-6.951-6.951" fill="none" stroke="#a8e25e" stroke-linecap="round" stroke-miterlimit="10" stroke-width="3"/>
    <path id="Path_514" data-name="Path 514" d="M287.524,643.839a5.814,5.814,0,0,1,7.069,4.2l1.436,5.632" fill="none" stroke="#fff" stroke-linecap="round" stroke-linejoin="round" stroke-width="2.778"/>
  </g>
</svg>
