<svg xmlns="http://www.w3.org/2000/svg" width="296.832" height="93.892" viewBox="0 0 296.832 93.892">
  <g id="Group_516" data-name="Group 516" transform="translate(509.319 -771.662)">
    <path id="Path_929" data-name="Path 929" d="M781.684,865.554c9.845,0,17.829,6.666,17.829,14.887v53.988c0,8.221-7.984,14.887-17.829,14.887H520.509c-9.845,0-17.828-6.666-17.828-14.887V884.656a9.376,9.376,0,0,1,3.571-7.189l10.7-8.939a13.5,13.5,0,0,1,8.61-2.974Z" transform="translate(-1012 -93.892)" fill="#7f5ce0"/>
    <path id="Path_930" data-name="Path 930" d="M799.513,939.527v-5.1a12.588,12.588,0,0,1-.088,1.446c-.018.157-.052.31-.075.465-.049.313-.1.625-.171.931-.054.236-.127.466-.194.7s-.139.488-.224.726-.179.447-.273.67-.19.459-.3.682c-.156.321-.335.631-.517.939-.089.151-.168.307-.263.455a14.759,14.759,0,0,1-.925,1.29l-.016.021,0,.005c-.285.352-.593.689-.913,1.019l-.205.211c-.32.318-.653.626-1,.92-.059.05-.122.1-.182.146q-.488.4-1.011.768c-.063.044-.124.091-.189.135-.384.263-.784.51-1.195.746-.09.052-.181.1-.272.152-.427.235-.861.461-1.312.665l-.005,0c-.45.2-.914.386-1.386.558-.1.037-.2.074-.3.109-.466.161-.942.308-1.427.436-.081.022-.164.04-.246.06q-.672.168-1.366.293c-.084.015-.167.033-.251.048-.506.084-1.02.148-1.541.2-.114.01-.229.019-.344.027-.537.041-1.079.069-1.629.069H520.509c-9.845,0-17.828-6.666-17.828-14.887v5.1c0,8.22,7.983,14.887,17.828,14.887H781.684c.55,0,1.092-.028,1.629-.069.115-.009.23-.017.344-.027.521-.048,1.035-.112,1.541-.2.084-.014.167-.032.251-.047q.695-.124,1.366-.293c.082-.021.165-.038.246-.06.486-.128.961-.275,1.427-.436.1-.035.2-.072.3-.109.472-.172.936-.354,1.386-.558l.005,0c.451-.2.885-.43,1.312-.665.091-.051.182-.1.272-.152.411-.236.811-.484,1.195-.746.065-.044.126-.091.189-.135q.523-.369,1.012-.769c.06-.048.122-.095.18-.144.35-.295.683-.6,1-.921l.205-.211c.32-.33.629-.668.914-1.021l0,0v0l.017-.023a14.484,14.484,0,0,0,.923-1.286c.1-.148.174-.3.263-.455.182-.309.36-.618.517-.938.025-.051.058-.1.082-.15.083-.174.143-.357.218-.534.093-.222.191-.442.272-.669s.152-.483.224-.726.14-.461.194-.7c.013-.054.033-.105.045-.159.055-.254.086-.514.126-.772.023-.156.057-.308.075-.465A12.588,12.588,0,0,0,799.513,939.527Z" transform="translate(-1012 -93.892)" fill="#523aa5"/>
    <path id="Path_924" data-name="Path 924" d="M799.513,944.559v-5.1a12.587,12.587,0,0,1-.088,1.446c-.018.157-.052.31-.075.465-.049.313-.1.625-.171.931-.054.236-.127.466-.194.7s-.139.488-.224.726-.179.448-.273.67-.19.459-.3.683c-.156.32-.335.63-.517.939-.089.151-.168.306-.263.455a14.754,14.754,0,0,1-.925,1.289l-.016.021,0,.005c-.285.352-.593.689-.913,1.019-.068.071-.136.142-.205.211q-.48.477-1,.921c-.059.049-.122.1-.182.146q-.488.4-1.011.767c-.063.044-.124.091-.189.135-.384.263-.784.511-1.195.746-.09.052-.181.1-.272.152-.427.235-.861.461-1.312.666l-.005,0c-.45.2-.914.386-1.386.557-.1.037-.2.074-.3.109q-.7.243-1.427.437c-.081.021-.164.039-.246.059-.448.113-.9.21-1.366.294-.084.015-.167.033-.251.047-.506.084-1.02.148-1.541.2-.114.011-.229.019-.344.027-.537.041-1.079.069-1.629.069H520.509c-9.845,0-17.828-6.666-17.828-14.887v5.1c0,8.221,7.983,14.887,17.828,14.887H781.684c.55,0,1.092-.028,1.629-.069.115-.008.23-.016.344-.027.521-.048,1.035-.112,1.541-.2.084-.014.167-.032.251-.047.463-.084.918-.181,1.366-.294.082-.02.165-.038.246-.059.486-.129.961-.276,1.427-.437.1-.035.2-.072.3-.109.472-.171.936-.354,1.386-.557l.005,0c.451-.205.885-.431,1.312-.666.091-.05.182-.1.272-.152.411-.236.811-.483,1.195-.746.065-.044.126-.09.189-.135.349-.245.687-.5,1.012-.768.06-.049.122-.1.18-.145.35-.295.683-.6,1-.921l.205-.211c.32-.33.629-.668.914-1.02l0,0h0l.017-.024a14.476,14.476,0,0,0,.923-1.286c.1-.148.174-.3.263-.455.182-.308.36-.618.517-.938.025-.051.058-.1.082-.149.083-.174.143-.357.218-.535.093-.222.191-.442.272-.669s.152-.482.224-.726.14-.461.194-.7c.013-.053.033-.1.045-.159.055-.253.086-.514.126-.772.023-.155.057-.308.075-.465A12.588,12.588,0,0,0,799.513,944.559Z" transform="translate(-1012 -93.892)" fill="#423099"/>
    <path id="Path_931" data-name="Path 931" d="M520.51,944.3c-6.541,0-11.862-4.426-11.862-9.867V884.656a4.7,4.7,0,0,1,1.8-3.62l10.706-8.946a6.861,6.861,0,0,1,4.406-1.517H781.684c6.541,0,11.862,4.427,11.862,9.868v53.988c0,5.441-5.321,9.867-11.862,9.867Z" transform="translate(-1012 -93.892)" fill="none" stroke="#523aa5" stroke-miterlimit="10" stroke-width="1.5"/>
    <g id="Group_512" data-name="Group 512" transform="translate(-1012 -93.892)">
      <g id="Group_393" data-name="Group 393">
        <path id="Path_765" data-name="Path 765" d="M578.235,905.819a2.177,2.177,0,0,0-.026-.3c-.006-.042-.02-.082-.029-.124s-.017-.079-.027-.118-.014-.072-.025-.107c-.02-.064-.053-.124-.078-.187s-.056-.147-.092-.219c-.011-.022-.016-.046-.028-.068-.046-.087-.1-.172-.157-.257-.024-.038-.045-.076-.07-.114a4.964,4.964,0,0,0-.334-.429c-.028-.032-.059-.063-.088-.1-.1-.109-.2-.218-.313-.324-.05-.049-.1-.1-.155-.146-.1-.09-.2-.179-.3-.267l-.176-.149c-.107-.089-.217-.177-.329-.265-.056-.045-.113-.09-.171-.134-.132-.1-.267-.2-.4-.3l-.11-.082c-.192-.142-.385-.282-.579-.423l-.437-.319-.188-.14c-.115-.085-.228-.171-.34-.257-.063-.048-.126-.1-.188-.145q-.164-.129-.321-.26c-.054-.045-.11-.09-.163-.136-.131-.112-.255-.224-.374-.337-.021-.02-.045-.04-.065-.06q-.2-.2-.379-.4c-.033-.039-.062-.078-.094-.117-.079-.1-.154-.2-.221-.3-.034-.05-.064-.1-.094-.151a2.846,2.846,0,0,1-.2-.372,3.375,3.375,0,0,1-.206-.747c0-.018-.008-.033-.011-.051a5.836,5.836,0,0,1-.061-.875v3.6a5.58,5.58,0,0,0,.058.748l0,.015c0,.018.009.033.011.05a3.682,3.682,0,0,0,.1.463,2.925,2.925,0,0,0,.1.285c.031.075.066.15.1.224.027.05.063.1.092.147s.061.1.1.152c.067.1.142.2.221.295.032.039.061.079.094.118.117.135.242.268.378.4l.069.063q.177.168.37.334c.054.046.11.091.165.137.1.086.211.173.321.259l.185.144q.171.13.347.261c.059.045.119.089.179.133l.443.324c.194.141.388.282.58.424l.1.072q.21.156.416.314l.168.132q.168.132.33.266l.176.149c.1.088.2.177.3.267.052.048.105.1.155.145.111.108.214.216.313.325.029.032.06.063.088.095a4.682,4.682,0,0,1,.334.429c.026.038.046.077.07.115a3.286,3.286,0,0,1,.185.324c.036.072.063.145.092.219a2.439,2.439,0,0,1,.1.294c.01.039.019.078.027.118a2.209,2.209,0,0,1,.056.468v-3.529Z" fill="#4b428e"/>
        <path id="Path_766" data-name="Path 766" d="M533.818,901.729c-.38.277-.762.554-1.126.836a6.823,6.823,0,0,0-2.089,2.263,2.423,2.423,0,0,0-.239,1.032v3.488c0-2.883,5.509-4.642,6.552-7.147a4.344,4.344,0,0,0,.279-1.679v-3.488a4.344,4.344,0,0,1-.279,1.679C536.46,899.809,535.148,900.762,533.818,901.729Z" fill="#4b428e"/>
        <path id="Path_767" data-name="Path 767" d="M571.818,893.584c.01.035.014.074.024.109a3.9,3.9,0,0,1,.094.475c.018.14.026.287.033.435.006.113.018.221.018.338v-3.6c0-.079-.014-.149-.018-.226-.007-.148-.015-.295-.033-.435,0-.025,0-.054-.007-.079a3.746,3.746,0,0,0-.087-.4c-.01-.035-.014-.074-.024-.109l-.005-.019a2.694,2.694,0,0,0-.194-.479c-.005-.008-.013-.015-.017-.023a2.175,2.175,0,0,0-.377-.513,2.2,2.2,0,0,0-.514-.37c-.008-.005-.014-.012-.022-.016a2.788,2.788,0,0,0-.47-.191l-.026-.006c-.042-.012-.089-.018-.133-.029a3.458,3.458,0,0,0-.364-.082c-.028-.005-.059,0-.087-.007-.125-.017-.256-.024-.387-.032-.081-.005-.157-.018-.24-.02h-.151a11.247,11.247,0,0,0-1.146.071c-.026,0-.05,0-.077,0s-.044.007-.066.009c-.505.057-1.025.134-1.546.211-.5.073-.99.145-1.473.2a12.227,12.227,0,0,1-1.345.088,6.068,6.068,0,0,1-.836-.057c-.019,0-.04,0-.059-.005a3.361,3.361,0,0,1-.779-.207,3.094,3.094,0,0,1-.38-.2c-.051-.031-.1-.062-.154-.1-.1-.066-.194-.139-.291-.216-.041-.034-.084-.064-.125-.1-.136-.116-.271-.241-.4-.376l-.026-.027c-.126-.129-.25-.266-.374-.409-.044-.051-.088-.105-.133-.158-.088-.1-.177-.212-.265-.323l-.148-.187c-.086-.111-.172-.222-.257-.336-.047-.062-.095-.124-.142-.187l-.289-.39q-.23-.311-.46-.62l-.073-.095c-.1-.139-.21-.276-.316-.412l-.132-.166q-.133-.167-.267-.326c-.05-.06-.1-.118-.151-.175-.089-.1-.18-.2-.271-.3-.047-.05-.094-.1-.142-.151-.115-.116-.231-.225-.348-.329-.025-.022-.049-.047-.073-.068a4.913,4.913,0,0,0-.43-.329c-.041-.029-.084-.051-.126-.077-.078-.05-.156-.1-.236-.145-.025-.013-.052-.02-.077-.032-.074-.036-.149-.065-.224-.094-.06-.024-.118-.056-.178-.075-.039-.012-.079-.017-.118-.028l-.12-.028c-.038-.008-.076-.021-.115-.027a2.218,2.218,0,0,0-.3-.027H554.3a2.459,2.459,0,0,0-.259.014c-.074.008-.147.026-.219.041-.026,0-.052.008-.078.015s-.027,0-.04.007a2.658,2.658,0,0,0-.43.153l-.008,0c-.023.01-.044.025-.067.036a3.668,3.668,0,0,0-.393.221c-.053.035-.1.076-.156.113-.1.07-.194.141-.289.221-.057.048-.114.1-.17.15-.089.08-.177.162-.264.25-.056.056-.113.114-.169.173-.086.091-.171.185-.255.281-.054.062-.108.122-.161.186-.09.106-.178.215-.267.325-.046.057-.092.113-.138.172q-.16.206-.319.417l-.077.1c-.151.2-.3.406-.452.61q-.158.215-.316.426l-.139.185c-.087.115-.174.228-.261.34-.051.066-.1.13-.154.194q-.123.154-.246.3-.081.1-.162.189c-.083.095-.166.185-.25.274-.053.056-.1.112-.158.166-.091.091-.184.175-.276.258-.047.041-.092.086-.139.125a4.231,4.231,0,0,1-.406.3l-.019.013a2.951,2.951,0,0,1-.463.246,3.126,3.126,0,0,1-.485.143c-.14.032-.292.055-.447.076-.1.013-.187.031-.291.041-.144.009-.3.009-.451.009-.33,0-.685-.034-1.039-.068-.133-.013-.259-.014-.4-.03-.454-.053-.918-.12-1.383-.189-.415-.061-.83-.121-1.237-.173l-.15-.02c-.4-.048-.788-.08-1.163-.092-.037,0-.078-.009-.116-.01h-.168a6.32,6.32,0,0,0-.671.033l-.018,0c-.048.005-.091.017-.138.024a4.1,4.1,0,0,0-.415.073c-.02.005-.038.014-.059.02-.056.015-.108.037-.163.055-.084.028-.173.051-.253.086-.046.02-.086.049-.131.072s-.085.044-.126.068a2.19,2.19,0,0,0-.43.319,3.251,3.251,0,0,0-.758,2.39v3.487a3.254,3.254,0,0,1,.758-2.39,2.225,2.225,0,0,1,.43-.318c.041-.025.084-.047.126-.069a2.673,2.673,0,0,1,.385-.157c.054-.018.106-.04.162-.055a3.875,3.875,0,0,1,.475-.093c.046-.007.089-.019.137-.025a6.356,6.356,0,0,1,.689-.037c.092,0,.19.008.284.011q.563.019,1.165.093l.141.019c.41.052.826.112,1.244.174.465.068.928.135,1.382.188.137.017.265.018.4.031.29.028.583.06.857.066l.179,0c.153,0,.307,0,.451-.009l.122-.013c.061-.006.111-.021.171-.029.154-.02.306-.044.445-.076.031-.006.067-.008.1-.016a3,3,0,0,0,.388-.126l.059-.025a2.973,2.973,0,0,0,.4-.221l.023-.016a4.19,4.19,0,0,0,.4-.3c.048-.039.094-.084.141-.127.092-.082.184-.165.274-.256.054-.054.107-.111.16-.168.083-.088.166-.177.248-.271.055-.063.109-.126.164-.191.081-.1.163-.2.244-.3.052-.065.1-.13.156-.2.086-.109.171-.221.256-.334l.146-.192c.109-.147.219-.295.328-.444.145-.2.291-.394.437-.589.026-.035.053-.068.079-.1q.157-.209.316-.413c.047-.06.095-.117.142-.176.087-.109.175-.217.263-.322q.081-.094.162-.186c.085-.1.169-.19.255-.281.056-.059.113-.117.17-.174.087-.087.174-.169.263-.249.056-.051.113-.1.17-.15.1-.079.191-.151.288-.221.052-.037.1-.078.157-.113a3.6,3.6,0,0,1,.39-.219c.024-.012.046-.027.07-.038a2.732,2.732,0,0,1,.478-.165c.026-.006.052-.009.078-.014a2.055,2.055,0,0,1,.949,0c.04.008.081.018.121.029a2.624,2.624,0,0,1,.294.1c.076.03.151.058.225.1a3.373,3.373,0,0,1,.313.177c.042.026.085.048.126.076a4.961,4.961,0,0,1,.43.33c.024.021.047.044.07.065.118.1.236.215.351.332.048.049.095.1.142.151.091.1.182.2.271.3.051.058.1.117.151.177q.133.157.265.323l.136.17c.1.132.206.267.308.4l.081.106c.148.2.3.4.444.6.1.137.2.273.3.408l.141.187q.128.169.257.336c.049.063.1.125.148.187.088.111.177.218.265.323l.133.158c.124.142.248.28.374.409l.026.027c.132.135.267.26.4.376.041.036.084.066.125.1.1.077.193.15.291.216.051.034.1.065.154.1s.091.061.138.086c.08.042.161.081.242.115s.167.064.254.09a3.616,3.616,0,0,0,.519.117h.006c.019,0,.04,0,.059.005a5.826,5.826,0,0,0,.675.055l.161,0a11.945,11.945,0,0,0,1.293-.081l.051-.007c.483-.054.978-.126,1.474-.2.521-.077,1.041-.154,1.546-.211.048-.006.1-.009.143-.014a11.257,11.257,0,0,1,1.146-.072c.135,0,.261.014.391.022s.262.014.387.032a3.929,3.929,0,0,1,.452.089c.043.011.09.017.132.029a2.735,2.735,0,0,1,.518.213,2.228,2.228,0,0,1,.514.369,2.2,2.2,0,0,1,.377.514A2.74,2.74,0,0,1,571.818,893.584Z" fill="#4b428e"/>
      </g>
    </g>
    <g id="Group_513" data-name="Group 513" transform="translate(-1012 -93.892)">
      <g id="Group_395" data-name="Group 395">
        <path id="Path_768" data-name="Path 768" d="M554.3,885.6c2.889,0,4.671,5.459,7.2,6.51a4.442,4.442,0,0,0,1.674.269,20.218,20.218,0,0,0,2.817-.287,20.531,20.531,0,0,1,2.835-.3,3.3,3.3,0,0,1,2.394.755c1.971,1.957-.63,7.065.459,9.651,1.044,2.505,6.552,4.265,6.552,7.147s-5.508,4.641-6.552,7.137c-1.089,2.6,1.512,7.7-.459,9.651a3.3,3.3,0,0,1-2.411.764,18.879,18.879,0,0,1-2.818-.3,20.341,20.341,0,0,0-2.826-.287,4.39,4.39,0,0,0-1.665.269c-2.529,1.033-4.311,6.51-7.2,6.51-2.907,0-4.68-5.477-7.2-6.51a4.064,4.064,0,0,0-1.188-.26c-.171-.009-.315-.009-.459-.009a20.588,20.588,0,0,0-2.844.287,19.118,19.118,0,0,1-2.826.3,3.3,3.3,0,0,1-2.412-.764c-1.962-1.948.63-7.056-.459-9.651-1.044-2.5-6.552-4.265-6.552-7.137s5.508-4.642,6.552-7.147c1.089-2.586-1.5-7.694.459-9.651a3.309,3.309,0,0,1,2.4-.755,20.53,20.53,0,0,1,2.835.3,20.234,20.234,0,0,0,2.817.287c.154,0,.306,0,.45-.009a4.351,4.351,0,0,0,1.224-.26C549.624,891.059,551.4,885.6,554.3,885.6Z" fill="#ad85f9"/>
      </g>
    </g>
    <circle id="Ellipse_22" data-name="Ellipse 22" cx="13.553" cy="13.553" r="13.553" transform="translate(-471.251 801.902)" fill="#9272f7"/>
    <rect id="Rectangle_245" data-name="Rectangle 245" width="47.871" height="19.914" rx="9.957" transform="translate(-291.884 803.586)" fill="#ad85f9"/>
  </g>
</svg>
