<svg xmlns="http://www.w3.org/2000/svg" width="296.832" height="93.892" viewBox="0 0 296.832 93.892">
  <g id="Group_517" data-name="Group 517" transform="translate(509.319 -666.211)">
    <path id="Path_925" data-name="Path 925" d="M781.684,760.1c9.845,0,17.829,6.666,17.829,14.887v53.988c0,8.221-7.984,14.887-17.829,14.887H520.509c-9.845,0-17.828-6.666-17.828-14.887V779.205a9.376,9.376,0,0,1,3.571-7.189l10.7-8.938a13.492,13.492,0,0,1,8.61-2.975Z" transform="translate(-1012 -93.892)" fill="#9d81f2"/>
    <path id="Path_926" data-name="Path 926" d="M799.513,834.076v-5.1a12.588,12.588,0,0,1-.088,1.446c-.018.157-.052.31-.075.465-.049.313-.1.625-.171.931-.054.236-.127.466-.194.7s-.139.487-.224.726-.179.447-.273.669-.19.459-.3.683c-.156.32-.335.63-.517.939-.089.151-.168.307-.263.455a14.744,14.744,0,0,1-.925,1.289l-.016.021,0,.005c-.285.352-.593.69-.913,1.019-.068.071-.136.142-.205.211q-.48.477-1,.921c-.059.049-.122.1-.182.146q-.488.4-1.011.767c-.063.044-.124.091-.189.135-.384.263-.784.511-1.195.746-.09.052-.181.1-.272.152-.427.235-.861.461-1.312.666l-.005,0c-.45.2-.914.386-1.386.557l-.3.11c-.466.161-.942.308-1.427.436-.081.021-.164.039-.246.059q-.672.169-1.366.294c-.084.015-.167.033-.251.047-.506.084-1.02.148-1.541.2-.114.011-.229.019-.344.028-.537.04-1.079.068-1.629.068H520.509c-9.845,0-17.828-6.666-17.828-14.887v5.1c0,8.221,7.983,14.887,17.828,14.887H781.684c.55,0,1.092-.028,1.629-.069.115-.008.23-.016.344-.027.521-.048,1.035-.112,1.541-.2.084-.014.167-.032.251-.047.463-.084.918-.181,1.366-.294.082-.02.165-.038.246-.059q.729-.193,1.427-.437c.1-.035.2-.072.3-.109.472-.171.936-.354,1.386-.557l.005,0c.451-.205.885-.431,1.312-.666.091-.05.182-.1.272-.152.411-.236.811-.483,1.195-.746.065-.044.126-.09.189-.135q.523-.367,1.012-.768c.06-.049.122-.1.18-.145.35-.3.683-.6,1-.921l.205-.211c.32-.33.629-.668.914-1.02l0,0h0l.017-.024a14.615,14.615,0,0,0,.923-1.285c.1-.149.174-.3.263-.456.182-.308.36-.618.517-.938.025-.051.058-.1.082-.149.083-.174.143-.357.218-.535.093-.222.191-.442.272-.669s.152-.482.224-.726.14-.461.194-.7c.013-.053.033-.105.045-.159.055-.253.086-.514.126-.772.023-.155.057-.308.075-.465A12.586,12.586,0,0,0,799.513,834.076Z" transform="translate(-1012 -93.892)" fill="#7352db"/>
    <path id="Path_927" data-name="Path 927" d="M799.513,839.108v-5.1a12.6,12.6,0,0,1-.088,1.447c-.018.156-.052.309-.075.464-.049.313-.1.625-.171.932-.054.235-.127.465-.194.7s-.139.488-.224.726-.179.447-.273.669-.19.459-.3.683c-.156.32-.335.63-.517.939-.089.151-.168.307-.263.455a14.735,14.735,0,0,1-.925,1.289l-.016.022,0,0c-.285.352-.593.69-.913,1.02-.068.07-.136.141-.205.21q-.48.477-1,.921c-.059.05-.122.1-.182.146q-.488.4-1.011.767c-.063.045-.124.091-.189.135-.384.263-.784.511-1.195.746-.09.052-.181.1-.272.153-.427.235-.861.46-1.312.665l-.005,0c-.45.2-.914.386-1.386.557-.1.037-.2.075-.3.11-.466.161-.942.308-1.427.436-.081.021-.164.039-.246.06q-.672.168-1.366.293c-.084.015-.167.033-.251.047-.506.085-1.02.149-1.541.2-.114.011-.229.019-.344.028-.537.041-1.079.068-1.629.068H520.509c-9.845,0-17.828-6.666-17.828-14.887v5.1c0,8.221,7.983,14.887,17.828,14.887H781.684c.55,0,1.092-.028,1.629-.068.115-.009.23-.017.344-.028.521-.048,1.035-.112,1.541-.2.084-.014.167-.032.251-.047q.695-.125,1.366-.293c.082-.021.165-.039.246-.06.486-.128.961-.275,1.427-.436l.3-.11c.472-.171.936-.353,1.386-.557l.005,0c.451-.205.885-.43,1.312-.666.091-.05.182-.1.272-.152.411-.235.811-.483,1.195-.746.065-.044.126-.09.189-.135q.523-.367,1.012-.768c.06-.049.122-.1.18-.145.35-.295.683-.6,1-.921.069-.069.137-.14.205-.21.32-.331.629-.668.914-1.021l0,0v0l.017-.024a14.321,14.321,0,0,0,.923-1.285c.1-.149.174-.3.263-.455.182-.309.36-.619.517-.939.025-.051.058-.1.082-.149.083-.174.143-.357.218-.534.093-.222.191-.443.272-.669s.152-.483.224-.726.14-.462.194-.7c.013-.054.033-.1.045-.159.055-.254.086-.515.126-.773.023-.155.057-.308.075-.464A12.6,12.6,0,0,0,799.513,839.108Z" transform="translate(-1012 -93.892)" fill="#523aa5"/>
    <path id="Path_928" data-name="Path 928" d="M520.51,838.845c-6.541,0-11.862-4.426-11.862-9.867V779.206a4.7,4.7,0,0,1,1.8-3.621l10.706-8.946a6.861,6.861,0,0,1,4.406-1.516H781.684c6.541,0,11.862,4.426,11.862,9.868v53.987c0,5.441-5.321,9.867-11.862,9.867Z" transform="translate(-1012 -93.892)" fill="none" stroke="#7e64dd" stroke-miterlimit="10" stroke-width="1.5"/>
    <g id="Group_510" data-name="Group 510" transform="translate(-1012 -93.892)">
      <g id="Group_390" data-name="Group 390">
        <path id="Path_757" data-name="Path 757" d="M578.235,800.368a2.162,2.162,0,0,0-.026-.3c-.006-.042-.02-.083-.029-.125s-.017-.078-.027-.117-.014-.073-.025-.108c-.02-.063-.053-.124-.078-.187s-.056-.147-.092-.219c-.011-.022-.016-.045-.028-.067-.046-.088-.1-.172-.157-.258-.024-.038-.045-.076-.07-.114a4.973,4.973,0,0,0-.334-.429c-.028-.031-.059-.063-.088-.094-.1-.11-.2-.218-.313-.325-.05-.049-.1-.1-.155-.145-.1-.09-.2-.18-.3-.268-.058-.05-.116-.1-.176-.148-.107-.089-.217-.178-.329-.265l-.171-.135c-.132-.1-.267-.2-.4-.3l-.11-.082-.579-.423-.437-.319-.188-.14c-.115-.085-.228-.171-.34-.256l-.188-.146c-.109-.086-.216-.173-.321-.259-.054-.046-.11-.091-.163-.137-.131-.111-.255-.224-.374-.337-.021-.02-.045-.039-.065-.059q-.2-.2-.379-.4c-.033-.038-.062-.078-.094-.117-.079-.1-.154-.2-.221-.295-.034-.05-.064-.1-.094-.152a2.718,2.718,0,0,1-.2-.372,3.344,3.344,0,0,1-.206-.747c0-.017-.008-.033-.011-.05a5.86,5.86,0,0,1-.061-.876v3.6a5.579,5.579,0,0,0,.058.747l0,.016c0,.017.009.033.011.05a3.705,3.705,0,0,0,.1.462,2.925,2.925,0,0,0,.1.285c.031.076.066.15.1.224.027.05.063.1.092.148s.061.1.1.152c.067.1.142.2.221.295.032.039.061.078.094.117.117.135.242.269.378.4l.069.063q.177.168.37.334c.054.046.11.091.165.137.1.087.211.173.321.259l.185.144c.114.087.23.175.347.262l.179.133.443.324c.194.14.388.282.58.423l.1.072q.21.156.416.314l.168.132q.168.132.33.267c.06.049.118.1.176.148.1.088.2.178.3.267.052.049.105.1.155.146.111.107.214.215.313.325.029.031.06.062.088.094a4.964,4.964,0,0,1,.334.429c.026.038.046.077.07.115a3.408,3.408,0,0,1,.185.324c.036.072.063.146.092.219a2.5,2.5,0,0,1,.1.294c.01.039.019.079.027.118a2.209,2.209,0,0,1,.056.468v-3.529Z" fill="#6e4fc1"/>
        <path id="Path_758" data-name="Path 758" d="M533.818,796.278c-.38.277-.762.554-1.126.836a6.833,6.833,0,0,0-2.089,2.263,2.426,2.426,0,0,0-.239,1.032V803.9c0-2.882,5.509-4.642,6.552-7.147a4.341,4.341,0,0,0,.279-1.679v-3.488a4.338,4.338,0,0,1-.279,1.679C536.46,794.358,535.148,795.311,533.818,796.278Z" fill="#6e4fc1"/>
        <path id="Path_759" data-name="Path 759" d="M571.818,788.133c.01.035.014.074.024.11a3.886,3.886,0,0,1,.094.474c.018.14.026.288.033.435.006.113.018.221.018.339v-3.6c0-.078-.014-.149-.018-.226-.007-.147-.015-.295-.033-.435,0-.025,0-.054-.007-.078a3.764,3.764,0,0,0-.087-.4c-.01-.035-.014-.074-.024-.109l-.005-.018a2.737,2.737,0,0,0-.194-.48.2.2,0,0,1-.017-.023,2.036,2.036,0,0,0-.891-.883c-.008,0-.014-.012-.022-.016a2.71,2.71,0,0,0-.47-.19l-.026-.006c-.042-.013-.089-.019-.133-.03-.119-.03-.237-.062-.364-.082-.028,0-.059,0-.087-.007-.125-.017-.256-.024-.387-.032-.081-.005-.157-.018-.24-.02h-.151a10.983,10.983,0,0,0-1.146.072c-.026,0-.05,0-.077.005l-.066.009c-.505.057-1.025.134-1.546.21-.5.073-.99.145-1.473.2a12.227,12.227,0,0,1-1.345.088,6.062,6.062,0,0,1-.836-.056c-.019,0-.04,0-.059,0a3.414,3.414,0,0,1-.779-.208,2.958,2.958,0,0,1-.38-.2c-.051-.031-.1-.062-.154-.1-.1-.066-.194-.139-.291-.216-.041-.033-.084-.064-.125-.1-.136-.117-.271-.241-.4-.376l-.026-.028c-.126-.129-.25-.266-.374-.409-.044-.051-.088-.1-.133-.157-.088-.106-.177-.213-.265-.323l-.148-.188q-.129-.165-.257-.336c-.047-.062-.095-.124-.142-.187-.1-.129-.193-.259-.289-.39-.153-.207-.306-.414-.46-.619l-.073-.1c-.1-.14-.21-.277-.316-.412-.044-.057-.088-.111-.132-.167-.089-.111-.178-.219-.267-.326-.05-.059-.1-.117-.151-.175-.089-.1-.18-.2-.271-.3-.047-.05-.094-.1-.142-.15q-.172-.174-.348-.33c-.025-.022-.049-.046-.073-.068a4.913,4.913,0,0,0-.43-.329c-.041-.028-.084-.051-.126-.077-.078-.049-.156-.1-.236-.145-.025-.013-.052-.019-.077-.032-.074-.036-.149-.064-.224-.094-.06-.023-.118-.056-.178-.075-.039-.012-.079-.017-.118-.027s-.08-.02-.12-.028-.076-.021-.115-.027a2.209,2.209,0,0,0-.3-.027H554.3a2.459,2.459,0,0,0-.259.014c-.074.009-.147.026-.219.041-.026.006-.052.008-.078.015l-.04.007a2.748,2.748,0,0,0-.43.153l-.008,0c-.023.011-.044.026-.067.037a3.507,3.507,0,0,0-.393.221c-.053.034-.1.075-.156.112-.1.07-.194.142-.289.221-.057.048-.114.1-.17.151-.089.08-.177.162-.264.249-.056.057-.113.114-.169.174-.086.091-.171.184-.255.281-.054.061-.108.122-.161.185-.09.106-.178.215-.267.325l-.138.172q-.16.206-.319.417l-.077.1q-.227.3-.452.611-.158.213-.316.425c-.046.063-.093.123-.139.185-.087.115-.174.229-.261.34-.051.066-.1.13-.154.194-.082.1-.164.2-.246.3-.054.064-.108.127-.162.188-.083.095-.166.186-.25.274-.053.056-.1.113-.158.166-.091.092-.184.176-.276.259-.047.041-.092.085-.139.125a4.387,4.387,0,0,1-.406.3l-.019.014a2.95,2.95,0,0,1-.463.245,3.126,3.126,0,0,1-.485.143c-.14.032-.292.055-.447.076-.1.013-.187.032-.291.042-.144.008-.3.008-.451.008-.33,0-.685-.034-1.039-.068-.133-.012-.259-.014-.4-.03-.454-.053-.918-.12-1.383-.189-.415-.061-.83-.121-1.237-.173l-.15-.02q-.6-.072-1.163-.092c-.037,0-.078-.009-.116-.009-.056,0-.113,0-.168,0a6.067,6.067,0,0,0-.671.034l-.018,0c-.048.005-.091.018-.138.024a4.1,4.1,0,0,0-.415.073c-.02,0-.038.015-.059.02-.056.016-.108.037-.163.056-.084.028-.173.051-.253.085-.046.021-.086.049-.131.072s-.085.044-.126.068a2.23,2.23,0,0,0-.43.319,3.252,3.252,0,0,0-.758,2.39v3.488a3.252,3.252,0,0,1,.758-2.39,2.187,2.187,0,0,1,.43-.319c.041-.024.084-.047.126-.068a2.8,2.8,0,0,1,.385-.158c.054-.018.106-.039.162-.055a3.875,3.875,0,0,1,.475-.093c.046-.007.089-.019.137-.024a6.1,6.1,0,0,1,.689-.037c.092,0,.19.007.284.011.375.012.764.044,1.165.092l.141.019c.41.052.826.113,1.244.174.465.069.928.136,1.382.189.137.016.265.018.4.031.29.027.583.06.857.065.06,0,.12,0,.179,0,.153,0,.307,0,.451-.009l.122-.012c.061-.007.111-.021.171-.029.154-.021.306-.045.445-.076.031-.007.067-.009.1-.017a2.844,2.844,0,0,0,.388-.126l.059-.025a2.966,2.966,0,0,0,.4-.221l.023-.016a4.165,4.165,0,0,0,.4-.3c.048-.04.094-.085.141-.127.092-.082.184-.166.274-.256.054-.054.107-.112.16-.168.083-.088.166-.178.248-.272.055-.062.109-.126.164-.191.081-.1.163-.2.244-.3l.156-.2c.086-.11.171-.222.256-.334l.146-.193c.109-.146.219-.295.328-.443q.218-.3.437-.59c.026-.034.053-.068.079-.1q.157-.209.316-.413l.142-.176c.087-.109.175-.217.263-.321.054-.064.108-.125.162-.187.085-.1.169-.189.255-.28.056-.06.113-.118.17-.175.087-.086.174-.169.263-.248.056-.051.113-.1.17-.151.1-.079.191-.15.288-.22.052-.038.1-.079.157-.113a3.446,3.446,0,0,1,.39-.22c.024-.011.046-.027.07-.038a2.65,2.65,0,0,1,.478-.164c.026-.007.052-.01.078-.015a2.075,2.075,0,0,1,.949,0c.04.008.081.017.121.028a4.5,4.5,0,0,1,.519.2,3.373,3.373,0,0,1,.313.177c.042.026.085.048.126.077a4.786,4.786,0,0,1,.43.33c.024.02.047.044.07.065.118.1.236.214.351.332.048.048.095.1.142.15.091.1.182.2.271.3.051.058.1.117.151.177q.133.158.265.323l.136.17q.155.2.308.4l.081.1c.148.2.3.4.444.6.1.137.2.273.3.409l.141.186c.085.114.171.225.257.336.049.063.1.126.148.187.088.111.177.218.265.323.045.053.089.107.133.158.124.143.248.28.374.409l.026.027c.132.136.267.26.4.376.041.036.084.066.125.1.1.077.193.15.291.216.051.034.1.065.154.1s.091.061.138.086c.08.043.161.081.242.115s.167.064.254.091a3.753,3.753,0,0,0,.519.116h.006c.019,0,.04,0,.059,0a5.6,5.6,0,0,0,.675.056h.161a11.945,11.945,0,0,0,1.293-.081l.051-.007c.483-.054.978-.126,1.474-.2.521-.076,1.041-.154,1.546-.211l.143-.014a11.247,11.247,0,0,1,1.146-.071c.135,0,.261.013.391.021s.262.015.387.032a3.929,3.929,0,0,1,.452.089c.043.011.09.017.132.03a2.666,2.666,0,0,1,.518.212,2.2,2.2,0,0,1,.514.37,2.175,2.175,0,0,1,.377.513A2.8,2.8,0,0,1,571.818,788.133Z" fill="#6e4fc1"/>
      </g>
    </g>
    <g id="Group_511" data-name="Group 511" transform="translate(-1012 -93.892)">
      <path id="Path_760" data-name="Path 760" d="M554.3,780.15c2.889,0,4.671,5.459,7.2,6.509a4.422,4.422,0,0,0,1.674.269,20.07,20.07,0,0,0,2.817-.287,20.523,20.523,0,0,1,2.835-.3,3.3,3.3,0,0,1,2.394.754c1.971,1.957-.63,7.066.459,9.651,1.044,2.505,6.552,4.265,6.552,7.147s-5.508,4.641-6.552,7.137c-1.089,2.6,1.512,7.7-.459,9.652a3.3,3.3,0,0,1-2.411.763,19,19,0,0,1-2.818-.3,20.183,20.183,0,0,0-2.826-.287,4.371,4.371,0,0,0-1.665.269c-2.529,1.032-4.311,6.509-7.2,6.509-2.907,0-4.68-5.477-7.2-6.509a4.031,4.031,0,0,0-1.188-.261c-.171-.008-.315-.008-.459-.008a20.428,20.428,0,0,0-2.844.287,19.242,19.242,0,0,1-2.826.3,3.3,3.3,0,0,1-2.412-.763c-1.962-1.948.63-7.057-.459-9.652-1.044-2.5-6.552-4.264-6.552-7.137s5.508-4.642,6.552-7.147c1.089-2.585-1.5-7.694.459-9.651a3.309,3.309,0,0,1,2.4-.754,20.522,20.522,0,0,1,2.835.3,20.086,20.086,0,0,0,2.817.287c.154,0,.306,0,.45-.009a4.317,4.317,0,0,0,1.224-.26C549.624,785.609,551.4,780.15,554.3,780.15Z" fill="#c5b9ea"/>
    </g>
    <circle id="Ellipse_21" data-name="Ellipse 21" cx="13.553" cy="13.553" r="13.553" transform="translate(-471.251 696.452)" fill="#b9a4ed"/>
    <rect id="Rectangle_246" data-name="Rectangle 246" width="47.871" height="19.914" rx="9.957" transform="translate(-291.884 698.135)" fill="#c5b9ea"/>
  </g>
</svg>
