<svg xmlns="http://www.w3.org/2000/svg" width="296.832" height="93.893" viewBox="0 0 296.832 93.893">
  <g id="Group_518" data-name="Group 518" transform="translate(509.319 -560.76)">
    <path id="Path_932" data-name="Path 932" d="M781.684,654.652c9.845,0,17.829,6.667,17.829,14.888v53.988c0,8.22-7.984,14.887-17.829,14.887H520.509c-9.845,0-17.828-6.667-17.828-14.887V673.755a9.38,9.38,0,0,1,3.571-7.19l10.7-8.938a13.492,13.492,0,0,1,8.61-2.975Z" transform="translate(-1012 -93.892)" fill="#ba97ff"/>
    <path id="Path_933" data-name="Path 933" d="M799.513,728.625v-5.1a12.588,12.588,0,0,1-.088,1.446c-.018.157-.052.309-.075.465-.049.312-.1.624-.171.931-.054.235-.127.465-.194.7s-.139.488-.224.726-.179.447-.273.669-.19.459-.3.683c-.156.32-.335.63-.517.939-.089.151-.168.307-.263.455a14.744,14.744,0,0,1-.925,1.289l-.016.022,0,0c-.285.352-.593.69-.913,1.02-.068.07-.136.141-.205.21q-.48.477-1,.921c-.059.05-.122.1-.182.146q-.488.4-1.011.767c-.063.045-.124.091-.189.135-.384.263-.784.511-1.195.747l-.272.152c-.427.235-.861.46-1.312.665l-.005,0c-.45.2-.914.386-1.386.557-.1.037-.2.075-.3.11-.466.161-.942.308-1.427.436-.081.021-.164.039-.246.06q-.672.168-1.366.293c-.084.015-.167.033-.251.047-.506.085-1.02.149-1.541.2-.114.011-.229.019-.344.028-.537.041-1.079.069-1.629.069H520.509c-9.845,0-17.828-6.667-17.828-14.887v5.1c0,8.221,7.983,14.887,17.828,14.887H781.684c.55,0,1.092-.028,1.629-.068.115-.009.23-.017.344-.028.521-.048,1.035-.111,1.541-.2.084-.014.167-.032.251-.047q.695-.124,1.366-.293c.082-.021.165-.039.246-.06.486-.128.961-.275,1.427-.436l.3-.11c.472-.171.936-.353,1.386-.557l.005,0c.451-.205.885-.43,1.312-.665.091-.051.182-.1.272-.153.411-.235.811-.483,1.195-.746.065-.044.126-.09.189-.135q.523-.367,1.012-.768c.06-.049.122-.095.18-.145.35-.3.683-.6,1-.921.069-.069.137-.14.205-.21.32-.331.629-.668.914-1.021l0,0v0l.017-.024a14.329,14.329,0,0,0,.923-1.285c.1-.148.174-.3.263-.455.182-.309.36-.619.517-.939.025-.051.058-.1.082-.149.083-.174.143-.357.218-.534.093-.222.191-.443.272-.669s.152-.483.224-.726.14-.462.194-.7c.013-.054.033-.105.045-.159.055-.254.086-.514.126-.773.023-.155.057-.308.075-.464A12.606,12.606,0,0,0,799.513,728.625Z" transform="translate(-1012 -93.892)" fill="#996fd6"/>
    <path id="Path_934" data-name="Path 934" d="M799.513,733.658v-5.1a12.587,12.587,0,0,1-.088,1.446c-.018.157-.052.31-.075.465-.049.313-.1.625-.171.931-.054.236-.127.466-.194.7s-.139.488-.224.726-.179.447-.273.67-.19.459-.3.682c-.156.321-.335.631-.517.939-.089.151-.168.307-.263.455a14.6,14.6,0,0,1-.925,1.289l-.016.022,0,.005c-.285.352-.593.689-.913,1.019l-.205.211c-.32.318-.653.626-1,.92-.059.05-.122.1-.182.146-.325.267-.662.522-1.011.768-.063.044-.124.091-.189.135-.384.262-.784.51-1.195.746-.09.052-.181.1-.272.152-.427.235-.861.461-1.312.665l-.005,0c-.45.2-.914.386-1.386.558-.1.037-.2.074-.3.109-.466.161-.942.308-1.427.436-.081.022-.164.04-.246.06q-.672.168-1.366.293c-.084.015-.167.033-.251.047-.506.085-1.02.149-1.541.2-.114.01-.229.018-.344.027-.537.041-1.079.069-1.629.069H520.509c-9.845,0-17.828-6.666-17.828-14.887v5.1c0,8.22,7.983,14.887,17.828,14.887H781.684c.55,0,1.092-.028,1.629-.069.115-.009.23-.017.344-.027.521-.048,1.035-.112,1.541-.2.084-.014.167-.032.251-.047q.695-.125,1.366-.293c.082-.021.165-.038.246-.06.486-.128.961-.275,1.427-.436.1-.035.2-.072.3-.109.472-.172.936-.354,1.386-.558l.005,0c.451-.2.885-.43,1.312-.665l.272-.152c.411-.236.811-.484,1.195-.747.065-.043.126-.09.189-.134q.523-.369,1.012-.769c.06-.048.122-.1.18-.145.35-.294.683-.6,1-.921.069-.069.137-.139.205-.21.32-.33.629-.668.914-1.021l0,0v0l.017-.023a14.476,14.476,0,0,0,.923-1.286c.1-.148.174-.3.263-.455.182-.309.36-.618.517-.939.025-.05.058-.1.082-.149.083-.174.143-.357.218-.534.093-.222.191-.442.272-.669s.152-.483.224-.726.14-.461.194-.7c.013-.054.033-.1.045-.159.055-.254.086-.514.126-.772.023-.156.057-.308.075-.465A12.588,12.588,0,0,0,799.513,733.658Z" transform="translate(-1012 -93.892)" fill="#6e4fc1"/>
    <path id="Path_935" data-name="Path 935" d="M520.51,733.4c-6.541,0-11.862-4.427-11.862-9.867V673.755a4.7,4.7,0,0,1,1.8-3.62l10.706-8.947a6.861,6.861,0,0,1,4.406-1.516H781.684c6.541,0,11.862,4.427,11.862,9.868v53.988c0,5.44-5.321,9.867-11.862,9.867Z" transform="translate(-1012 -93.892)" fill="none" stroke="#996fd6" stroke-miterlimit="10" stroke-width="1.5"/>
    <g id="Group_515" data-name="Group 515" transform="translate(-1012 -93.892)">
      <path id="Path_749" data-name="Path 749" d="M578.235,694.917a2.162,2.162,0,0,0-.026-.3c-.006-.042-.02-.083-.029-.124s-.017-.079-.027-.118-.014-.072-.025-.107c-.02-.064-.053-.125-.078-.187s-.056-.147-.092-.219c-.011-.023-.016-.046-.028-.068-.046-.087-.1-.172-.157-.257-.024-.038-.045-.077-.07-.114a4.682,4.682,0,0,0-.334-.429c-.028-.032-.059-.063-.088-.1-.1-.109-.2-.218-.313-.325-.05-.049-.1-.1-.155-.145-.1-.09-.2-.179-.3-.267-.058-.05-.116-.1-.176-.149-.107-.089-.217-.177-.329-.265l-.171-.135c-.132-.1-.267-.2-.4-.3l-.11-.082q-.288-.213-.579-.423l-.437-.32-.188-.14c-.115-.085-.228-.17-.34-.256l-.188-.146c-.109-.086-.216-.172-.321-.259l-.163-.136c-.131-.112-.255-.224-.374-.338-.021-.02-.045-.039-.065-.059q-.2-.2-.379-.4c-.033-.038-.062-.078-.094-.117-.079-.1-.154-.2-.221-.295-.034-.05-.064-.1-.094-.151a2.846,2.846,0,0,1-.2-.372,3.368,3.368,0,0,1-.206-.748c0-.017-.008-.032-.011-.05a5.855,5.855,0,0,1-.061-.875v3.6a5.579,5.579,0,0,0,.058.747l0,.016c0,.017.009.033.011.05a3.721,3.721,0,0,0,.1.463,2.925,2.925,0,0,0,.1.285c.031.075.066.149.1.223.027.05.063.1.092.148s.061.1.1.152c.067.1.142.2.221.295.032.039.061.079.094.118.117.134.242.268.378.4.022.021.047.041.069.062.118.112.241.224.37.334.054.046.11.092.165.137.1.087.211.173.321.259.061.048.123.1.185.144q.171.132.347.262l.179.133.443.324c.194.141.388.282.58.424l.1.072q.21.156.416.313c.057.044.112.088.168.133q.168.132.33.266c.06.049.118.1.176.148.1.089.2.178.3.268.052.048.105.1.155.145.111.107.214.216.313.325.029.032.06.063.088.094a4.964,4.964,0,0,1,.334.429c.026.038.046.077.07.115a3.534,3.534,0,0,1,.185.324c.036.072.063.146.092.22a2.439,2.439,0,0,1,.1.294q.015.059.027.117a2.224,2.224,0,0,1,.056.468v-3.529Z" fill="#996fd6"/>
      <path id="Path_750" data-name="Path 750" d="M533.818,690.828c-.38.276-.762.554-1.126.836a6.814,6.814,0,0,0-2.089,2.263,2.418,2.418,0,0,0-.239,1.031v3.488c0-2.882,5.509-4.641,6.552-7.146a4.344,4.344,0,0,0,.279-1.679v-3.488a4.344,4.344,0,0,1-.279,1.679C536.46,688.908,535.148,689.861,533.818,690.828Z" fill="#996fd6"/>
      <path id="Path_751" data-name="Path 751" d="M571.818,682.682c.01.035.014.074.024.11a3.861,3.861,0,0,1,.094.475c.018.139.026.287.033.435.006.113.018.221.018.338v-3.6c0-.078-.014-.149-.018-.225-.007-.148-.015-.3-.033-.436,0-.025,0-.053-.007-.078a3.746,3.746,0,0,0-.087-.4c-.01-.036-.014-.075-.024-.11l-.005-.018a2.694,2.694,0,0,0-.194-.479c-.005-.009-.013-.015-.017-.024a2.2,2.2,0,0,0-.377-.513,2.262,2.262,0,0,0-.514-.37c-.008,0-.014-.012-.022-.016a2.79,2.79,0,0,0-.47-.19l-.026-.006c-.042-.012-.089-.019-.133-.03-.119-.03-.237-.062-.364-.082-.028,0-.059,0-.087-.007-.125-.017-.256-.024-.387-.032-.081,0-.157-.018-.24-.019l-.151,0a10.966,10.966,0,0,0-1.146.072c-.026,0-.05,0-.077,0l-.066.009c-.505.057-1.025.134-1.546.211-.5.073-.99.145-1.473.2a12.227,12.227,0,0,1-1.345.088,6.068,6.068,0,0,1-.836-.057c-.019,0-.04,0-.059-.005a3.359,3.359,0,0,1-.779-.208,2.833,2.833,0,0,1-.38-.2c-.051-.03-.1-.061-.154-.1-.1-.065-.194-.138-.291-.216-.041-.033-.084-.064-.125-.1-.136-.117-.271-.241-.4-.376l-.026-.027c-.126-.13-.25-.267-.374-.409l-.133-.158c-.088-.106-.177-.213-.265-.323l-.148-.188q-.129-.165-.257-.335l-.142-.188c-.1-.129-.193-.259-.289-.39-.153-.207-.306-.414-.46-.619l-.073-.095c-.1-.139-.21-.276-.316-.412l-.132-.166q-.133-.167-.267-.327c-.05-.059-.1-.117-.151-.175-.089-.1-.18-.2-.271-.3-.047-.05-.094-.1-.142-.15q-.172-.174-.348-.33c-.025-.021-.049-.046-.073-.067a4.927,4.927,0,0,0-.43-.33c-.041-.028-.084-.05-.126-.077-.078-.049-.156-.1-.236-.144-.025-.014-.052-.02-.077-.032-.074-.037-.149-.065-.224-.1-.06-.023-.118-.055-.178-.074-.039-.013-.079-.018-.118-.028s-.08-.02-.12-.028-.076-.021-.115-.027a2.218,2.218,0,0,0-.3-.027H554.3a2.222,2.222,0,0,0-.259.015,2,2,0,0,0-.219.041c-.026,0-.052.008-.078.014l-.04.007a2.759,2.759,0,0,0-.43.154l-.008,0c-.023.01-.044.025-.067.036a3.507,3.507,0,0,0-.393.221c-.053.035-.1.075-.156.113-.1.07-.194.141-.289.221-.057.047-.114.1-.17.15-.089.08-.177.162-.264.249-.056.057-.113.115-.169.174-.086.091-.171.185-.255.281-.054.061-.108.122-.161.185-.09.106-.178.215-.267.325l-.138.172c-.107.137-.213.277-.319.417l-.077.1c-.151.2-.3.406-.452.61q-.158.215-.316.426c-.046.062-.093.123-.139.184q-.13.173-.261.341l-.154.194c-.082.1-.164.2-.246.3q-.081.1-.162.189c-.083.094-.166.185-.25.274-.053.055-.1.112-.158.165-.091.092-.184.176-.276.259-.047.041-.092.086-.139.125a4.387,4.387,0,0,1-.406.3l-.019.014a2.579,2.579,0,0,1-.948.388c-.14.032-.292.056-.447.076-.1.014-.187.032-.291.042-.144.009-.3.009-.451.009-.33,0-.685-.035-1.039-.068-.133-.013-.259-.015-.4-.031-.454-.053-.918-.12-1.383-.188-.415-.061-.83-.122-1.237-.174l-.15-.019q-.6-.074-1.163-.093c-.037,0-.078-.008-.116-.009l-.168,0a6.067,6.067,0,0,0-.671.034l-.018,0c-.048.006-.091.018-.138.024a4.121,4.121,0,0,0-.415.074c-.02.005-.038.014-.059.019-.056.016-.108.038-.163.056-.084.028-.173.051-.253.086-.046.02-.086.048-.131.071s-.085.044-.126.068a2.232,2.232,0,0,0-.43.319,3.254,3.254,0,0,0-.758,2.39v3.488a3.254,3.254,0,0,1,.758-2.39,2.183,2.183,0,0,1,.43-.318c.041-.025.084-.047.126-.069a2.673,2.673,0,0,1,.385-.157c.054-.018.106-.04.162-.056a4.08,4.08,0,0,1,.475-.093c.046-.006.089-.019.137-.024a6.1,6.1,0,0,1,.689-.037c.092,0,.19.008.284.011q.563.02,1.165.092l.141.019c.41.052.826.113,1.244.174.465.069.928.136,1.382.189.137.016.265.018.4.031.29.027.583.06.857.066l.179,0c.153,0,.307,0,.451-.009l.122-.013c.061-.007.111-.021.171-.029.154-.021.306-.044.445-.076.031-.007.067-.009.1-.016a3,3,0,0,0,.388-.127l.059-.025a3.075,3.075,0,0,0,.4-.22l.023-.017a4.166,4.166,0,0,0,.4-.3c.048-.04.094-.085.141-.127.092-.082.184-.166.274-.256.054-.054.107-.111.16-.168.083-.088.166-.178.248-.272.055-.062.109-.126.164-.191.081-.1.163-.2.244-.3.052-.065.1-.13.156-.2q.129-.165.256-.334l.146-.192c.109-.147.219-.295.328-.444.145-.2.291-.394.437-.589.026-.035.053-.069.079-.1q.157-.21.316-.413c.047-.06.095-.118.142-.177.087-.109.175-.216.263-.321.054-.064.108-.125.162-.187.085-.1.169-.189.255-.28.056-.06.113-.117.17-.174.087-.087.174-.169.263-.249.056-.051.113-.1.17-.151.1-.079.191-.15.288-.22.052-.037.1-.079.157-.113a3.445,3.445,0,0,1,.39-.219c.024-.012.046-.028.07-.038a2.732,2.732,0,0,1,.478-.165l.078-.015a2.379,2.379,0,0,1,.478-.055,2.3,2.3,0,0,1,.471.055c.04.008.081.018.121.028a2.63,2.63,0,0,1,.294.1c.076.029.151.058.225.094a3.373,3.373,0,0,1,.313.177c.042.026.085.049.126.077a4.774,4.774,0,0,1,.43.33c.024.02.047.044.07.065.118.1.236.215.351.332.048.048.095.1.142.15.091.1.182.2.271.3.051.058.1.116.151.176.089.106.177.213.265.323l.136.171q.155.2.308.4l.081.106c.148.2.3.4.444.6.1.137.2.273.3.409l.141.186q.128.171.257.336l.148.188c.088.11.177.217.265.323.045.052.089.106.133.157.124.143.248.28.374.409l.026.028c.132.135.267.259.4.376.041.035.084.066.125.1.1.077.193.151.291.216.051.035.1.065.154.1s.091.061.138.086c.08.043.161.081.242.115s.167.064.254.091a3.608,3.608,0,0,0,.519.116h.006c.019,0,.04,0,.059.005a5.826,5.826,0,0,0,.675.055l.161,0a11.945,11.945,0,0,0,1.293-.081l.051-.007c.483-.055.978-.126,1.474-.2.521-.076,1.041-.153,1.546-.21.048-.006.1-.009.143-.014a10.983,10.983,0,0,1,1.146-.072c.135,0,.261.013.391.021s.262.015.387.032a3.929,3.929,0,0,1,.452.089c.043.011.09.017.132.03a2.8,2.8,0,0,1,.518.212,2.262,2.262,0,0,1,.514.37,2.181,2.181,0,0,1,.377.514A2.758,2.758,0,0,1,571.818,682.682Z" fill="#996fd6"/>
    </g>
    <g id="Group_514" data-name="Group 514" transform="translate(-1012 -93.892)">
      <path id="Path_752" data-name="Path 752" d="M554.3,674.7c2.889,0,4.671,5.459,7.2,6.509a4.422,4.422,0,0,0,1.674.27,20.078,20.078,0,0,0,2.817-.288,20.674,20.674,0,0,1,2.835-.3,3.3,3.3,0,0,1,2.394.754c1.971,1.957-.63,7.066.459,9.652,1.044,2.505,6.552,4.264,6.552,7.146s-5.508,4.642-6.552,7.138c-1.089,2.594,1.512,7.7-.459,9.651a3.3,3.3,0,0,1-2.411.763,18.872,18.872,0,0,1-2.818-.3,20.183,20.183,0,0,0-2.826-.287,4.371,4.371,0,0,0-1.665.269c-2.529,1.033-4.311,6.509-7.2,6.509-2.907,0-4.68-5.476-7.2-6.509a4.064,4.064,0,0,0-1.188-.26c-.171-.009-.315-.009-.459-.009a20.429,20.429,0,0,0-2.844.287,19.11,19.11,0,0,1-2.826.3,3.3,3.3,0,0,1-2.412-.763c-1.962-1.948.63-7.057-.459-9.651-1.044-2.5-6.552-4.265-6.552-7.138s5.508-4.641,6.552-7.146c1.089-2.586-1.5-7.7.459-9.652a3.313,3.313,0,0,1,2.4-.754,20.674,20.674,0,0,1,2.835.3,20.094,20.094,0,0,0,2.817.288c.154,0,.306,0,.45-.009a4.316,4.316,0,0,0,1.224-.261C549.624,680.158,551.4,674.7,554.3,674.7Z" fill="#cfcbef"/>
    </g>
    <circle id="Ellipse_23" data-name="Ellipse 23" cx="13.553" cy="13.553" r="13.553" transform="translate(-471.251 591.001)" fill="#c2b4e2"/>
    <rect id="Rectangle_247" data-name="Rectangle 247" width="47.871" height="19.914" rx="9.957" transform="translate(-291.884 592.684)" fill="#cfcbef"/>
  </g>
</svg>
