<svg xmlns="http://www.w3.org/2000/svg" width="58.86" height="66.169" viewBox="0 0 58.86 66.169">
  <g id="Group_459" data-name="Group 459" transform="translate(-16.072 -232.689)">
    <path id="Path_167" data-name="Path 167" d="M2899.381,232.689c6.949,0,12.583,4.705,12.583,10.507v38.1c0,5.8-5.634,10.507-12.583,10.507h-33.694c-6.948,0-12.583-4.7-12.583-10.507V246.171a6.616,6.616,0,0,1,2.521-5.074l7.548-6.308a9.522,9.522,0,0,1,6.077-2.1Z" transform="translate(-2837.032)" fill="#ff6fa5"/>
    <path id="Path_168" data-name="Path 168" d="M2911.964,284.9v-3.6a8.879,8.879,0,0,1-.062,1.02c-.012.111-.036.219-.053.329-.034.22-.07.441-.12.657-.039.166-.09.328-.138.492s-.1.344-.158.512-.126.316-.192.473-.134.324-.211.482c-.111.226-.237.444-.365.662-.063.107-.118.217-.185.321a10.418,10.418,0,0,1-.654.91l-.011.015,0,0c-.2.248-.418.486-.644.719-.048.05-.1.1-.145.149-.225.224-.46.442-.707.649-.042.036-.086.069-.128.1q-.344.282-.714.542c-.044.031-.088.064-.133.1-.271.186-.554.361-.843.527-.064.037-.129.072-.193.107-.3.166-.608.326-.926.47h0c-.317.144-.645.273-.978.394l-.215.077c-.329.114-.664.217-1.007.308-.057.015-.116.027-.173.042q-.475.118-.964.207c-.06.011-.118.023-.178.033-.357.06-.72.105-1.087.139l-.243.019c-.379.029-.762.049-1.15.049h-33.694c-6.948,0-12.583-4.7-12.583-10.507v3.6c0,5.8,5.635,10.506,12.583,10.506h33.694c.388,0,.771-.019,1.15-.048l.243-.019c.367-.034.73-.079,1.087-.139.06-.01.118-.022.178-.033q.489-.088.964-.207c.057-.015.116-.027.173-.042.343-.091.678-.194,1.007-.308l.215-.077c.333-.121.661-.25.978-.394h0c.318-.145.625-.3.926-.47.065-.035.129-.071.193-.107q.435-.249.843-.527c.045-.031.088-.063.133-.1q.37-.26.715-.542c.042-.035.085-.068.127-.1.247-.208.482-.426.707-.65.049-.049.1-.1.145-.149.226-.233.444-.471.645-.72l0,0h0l.012-.017a10.152,10.152,0,0,0,.652-.907c.067-.105.122-.214.185-.321.128-.218.254-.436.365-.662.017-.036.041-.07.058-.106.058-.123.1-.252.153-.377.066-.157.135-.312.192-.472s.108-.341.158-.512.1-.326.138-.492c.009-.038.023-.074.031-.112.039-.18.061-.363.089-.546.017-.109.041-.217.053-.328A8.879,8.879,0,0,0,2911.964,284.9Z" transform="translate(-2837.032)" fill="#e54e92"/>
    <path id="Path_169" data-name="Path 169" d="M2865.687,288.263c-4.616,0-8.371-3.124-8.371-6.964V246.171a3.316,3.316,0,0,1,1.269-2.555l7.556-6.314a4.843,4.843,0,0,1,3.109-1.07h30.131c4.616,0,8.372,3.124,8.372,6.964v38.1c0,3.84-3.756,6.964-8.372,6.964Z" transform="translate(-2837.032)" fill="none" stroke="#e54e92" stroke-miterlimit="10" stroke-width="1.059"/>
    <path id="Path_170" data-name="Path 170" d="M2911.964,288.351v-3.6a8.883,8.883,0,0,1-.062,1.021c-.012.111-.036.218-.053.328-.034.221-.07.441-.12.657-.039.166-.09.329-.138.492s-.1.344-.158.513-.126.315-.192.472-.134.324-.211.482c-.111.226-.237.445-.365.663-.063.106-.118.216-.185.321a10.567,10.567,0,0,1-.654.91l-.011.015,0,0c-.2.248-.418.487-.644.719-.048.05-.1.1-.145.149q-.337.338-.707.65c-.042.035-.086.068-.128.1q-.344.282-.714.541c-.044.032-.088.065-.133.1-.271.185-.554.36-.843.526-.064.037-.129.072-.193.108-.3.166-.608.325-.926.469l0,0c-.317.144-.645.272-.978.393-.072.026-.143.053-.215.077-.329.114-.664.218-1.007.308-.057.015-.116.028-.173.042q-.475.12-.964.207c-.06.011-.118.024-.178.034-.357.059-.72.1-1.087.138-.081.008-.162.013-.243.019-.379.029-.762.049-1.15.049h-33.694c-6.948,0-12.583-4.705-12.583-10.507v3.6c0,5.8,5.635,10.507,12.583,10.507h33.694c.388,0,.771-.02,1.15-.049.081-.006.162-.011.243-.019.367-.034.73-.079,1.087-.138.06-.01.118-.023.178-.034q.489-.087.964-.207c.057-.014.116-.027.173-.042.343-.09.678-.194,1.007-.308l.215-.077c.333-.121.661-.249.978-.393l0,0c.318-.144.625-.3.926-.469.065-.036.129-.071.193-.108q.435-.249.843-.526c.045-.031.088-.064.133-.1q.37-.26.715-.542c.042-.034.085-.067.127-.1q.371-.312.707-.65c.049-.049.1-.1.145-.149.226-.233.444-.471.645-.72l0,0h0l.012-.017a10.3,10.3,0,0,0,.652-.907c.067-.1.122-.215.185-.322.128-.218.254-.436.365-.662.017-.036.041-.069.058-.105.058-.123.1-.252.153-.377.066-.157.135-.313.192-.473s.108-.34.158-.512.1-.326.138-.492c.009-.038.023-.074.031-.112.039-.179.061-.363.089-.545.017-.11.041-.217.053-.328A8.883,8.883,0,0,0,2911.964,288.351Z" transform="translate(-2837.032)" fill="#d02f90"/>
    <path id="Path_171" data-name="Path 171" d="M2899.427,271.284a7.027,7.027,0,0,0-7.028-7.027h-19.73a7.027,7.027,0,0,0-7.028,7.027h0v1.749h.229a7.024,7.024,0,0,0,6.8,5.279h19.73a7.025,7.025,0,0,0,6.8-5.279h.227v-1.749Z" transform="translate(-2837.032)" fill="#e54e92"/>
    <g id="Group_127" data-name="Group 127" transform="translate(-2837.032)">
      <g id="Group_124" data-name="Group 124">
        <path id="Path_172" data-name="Path 172" d="M2867.85,248.022a.623.623,0,0,1,.565.35l1.068,2.148a.629.629,0,0,0,.473.342l2.387.344a.625.625,0,0,1,.35,1.068l-1.728,1.672a.627.627,0,0,0-.18.554l.407,2.362a.629.629,0,0,1-.915.66l-2.134-1.116a.64.64,0,0,0-.586,0l-2.134,1.116a.636.636,0,0,1-.293.073.63.63,0,0,1-.623-.733l.407-2.362a.621.621,0,0,0-.18-.554l-1.727-1.672a.625.625,0,0,1,.35-1.068l2.386-.344a.635.635,0,0,0,.475-.342l1.066-2.148A.626.626,0,0,1,2867.85,248.022Z" fill="#ffbe2e"/>
      </g>
      <g id="Group_125" data-name="Group 125">
        <path id="Path_173" data-name="Path 173" d="M2897.219,248.022a.622.622,0,0,1,.565.35l1.068,2.148a.628.628,0,0,0,.473.342l2.387.344a.626.626,0,0,1,.35,1.068l-1.728,1.672a.627.627,0,0,0-.18.554l.407,2.362a.629.629,0,0,1-.915.66l-2.135-1.116a.638.638,0,0,0-.585,0l-2.134,1.116a.638.638,0,0,1-.293.073.63.63,0,0,1-.623-.733l.407-2.362a.621.621,0,0,0-.18-.554l-1.727-1.672a.625.625,0,0,1,.349-1.068l2.387-.344a.635.635,0,0,0,.475-.342l1.066-2.148A.625.625,0,0,1,2897.219,248.022Z" fill="#ffbe2e"/>
      </g>
      <g id="Group_126" data-name="Group 126">
        <path id="Path_174" data-name="Path 174" d="M2882.535,244.577a.846.846,0,0,1,.768.475l1.452,2.921a.853.853,0,0,0,.644.465l3.246.468a.851.851,0,0,1,.475,1.453l-2.349,2.273a.854.854,0,0,0-.245.754l.553,3.211a.856.856,0,0,1-1.244.9l-2.9-1.518a.865.865,0,0,0-.8,0l-2.9,1.518a.857.857,0,0,1-1.245-.9l.553-3.211a.846.846,0,0,0-.245-.754l-2.349-2.273a.851.851,0,0,1,.476-1.453l3.245-.468a.859.859,0,0,0,.646-.465l1.45-2.921A.85.85,0,0,1,2882.535,244.577Z" fill="#ffbe2e"/>
      </g>
    </g>
    <rect id="Rectangle_118" data-name="Rectangle 118" width="33.786" height="14.055" rx="7.027" transform="translate(28.609 266.085)" fill="#f9c"/>
  </g>
</svg>
