<svg xmlns="http://www.w3.org/2000/svg" width="58.86" height="66.169" viewBox="0 0 58.86 66.169">
  <g id="Group_461" data-name="Group 461" transform="translate(-150.57 -232.689)">
    <path id="Path_183" data-name="Path 183" d="M3033.879,232.689c6.949,0,12.583,4.705,12.583,10.507v38.1c0,5.8-5.634,10.507-12.583,10.507h-33.694c-6.948,0-12.583-4.7-12.583-10.507V246.171a6.62,6.62,0,0,1,2.521-5.074l7.548-6.308a9.523,9.523,0,0,1,6.077-2.1Z" transform="translate(-2837.032)" fill="#ff6fa5"/>
    <path id="Path_184" data-name="Path 184" d="M3046.462,284.9v-3.6a9.048,9.048,0,0,1-.061,1.02c-.013.111-.037.219-.054.329-.034.22-.07.441-.12.657-.039.166-.09.328-.138.492s-.1.344-.157.512-.127.316-.193.473-.134.324-.211.482c-.111.226-.237.444-.365.662-.063.107-.118.217-.185.321a10.216,10.216,0,0,1-.654.91l-.011.015,0,0c-.2.248-.419.486-.645.719-.048.05-.1.1-.145.149-.225.224-.46.442-.707.649-.042.036-.086.069-.128.1q-.344.282-.714.542c-.044.031-.088.064-.133.1-.271.186-.553.361-.843.527-.064.037-.128.072-.193.107-.3.166-.607.326-.926.47h0c-.317.144-.645.273-.978.394l-.215.077q-.493.171-1.007.308c-.057.015-.116.027-.173.042-.316.079-.638.148-.964.207-.06.011-.118.023-.178.033-.357.06-.72.105-1.087.139l-.243.019c-.379.029-.762.049-1.15.049h-33.694c-6.948,0-12.583-4.7-12.583-10.507v3.6c0,5.8,5.635,10.506,12.583,10.506h33.694c.388,0,.771-.019,1.15-.048l.243-.019c.367-.034.73-.079,1.087-.139.06-.01.118-.022.178-.033q.489-.088.964-.207c.057-.015.116-.027.173-.042q.515-.137,1.007-.308l.215-.077c.333-.121.661-.25.978-.394h0c.319-.145.625-.3.926-.47l.193-.107c.29-.166.572-.341.843-.527.045-.031.089-.063.133-.1q.371-.26.715-.542c.042-.035.085-.068.127-.1.247-.208.482-.426.707-.65.049-.049.1-.1.145-.149.226-.233.444-.471.645-.72l0,0h0l.012-.017a10.152,10.152,0,0,0,.652-.907c.067-.105.122-.214.185-.321.128-.218.254-.436.365-.662.017-.036.041-.07.058-.106.058-.123.1-.252.153-.377.066-.157.135-.312.193-.472s.107-.341.157-.512.1-.326.138-.492c.009-.038.023-.074.031-.112.039-.18.061-.363.089-.546.017-.109.041-.217.054-.328A9.048,9.048,0,0,0,3046.462,284.9Z" transform="translate(-2837.032)" fill="#e54e92"/>
    <path id="Path_185" data-name="Path 185" d="M3000.185,288.263c-4.616,0-8.371-3.124-8.371-6.964V246.171a3.315,3.315,0,0,1,1.269-2.555l7.556-6.314a4.844,4.844,0,0,1,3.109-1.07h30.131c4.617,0,8.372,3.124,8.372,6.964v38.1c0,3.84-3.755,6.964-8.372,6.964Z" transform="translate(-2837.032)" fill="none" stroke="#e54e92" stroke-miterlimit="10" stroke-width="1.059"/>
    <path id="Path_186" data-name="Path 186" d="M3046.462,288.351v-3.6a9.052,9.052,0,0,1-.061,1.021c-.013.111-.037.218-.054.328-.034.221-.07.441-.12.657-.039.166-.09.329-.138.492s-.1.344-.157.513-.127.315-.193.472-.134.324-.211.482c-.111.226-.237.445-.365.663-.063.106-.118.216-.185.321a10.36,10.36,0,0,1-.654.91l-.011.015,0,0c-.2.248-.419.487-.645.719-.048.05-.1.1-.145.149-.225.225-.46.442-.707.65-.042.035-.086.068-.128.1q-.344.282-.714.541c-.044.032-.088.065-.133.1-.271.185-.553.36-.843.526-.064.037-.128.072-.193.108-.3.166-.607.325-.926.469l0,0c-.317.144-.645.272-.978.393-.071.026-.143.053-.215.077-.329.114-.664.218-1.007.308-.057.015-.116.028-.173.042-.316.08-.638.149-.964.207-.06.011-.118.024-.178.034-.357.059-.72.1-1.087.138-.081.008-.162.013-.243.019-.379.029-.762.049-1.15.049h-33.694c-6.948,0-12.583-4.705-12.583-10.507v3.6c0,5.8,5.635,10.507,12.583,10.507h33.694c.388,0,.771-.02,1.15-.049.081-.006.162-.011.243-.019.367-.034.73-.079,1.087-.138.06-.01.118-.023.178-.034q.489-.087.964-.207c.057-.014.116-.027.173-.042.343-.09.678-.194,1.007-.308l.215-.077c.333-.121.661-.249.978-.393l0,0c.319-.144.625-.3.926-.469.065-.036.129-.071.193-.108.29-.166.572-.341.843-.526.045-.031.089-.064.133-.1q.371-.26.715-.542c.042-.034.085-.067.127-.1.247-.208.482-.425.707-.65.049-.049.1-.1.145-.149.226-.233.444-.471.645-.72l0,0h0l.012-.017a10.3,10.3,0,0,0,.652-.907c.067-.1.122-.215.185-.322.128-.218.254-.436.365-.662.017-.036.041-.069.058-.105.058-.123.1-.252.153-.377.066-.157.135-.313.193-.473s.107-.34.157-.512.1-.326.138-.492c.009-.038.023-.074.031-.112.039-.179.061-.363.089-.545.017-.11.041-.217.054-.328A9.052,9.052,0,0,0,3046.462,288.351Z" transform="translate(-2837.032)" fill="#d02f90"/>
    <path id="Path_187" data-name="Path 187" d="M3033.925,271.284a7.027,7.027,0,0,0-7.027-7.027h-19.731a7.027,7.027,0,0,0-7.027,7.027h0v1.749h.228a7.024,7.024,0,0,0,6.8,5.279H3026.9a7.025,7.025,0,0,0,6.8-5.279h.227v-1.749Z" transform="translate(-2837.032)" fill="#e54e92"/>
    <g id="Group_131" data-name="Group 131" transform="translate(-2837.032)">
      <path id="Path_188" data-name="Path 188" d="M3002.349,248.022a.622.622,0,0,1,.564.35l1.068,2.148a.629.629,0,0,0,.473.342l2.387.344a.625.625,0,0,1,.35,1.068l-1.727,1.672a.625.625,0,0,0-.181.554l.407,2.362a.629.629,0,0,1-.915.66l-2.134-1.116a.64.64,0,0,0-.586,0l-2.134,1.116a.629.629,0,0,1-.915-.66l.407-2.362a.622.622,0,0,0-.181-.554l-1.727-1.672a.625.625,0,0,1,.35-1.068l2.386-.344a.634.634,0,0,0,.475-.342l1.067-2.148A.625.625,0,0,1,3002.349,248.022Z" fill="#ffbe2e"/>
    </g>
    <g id="Group_132" data-name="Group 132" transform="translate(-2837.032)">
      <path id="Path_189" data-name="Path 189" d="M3031.717,248.022a.623.623,0,0,1,.565.35l1.068,2.148a.628.628,0,0,0,.473.342l2.387.344a.625.625,0,0,1,.35,1.068l-1.728,1.672a.627.627,0,0,0-.18.554l.407,2.362a.629.629,0,0,1-.915.66l-2.135-1.116a.638.638,0,0,0-.585,0l-2.134,1.116a.63.63,0,0,1-.916-.66l.407-2.362a.622.622,0,0,0-.18-.554l-1.727-1.672a.625.625,0,0,1,.349-1.068l2.387-.344a.636.636,0,0,0,.475-.342l1.066-2.148A.625.625,0,0,1,3031.717,248.022Z" fill="#f9c"/>
    </g>
    <g id="Group_133" data-name="Group 133" transform="translate(-2837.032)">
      <path id="Path_190" data-name="Path 190" d="M3017.033,244.577a.845.845,0,0,1,.768.475l1.453,2.921a.849.849,0,0,0,.643.465l3.246.468a.851.851,0,0,1,.476,1.453l-2.349,2.273a.855.855,0,0,0-.246.754l.554,3.211a.857.857,0,0,1-1.245.9l-2.9-1.518a.865.865,0,0,0-.8,0l-2.9,1.518a.857.857,0,0,1-1.245-.9l.553-3.211a.846.846,0,0,0-.245-.754l-2.349-2.273a.851.851,0,0,1,.476-1.453l3.245-.468a.859.859,0,0,0,.646-.465l1.45-2.921A.85.85,0,0,1,3017.033,244.577Z" fill="#f9c"/>
    </g>
    <rect id="Rectangle_120" data-name="Rectangle 120" width="33.786" height="14.055" rx="7.027" transform="translate(163.107 266.085)" fill="#f9c"/>
  </g>
</svg>
