<svg xmlns="http://www.w3.org/2000/svg" width="48.561" height="53.741" viewBox="0 0 48.561 53.741">
  <g id="Group_492" data-name="Group 492" transform="translate(-15.972 -16)">
    <g id="Group_349" data-name="Group 349">
      <path id="Path_652" data-name="Path 652" d="M63.01,27.871c.007.084,0,.17,0,.256a2.859,2.859,0,0,1-.007.32,3,3,0,0,1-.092.43c-.016.059-.021.118-.041.177a3.136,3.136,0,0,1-.268.591L56.722,39.65a3.064,3.064,0,0,0-.254.568l0,.011c-.015.043-.016.089-.029.133a3.061,3.061,0,0,0-.1.471c0,.013-.007.025-.008.038-.01.092,0,.186,0,.279s-.009.182,0,.273c0,.012,0,.023,0,.035a3.135,3.135,0,0,0,.1.524l1.52,5.481a2.959,2.959,0,0,1-.1-.559c-.007-.091,0-.182,0-.273a2.258,2.258,0,0,1,.11-.788c.013-.048.018-.1.033-.144a3.1,3.1,0,0,1,.255-.568L64.12,35.126a3.085,3.085,0,0,0,.269-.591l0-.011c.018-.055.021-.11.035-.166a2.976,2.976,0,0,0,.093-.43.256.256,0,0,0,0-.027,2.606,2.606,0,0,0,0-.293c0-.086.008-.171,0-.255,0-.008,0-.016,0-.024a3.078,3.078,0,0,0-.1-.517l-1.52-5.482A2.974,2.974,0,0,1,63.01,27.871Z" fill="#fc821e"/>
      <path id="Path_653" data-name="Path 653" d="M30.176,53.944a3.017,3.017,0,0,1,.538,1.061h0l-1.52-5.482a3,3,0,0,0-1.459-1.836L17.544,42.138a2.964,2.964,0,0,1-1.462-1.823L17.6,45.8a2.96,2.96,0,0,0,1.461,1.823l10.192,5.549A3.014,3.014,0,0,1,30.176,53.944Z" fill="#fc821e"/>
      <path id="Path_654" data-name="Path 654" d="M61.816,54.234a3.015,3.015,0,0,1-.014.33,2.95,2.95,0,0,1-.083.384c-.018.07-.029.144-.053.213a3.084,3.084,0,0,1-.289.612c-.029.047-.066.088-.1.134a3.054,3.054,0,0,1-.326.4c-.052.054-.107.1-.163.154a3.089,3.089,0,0,1-.387.292c-.058.038-.115.079-.177.113a2.9,2.9,0,0,1-2.1.306L46.764,54.735a3.072,3.072,0,0,0-2.724.756l-8.489,7.943a3.042,3.042,0,0,1-5.012-1.368l1.52,5.482a3.042,3.042,0,0,0,5.012,1.367l8.488-7.943a3.075,3.075,0,0,1,2.724-.755L59.65,62.655a3.048,3.048,0,0,0,1.457-.038,2.98,2.98,0,0,0,.639-.269c.062-.034.118-.074.177-.113a3.065,3.065,0,0,0,.387-.292c.056-.05.111-.1.163-.154a2.99,2.99,0,0,0,.326-.4c.032-.045.068-.086.1-.134a3.036,3.036,0,0,0,.29-.612c0-.01.01-.019.014-.03.019-.059.023-.123.039-.183a2.946,2.946,0,0,0,.082-.384c0-.021.011-.04.013-.061.009-.088,0-.179,0-.268s.007-.164,0-.248c0-.017,0-.034,0-.051a2.928,2.928,0,0,0-.1-.515l-1.52-5.482a2.9,2.9,0,0,1,.1.567C61.823,54.07,61.817,54.152,61.816,54.234Z" fill="#fc821e"/>
    </g>
    <g id="Group_350" data-name="Group 350">
      <path id="Path_655" data-name="Path 655" d="M34.592,16.114a3,3,0,0,1,3.078.9l7.738,8.612a3.02,3.02,0,0,0,2.642.981L59.6,25.127A3.019,3.019,0,0,1,62.6,29.645L56.722,39.65a3.03,3.03,0,0,0-.125,2.811l4.939,10.46a3.037,3.037,0,0,1-3.4,4.252L46.764,54.735a3.072,3.072,0,0,0-2.724.756l-8.489,7.943a3.038,3.038,0,0,1-5.109-1.892L29.289,50.033a3,3,0,0,0-1.554-2.346L17.544,42.138a3.019,3.019,0,0,1,.25-5.421L28.451,32.04a3.047,3.047,0,0,0,1.769-2.2l2.19-11.365A3.016,3.016,0,0,1,34.592,16.114Z" fill="#ffbe2e"/>
    </g>
    <path id="Path_656" data-name="Path 656" d="M33.48,62.26a1.027,1.027,0,0,1-1.048-.915L31.28,49.833a5.012,5.012,0,0,0-2.589-3.9L18.5,40.382a.984.984,0,0,1-.527-.929,1.014,1.014,0,0,1,.626-.9l10.656-4.677a5.039,5.039,0,0,0,2.929-3.655l2.19-11.367a1.025,1.025,0,0,1,.753-.808,1.075,1.075,0,0,1,.3-.041.979.979,0,0,1,.755.345l7.741,8.616a5.019,5.019,0,0,0,4.386,1.628l11.543-1.478A1.307,1.307,0,0,1,60,27.1a1.012,1.012,0,0,1,.886.522.977.977,0,0,1-.011,1.01L55,38.637a5.036,5.036,0,0,0-.208,4.678l4.939,10.46a.952.952,0,0,1,.011.836,1.09,1.09,0,0,1-.686.6,1,1,0,0,1-.263.035,1.143,1.143,0,0,1-.242-.027L47.183,52.78a5.08,5.08,0,0,0-4.508,1.248l-8.49,7.945a1.051,1.051,0,0,1-.436.251A1.014,1.014,0,0,1,33.48,62.26Z" fill="none" stroke="#ffd921" stroke-miterlimit="10" stroke-width="1"/>
    <text id="_1" data-name="1" transform="translate(37.306 46.308)" fill="#fff" font-size="13" font-family="Nunito-ExtraBold, Nunito" font-weight="800"><tspan x="0" y="0">1</tspan></text>
  </g>
</svg>
